<?xml version="1.0" encoding="UTF-8"?>
<svg id="Layer_2" data-name="Layer 2" xmlns="http://www.w3.org/2000/svg" viewBox="0 0 511.36 505.76">
  <defs>
    <style>
      .cls-1 {
        fill: #6db1c9;
      }

      .cls-2 {
        fill: #2f215c;
      }

      .cls-3 {
        fill: #6c58b0;
      }

      .cls-4 {
        fill: #3e2c7a;
      }

      .cls-5 {
        fill: #523ba2;
      }
    </style>
  </defs>
  <g id="Layer_1-2" data-name="Layer 1">
    <g id="disc">
      <g>
        <path class="cls-4" d="M254.08,3.17C90.79,3.07,3.18,89.07,3.18,271.13c0,156.22,130.42,231.45,260.83,231.45,163.02,0,257.22-118.73,242.72-290.22C495.78,82.83,392.61,3.17,254.08,3.17"/>
        <path class="cls-2" d="M254.08,0c-13.78,0-27.57.59-41.29,1.97-12.82,1.29-25.58,3.23-38.16,6.02-11.55,2.56-22.95,5.85-34.04,9.98s-21.12,8.72-31.07,14.32-18.67,11.58-27.21,18.5c-8.32,6.74-16.05,14.21-23.07,22.29s-13.93,17.49-19.74,27.02c-6.1,10-11.29,20.52-15.78,31.34-4.71,11.36-8.55,23.07-11.66,34.97-3.38,12.92-5.91,26.06-7.75,39.29-2.05,14.7-3.31,29.49-3.9,44.31-.63,15.79-.7,31.63.87,47.36s4.25,29.79,8.55,44.2c4.02,13.48,9.37,26.6,15.97,39.02,6.32,11.89,13.85,23.11,22.35,33.55,8.25,10.15,17.47,19.49,27.44,27.96,10.15,8.62,21.04,16.37,32.48,23.19,11.54,6.87,23.62,12.77,36.05,17.84s25.35,9.28,38.43,12.6,26.94,5.87,40.62,7.55c13.66,1.68,27.42,2.5,41.17,2.48,14.4-.01,28.78-.99,43.04-2.98,13.18-1.84,26.23-4.6,38.98-8.41s24.32-8.31,35.87-13.91c10.94-5.31,21.45-11.52,31.34-18.59s19.16-14.92,27.7-23.55,16.41-18.12,23.44-28.11c7.04-10.02,13.24-20.63,18.59-31.65,5.63-11.59,10.36-23.61,14.2-35.9s7.05-25.85,9.24-39.06c2.35-14.15,3.77-28.45,4.33-42.79s.24-30.04-.91-45.01-3.21-28.84-6.71-42.93c-3.3-13.32-7.81-26.31-13.46-38.82s-11.82-23.24-19.29-33.91-15.9-20.65-25.2-29.77-19.65-17.56-30.52-24.97-22.58-13.97-34.64-19.5c-12.68-5.81-25.81-10.62-39.23-14.4-14.13-3.98-28.55-6.81-43.1-8.71S268.77,0,254.08,0c-4.08,0-4.09,6.34,0,6.35,7.68,0,15.36.25,23.03.75,3.75.25,7.5.56,11.24.93,1.85.19,3.7.39,5.55.6.86.1,1.72.21,2.59.31.4.05.8.1,1.2.15.23.03.46.06.69.09,1.1.14-.28-.04.36.05,14.18,1.92,28.23,4.81,41.98,8.75,6.66,1.91,13.24,4.07,19.74,6.48s12,4.71,18.29,7.64c11.86,5.54,23.29,12.03,34.07,19.46,2.67,1.84,5.3,3.74,7.89,5.69.32.24.64.49.96.73.16.12.93.72.56.43.64.49,1.27.99,1.9,1.49,1.26,1,2.51,2.02,3.75,3.05,4.94,4.1,9.69,8.42,14.24,12.94s8.79,9.16,12.86,14.02c1.03,1.23,2.04,2.46,3.04,3.71.47.59.93,1.17,1.39,1.77.12.16.25.32.37.47-.08-.11-.32-.42.05.07.27.36.55.71.82,1.07,1.91,2.51,3.76,5.07,5.55,7.67,7.37,10.7,13.71,22.08,18.98,33.96.72,1.63,1.24,2.83,1.75,4.08.63,1.53,1.25,3.07,1.85,4.62,1.19,3.07,2.31,6.17,3.36,9.29,2.17,6.46,4.05,13.01,5.64,19.64s2.94,13.6,3.97,20.47c.28,1.86.48,3.31.67,4.8.23,1.79.44,3.58.62,5.37.39,3.73.7,7.47.96,11.21,1.05,14.81,1.31,29.69.66,44.53s-2.02,27.63-4.35,41.13-5.32,25.88-9.33,38.47c-1.92,6.04-4.06,12.01-6.42,17.89-.29.73-.59,1.46-.89,2.19-.13.32-.26.64-.4.95-.08.18-.15.36-.23.54-.14.33.15-.34-.08.19-.61,1.44-1.24,2.88-1.88,4.31-1.27,2.84-2.59,5.65-3.97,8.44-5.38,10.88-11.59,21.36-18.62,31.25-.87,1.22-1.75,2.44-2.65,3.64-.42.56-.84,1.13-1.27,1.69-.23.3-.45.6-.68.89-.11.15-.23.3-.34.45.27-.36.04-.05-.11.13-1.81,2.32-3.66,4.6-5.56,6.85-3.84,4.54-7.88,8.93-12.09,13.13s-8.6,8.22-13.15,12.04c-1.14.96-2.29,1.9-3.45,2.84-.54.44-1.09.87-1.64,1.31-.26.2-.51.4-.77.6-.15.11-.29.23-.44.34-.71.55.28-.21-.13.1-2.37,1.82-4.78,3.59-7.22,5.31-9.88,6.95-20.36,13.04-31.27,18.24-2.79,1.33-5.61,2.61-8.46,3.82-.18.08-1.11.47-.59.25-.31.13-.63.26-.94.39-.77.32-1.53.63-2.3.94-1.45.58-2.92,1.16-4.38,1.71-5.91,2.24-11.91,4.24-17.97,6s-12.63,3.41-19.04,4.75c-3.22.68-6.46,1.29-9.7,1.85-1.67.29-3.34.56-5.01.81-.84.13-1.68.25-2.53.37-.37.05-.74.11-1.11.16-.21.03-.42.06-.64.09-.18.02-.72.1-.27.04-13.99,1.87-28.12,2.69-42.23,2.63-13.59-.06-27.17-.93-40.65-2.64-.42-.05-.84-.11-1.27-.16-.2-.03-1.22-.16-.74-.1-.84-.11-1.68-.23-2.53-.35-1.68-.24-3.36-.5-5.04-.76-3.35-.53-6.69-1.12-10.02-1.76-6.58-1.26-13.13-2.74-19.61-4.42-12.9-3.35-25.59-7.54-37.91-12.63-1.61-.67-2.34-.97-4.11-1.74-1.52-.66-3.03-1.33-4.54-2.02-3-1.37-5.98-2.8-8.93-4.28-5.87-2.95-11.63-6.13-17.26-9.53s-10.97-6.92-16.23-10.71c-1.32-.95-2.63-1.92-3.93-2.9-.61-.46-1.22-.92-1.82-1.39-.5-.38-.19-.15-.08-.06-.16-.12-.32-.25-.48-.37-.36-.28-.72-.56-1.08-.85-2.51-1.98-4.98-4.02-7.41-6.11-9.87-8.5-18.99-17.88-27.15-28.04-1.11-1.38-1.9-2.39-2.72-3.47-.96-1.27-1.91-2.54-2.85-3.83-1.94-2.67-3.81-5.39-5.61-8.15-3.62-5.54-6.98-11.27-10.04-17.14-1.57-3-3.06-6.05-4.48-9.12-.71-1.55-1.41-3.11-2.09-4.69-.05-.12-.48-1.12-.31-.72-.17-.4-.33-.79-.5-1.19-.33-.8-.65-1.6-.97-2.4-2.6-6.52-4.87-13.17-6.82-19.91s-3.65-13.96-4.98-21.06c-1.42-7.59-2.34-14.4-3.02-22.06-1.39-15.61-1.23-31.32-.54-46.96.32-7.35.81-14.68,1.48-22.01.33-3.57.7-7.13,1.11-10.68.2-1.75.42-3.5.65-5.24.05-.38.1-.76.15-1.14-.06.44.08-.57.11-.78.13-.91.25-1.83.39-2.74,1.89-13.06,4.46-26.03,7.87-38.78,3.14-11.75,7.01-23.31,11.72-34.53.19-.45-.19.45,0,0,.05-.13.11-.25.16-.38.14-.34.29-.67.43-1.01.31-.71.62-1.42.93-2.13.57-1.29,1.15-2.57,1.75-3.84,1.21-2.6,2.47-5.18,3.78-7.74,2.57-5,5.32-9.9,8.28-14.68s5.96-9.22,9.22-13.63c.38-.51.76-1.02,1.14-1.53.18-.24.36-.47.54-.71.1-.13.21-.27.31-.4,0,0,.49-.63.22-.28-.22.28.37-.48.45-.58.18-.23.36-.46.55-.7.44-.56.89-1.12,1.34-1.68,1.69-2.09,3.42-4.14,5.2-6.16,7.03-7.96,14.74-15.32,23.04-21.95.49-.39.98-.78,1.47-1.16.26-.21.53-.41.79-.61.36-.28-.41.32-.05.04.17-.13.33-.25.5-.38,1.06-.81,2.13-1.61,3.21-2.4,2.17-1.58,4.36-3.11,6.6-4.6,4.47-2.98,9.07-5.77,13.77-8.37s9.68-5.1,14.66-7.36c1.27-.58,2.55-1.14,3.83-1.7.32-.14.64-.28.97-.41.16-.07.32-.14.49-.21-.11.05-.58.24-.03.01.65-.27,1.3-.54,1.95-.81,2.63-1.07,5.29-2.1,7.96-3.07,11.06-4.04,22.42-7.24,33.93-9.73,6.03-1.31,12.11-2.42,18.21-3.36,1.57-.24,3.15-.47,4.73-.69.4-.06.79-.11,1.19-.16-.63.08.52-.07.65-.09.8-.1,1.6-.21,2.4-.31,3.24-.4,6.48-.75,9.73-1.07,13.11-1.25,26.28-1.8,39.44-1.79,4.08,0,4.09-6.35,0-6.35h0Z"/>
      </g>
      <g>
        <g>
          <path class="cls-1" d="M255.08,157.99c-62.05-.04-95.35,32.64-95.35,101.82,0,59.37,49.55,87.96,99.11,87.96,61.95,0,97.74-45.13,92.24-110.29-4.17-49.22-43.37-79.49-96-79.49"/>
          <path class="cls-2" d="M255.08,154.82c-19.27,0-39.18,3.04-56.15,12.67-15.4,8.73-26.61,22.56-33.33,38.82-3.74,9.05-6.03,18.66-7.37,28.34-1.61,11.69-2.37,23.81-1.15,35.58s4.24,22.23,9.57,32.23c4.85,9.11,11.54,17.27,19.43,23.91,16.18,13.64,36.58,21.12,57.43,23.65,20.73,2.51,42.49.18,61.4-9.04,17.08-8.33,30.8-22.46,39.05-39.54,9.39-19.45,12.04-41.51,10.38-62.88-.86-11.06-3.38-21.83-7.97-31.95-4.14-9.12-10.02-17.47-17.16-24.48-15.4-15.11-35.99-23.42-57.16-26.22-5.63-.74-11.3-1.09-16.98-1.1-4.08,0-4.09,6.34,0,6.35,11.31.02,21.7,1.27,32.58,4.41,2.49.72,4.96,1.53,7.38,2.44,2.58.96,4.09,1.59,6.55,2.75,4.47,2.1,8.78,4.55,12.85,7.36.92.63,1.82,1.28,2.71,1.95.24.18.48.36.72.55-.5-.38.29.23.31.25.55.44,1.1.88,1.64,1.33,1.85,1.54,3.62,3.16,5.33,4.85s3.32,3.46,4.85,5.29c.38.46.76.92,1.14,1.39.19.23.37.47.56.71-.39-.5.21.28.23.31.72.96,1.43,1.93,2.11,2.92,5.75,8.38,9.37,16.77,11.72,26.57,1.31,5.45,1.93,9.98,2.31,15.41s.5,11.17.26,16.76c-.11,2.67-.31,5.33-.58,7.99-.29,2.8-.53,4.57-1.04,7.49-.85,4.89-2.02,9.73-3.52,14.46-.73,2.28-1.53,4.54-2.42,6.76-.18.46-.37.91-.56,1.37.26-.62-.12.27-.14.32-.12.27-.23.54-.35.81-.51,1.15-1.05,2.3-1.61,3.43-2.03,4.09-4.36,8.03-7.01,11.76-.6.84-1.21,1.67-1.84,2.49.42-.55-.15.19-.19.24-.17.22-.35.44-.52.66-.41.51-.83,1.01-1.25,1.51-1.44,1.7-2.95,3.34-4.53,4.92s-3.22,3.08-4.92,4.52c-.43.36-.86.71-1.29,1.07-.22.18-.44.35-.65.52.02-.02-.7.55-.34.27s-.37.28-.34.26c-.22.17-.45.34-.67.5-.53.39-1.06.77-1.59,1.15-3.72,2.61-7.66,4.91-11.76,6.87-1.05.5-2.1.97-3.17,1.44-.88.38.58-.23-.32.13-.18.07-.36.15-.54.22-.63.26-1.27.51-1.91.75-2.23.85-4.49,1.6-6.78,2.27-4.77,1.4-9.66,2.42-14.58,3.09.64-.09-.41.05-.43.05-.32.04-.64.08-.96.12-.65.07-1.29.14-1.94.21-1.31.13-2.62.23-3.94.32-2.69.17-5.39.25-8.09.24-19.93-.05-40.01-4.71-57.14-15.04-2.1-1.27-4.15-2.61-6.14-4.05-.5-.36-.99-.72-1.48-1.09-.2-.15-.41-.31-.61-.46-.46-.35.56.45-.2-.16-1.04-.82-2.06-1.66-3.06-2.52-3.7-3.19-7.13-6.71-10.2-10.52-.19-.24-.38-.48-.57-.72-.63-.79.35.47-.26-.33-.34-.45-.68-.9-1.01-1.36-.76-1.04-1.49-2.1-2.2-3.18-1.37-2.1-2.64-4.26-3.8-6.48-2.43-4.64-4.07-8.79-5.57-13.98-3.2-11.06-3.69-21.99-3.19-33.62.46-10.66,1.64-20.24,4.43-30.61,1.19-4.42,2.64-8.77,4.42-12.99-.26.63.25-.57.33-.76.22-.5.44-.99.67-1.49.49-1.06,1-2.11,1.54-3.14.96-1.87,2-3.71,3.11-5.5s2.23-3.46,3.46-5.11c.14-.19,1.03-1.36.58-.78.26-.33.52-.66.79-.99.68-.85,1.39-1.68,2.11-2.5,2.65-2.99,5.55-5.76,8.67-8.26.19-.16.39-.31.59-.47.66-.53-.53.39.15-.12.37-.28.73-.55,1.1-.82.85-.62,1.7-1.22,2.57-1.8,1.69-1.13,3.43-2.18,5.2-3.16s3.66-1.93,5.54-2.79c.48-.22.96-.43,1.44-.64.1-.04.91-.38.21-.09.24-.1.49-.2.73-.3.99-.4,1.98-.78,2.98-1.15,4.16-1.52,8.44-2.72,12.77-3.67,2.28-.5,4.57-.92,6.88-1.28.59-.09,1.18-.18,1.77-.26.06,0,1.05-.14.35-.05.3-.04.6-.08.9-.11,1.21-.15,2.43-.28,3.65-.4,5.01-.48,10.04-.69,15.06-.69,4.08,0,4.09-6.35,0-6.35h0Z"/>
        </g>
        <g>
          <path class="cls-1" d="M255.26,185.51c-44.05-.03-67.7,23.17-67.7,72.3,0,42.15,35.19,62.44,70.37,62.44,43.98,0,69.39-32.04,65.49-78.3-2.96-34.95-30.78-56.44-68.16-56.44"/>
          <path class="cls-2" d="M255.26,182.34c-13.84,0-28.12,2.2-40.31,9.11-11.14,6.31-19.22,16.31-24.08,28.06-2.7,6.52-4.33,13.43-5.29,20.41-1.14,8.32-1.69,16.94-.81,25.32,1.65,15.7,8.73,30.27,20.89,40.5s26.27,15.19,41.29,17.02c14.9,1.82,30.52.11,44.1-6.5,12.32-5.99,22.25-16.23,28.18-28.55,6.73-14,8.64-29.85,7.42-45.22s-7.13-29.75-18.12-40.52c-11.12-10.9-25.97-16.86-41.25-18.86-3.98-.52-7.99-.77-12.01-.77s-4.09,6.34,0,6.35c7.97.01,15,.84,22.67,3.03,1.76.5,3.51,1.07,5.23,1.71.8.29,1.59.61,2.38.93.94.38-.29-.13.26.11.19.08.39.17.58.25.43.19.86.38,1.29.58,3.17,1.48,6.22,3.2,9.1,5.18.67.46,1.32.93,1.97,1.41.46.35.94.72,1.73,1.37,1.31,1.08,2.57,2.23,3.78,3.42,2.51,2.49,4.46,4.83,6.21,7.37,1.95,2.83,3.64,5.84,5.04,8.98.04.09.51,1.17.29.66.16.38.31.76.46,1.15.34.87.66,1.75.96,2.64.58,1.71,1.08,3.44,1.5,5.19,1.77,7.29,2.16,14.78,1.83,22.62-.08,1.89-.21,3.78-.41,5.66-.04.44-.09.87-.14,1.3-.01.1-.16,1.32-.09.77-.13.96-.28,1.91-.44,2.86-.59,3.47-1.41,6.91-2.47,10.27-.51,1.62-1.08,3.22-1.7,4.8-.15.37-.29.73-.45,1.1.21-.51-.18.42-.26.59-.35.8-.72,1.59-1.11,2.38-1.43,2.91-3.08,5.71-4.95,8.35-1.11,1.58-1.35,1.88-2.59,3.36-1.02,1.21-2.09,2.37-3.21,3.49s-2.28,2.19-3.48,3.21c-1.47,1.25-1.76,1.47-3.34,2.58-2.63,1.85-5.43,3.48-8.33,4.88-1.8.87-2.32,1.08-4.07,1.75-1.58.6-3.19,1.14-4.81,1.61-3.38.99-6.85,1.72-10.34,2.19.51-.07-.03,0-.11.01-.21.02-.43.05-.64.08-.43.05-.86.1-1.29.14-.98.1-1.97.18-2.96.24-1.91.12-3.82.17-5.73.17-13.94-.05-27.94-3.3-39.91-10.49-3.08-1.85-5.61-3.67-8.03-5.74-2.62-2.25-5.05-4.74-7.22-7.42-.11-.14-.76-.96-.45-.56-.25-.33-.49-.65-.74-.99-.55-.75-1.07-1.51-1.58-2.29-.97-1.48-1.87-3.01-2.69-4.58-1.71-3.27-2.81-6.01-3.89-9.75-2.27-7.82-2.6-15.37-2.24-23.64.33-7.56,1.11-13.99,3.07-21.34.84-3.14,1.86-6.23,3.11-9.23-.26.61.16-.36.22-.51.15-.33.3-.66.45-.99.34-.73.69-1.46,1.06-2.18.68-1.33,1.41-2.63,2.2-3.9s1.58-2.45,2.44-3.63c.2-.27.41-.54.61-.81-.43.57.16-.2.29-.35.47-.59.96-1.17,1.46-1.73,1.87-2.12,3.93-4.09,6.14-5.86.16-.12.92-.71.34-.27.27-.2.53-.4.8-.6.61-.45,1.23-.88,1.85-1.3,1.2-.8,2.43-1.54,3.69-2.24s2.59-1.37,3.92-1.97c.32-.14.64-.28.96-.43.12-.05.56-.24-.03.01.16-.07.33-.14.49-.2.74-.3,1.49-.59,2.24-.86,2.95-1.07,5.98-1.93,9.05-2.59,1.61-.35,3.24-.65,4.87-.9.39-.06.79-.12,1.18-.17.11-.02.62-.08.05,0,.2-.03.4-.05.6-.08.91-.11,1.82-.21,2.74-.3,3.52-.33,7.05-.48,10.59-.48,4.08,0,4.09-6.35,0-6.35h0Z"/>
        </g>
        <g>
          <path class="cls-5" d="M255.56,232c-13.65,0-20.99,7.18-20.99,22.41,0,13.05,10.92,19.35,21.82,19.35,13.63,0,21.5-9.92,20.28-24.26-.91-10.83-9.54-17.49-21.11-17.49"/>
          <path class="cls-2" d="M255.56,228.83c-4.74.02-9.63.81-13.78,3.23-3.89,2.27-6.63,5.8-8.3,9.93-1.86,4.58-2.48,10.09-1.93,14.99.61,5.39,3.01,10.47,7.25,13.96,7.82,6.43,19.74,7.9,28.88,3.51s13.03-15.17,12.17-24.96c-.51-5.79-2.92-11.32-7.49-15.05s-10.72-5.58-16.8-5.61c-4.08-.02-4.09,6.32,0,6.35,2.57.02,4.14.19,6.59.91.46.14.92.29,1.37.45.25.09.5.18.74.28-.45-.19.04.02.11.05,1.02.49,2,1.02,2.93,1.66.17.11.33.23.49.35.78.56-.41-.39.3.24.37.33.75.65,1.1,1,.32.31.62.64.91.98.16.19.32.38.47.57-.36-.47.14.22.21.32.57.83,1.05,1.71,1.48,2.62s-.11-.31.1.23c.09.24.18.48.27.73.2.6.38,1.21.52,1.83.11.48.2.96.28,1.44.09.61-.05-.75.03.31.02.23.04.46.06.7.1,1.28.12,2.56.07,3.84-.02.55-.06,1.11-.12,1.66-.02.22-.04.43-.07.65.08-.63-.07.4-.08.43-.18,1.02-.42,2.03-.72,3.01-.15.48-.32.94-.49,1.41-.32.88.15-.32-.08.19-.1.22-.2.44-.31.66-.44.9-.97,1.74-1.52,2.58-.08.13-.46.63-.09.15-.14.18-.29.36-.44.54-.27.32-.55.63-.84.92-.32.33-.66.65-1.01.95-.21.18-.42.36-.64.53.44-.34-.11.07-.26.17-.78.54-1.6,1.01-2.45,1.42-.17.08-.35.16-.52.24.54-.24-.05.02-.19.07-.51.19-1.03.37-1.55.52-2.31.67-3.54.8-5.97.78-1.01,0-2.01-.08-3.01-.18s.6.12-.41-.06c-.21-.04-.41-.07-.62-.11-.62-.11-1.23-.25-1.84-.41-2.22-.58-3.3-1-5.23-2.14-3.27-1.94-5.7-4.86-6.75-8.53-.64-2.23-.7-4.05-.6-6.57s.23-3.69.86-6.07c.14-.52.29-1.03.46-1.54.08-.22.15-.45.24-.67.05-.13.45-1.04.15-.39.41-.88.85-1.74,1.39-2.55.14-.21.29-.42.44-.63.37-.55-.35.38.12-.16.33-.38.66-.76,1.01-1.11.29-.29.61-.57.92-.84.1-.09.77-.57.14-.12.2-.15.41-.29.61-.43.78-.52,1.61-.96,2.46-1.36.78-.37-.61.2.22-.09.25-.09.5-.19.76-.27.52-.18,1.05-.33,1.59-.47s1.02-.24,1.54-.34c.24-.04.48-.08.72-.12.95-.17-.63.05.35-.05,1.27-.12,2.54-.2,3.81-.2,4.08-.01,4.09-6.36,0-6.35h0Z"/>
        </g>
      </g>
      <g>
        <path class="cls-3" d="M244.05,44.18c-13.16.32-26.3,1.54-39.28,3.77-12.02,2.06-23.89,5.03-35.42,9s-21.78,8.47-32.02,14.08-19.32,11.75-28.12,18.84-16.32,14.41-23.43,22.65-13.73,17.4-19.37,26.93c-5.79,9.76-10.66,20.05-14.71,30.65s-7.29,21.9-9.61,33.2c-2.48,12.09-4,24.39-4.65,36.71s-.39,25.71.72,38.51c.28,3.27.62,6.54,1.01,9.8.2,1.7,1.31,3.17,3.17,3.17,1.56,0,3.38-1.46,3.17-3.17-1.53-12.85-2.27-25.79-2.06-38.73.1-6.18.41-12.35.95-18.5.27-3.04.59-6.07.97-9.1.04-.32.08-.63.12-.95.03-.21.05-.42.08-.63,0,.07-.06.43,0,.06.11-.79.22-1.57.33-2.36.21-1.46.44-2.91.68-4.36,1.88-11.41,4.62-22.68,8.27-33.66.9-2.69,1.85-5.37,2.86-8.02.49-1.29,1-2.58,1.51-3.87.26-.64.52-1.28.78-1.92.05-.13.33-.8.24-.57-.14.34.1-.23.13-.3.08-.18.15-.36.23-.54,2.17-5.06,4.56-10.03,7.15-14.89s5.33-9.49,8.3-14.05c1.49-2.28,3.03-4.54,4.62-6.75.78-1.09,1.57-2.16,2.37-3.23.4-.53.81-1.06,1.21-1.59.36-.47-.16.2.2-.26.24-.3.47-.6.71-.9,6.67-8.46,14.09-16.31,22.15-23.45,2.04-1.81,4.13-3.57,6.25-5.28.52-.42,1.05-.84,1.58-1.26.23-.18.45-.36.68-.53.15-.12.3-.24.46-.35.39-.31-.35.27.04-.03,1.11-.85,2.22-1.69,3.35-2.52,4.39-3.21,8.92-6.23,13.57-9.05s9.76-5.62,14.8-8.1c2.52-1.24,5.06-2.42,7.63-3.55.65-.28,1.29-.57,1.94-.84.14-.06.82-.35.36-.15.37-.16.75-.31,1.12-.47,1.36-.56,2.73-1.11,4.11-1.65,11.06-4.3,22.48-7.64,34.08-10.1,2.99-.63,5.99-1.21,9-1.73,1.58-.27,3.16-.53,4.74-.77.71-.11,1.43-.21,2.14-.32.39-.06.77-.11,1.16-.16.17-.02.33-.05.5-.07.23-.03.22-.03-.01,0l.33-.04c6.39-.84,12.8-1.44,19.23-1.82,3.22-.19,6.44-.32,9.66-.39,4.08-.1,4.09-6.45,0-6.35h0Z"/>
        <path class="cls-3" d="M457.19,199.26c1.47,5.31,2.69,10.68,3.66,16.11.5,2.76.93,5.53,1.31,8.3-.1-.73.03.2.05.43.04.3.08.59.11.89.09.72.18,1.45.26,2.17.16,1.41.3,2.82.43,4.24,1.06,11.51,1.14,23.1.36,34.63-.2,2.95-.46,5.9-.77,8.84-.16,1.48-.33,2.96-.51,4.43-.04.36-.09.72-.14,1.07-.03.23-.13,1-.05.37-.11.81-.22,1.61-.34,2.42-.86,5.9-1.94,11.76-3.23,17.58-2.63,11.81-6.14,23.42-10.51,34.69-.55,1.42-1.12,2.84-1.7,4.25-.14.34-.28.68-.42,1.03-.07.17-.14.34-.21.51-.03.08-.26.62-.11.26s-.08.18-.11.26c-.07.17-.15.34-.22.51-.16.38-.33.76-.5,1.15-1.22,2.8-2.49,5.58-3.82,8.33-2.64,5.46-5.49,10.82-8.57,16.04s-6.36,10.33-9.87,15.28c-.91,1.28-1.83,2.56-2.77,3.82-.41.56-.83,1.11-1.25,1.67-.22.29-.45.59-.67.88-.3.39.29-.37-.01.02-.14.18-.28.37-.43.55-1.88,2.41-3.81,4.78-5.8,7.1-7.95,9.27-16.76,17.81-26.36,25.36-.29.23-.59.46-.88.69-.39.3.37-.28-.02.02-.15.11-.3.23-.44.34-.63.48-1.27.96-1.9,1.44-1.24.92-2.49,1.83-3.76,2.72-2.5,1.76-5.05,3.45-7.63,5.08-5.32,3.34-10.81,6.39-16.46,9.12-1.43.69-2.87,1.37-4.31,2.02-.66.3-1.32.59-1.99.88-.36.15-.71.31-1.07.46-.18.08-.36.15-.54.23.6-.26-.27.11-.32.13-2.98,1.24-5.99,2.39-9.04,3.46-6.18,2.17-12.49,3.99-18.87,5.45-3.31.76-6.63,1.42-9.98,2-1.7.29-3.4.56-5.11.8-.42.06-.83.12-1.25.17.56-.08-.42.05-.57.07-.89.11-1.79.22-2.68.32-7.15.81-14.34,1.22-21.53,1.25-3.63.02-7.26-.06-10.89-.23-1.71-.08-3.17,1.51-3.17,3.17,0,1.78,1.45,3.09,3.17,3.17,14.67.67,29.39-.15,43.87-2.65,13.12-2.26,25.99-5.96,38.27-11.11s23.14-11.15,33.64-18.58c10.22-7.23,19.7-15.48,28.28-24.59s16.25-19.02,23.03-29.51,12.43-21.17,17.31-32.43,9.06-23.19,12.21-35.24,5.3-24.01,6.59-36.23,1.6-23.54.99-35.31-2.11-22.94-4.66-34.15c-.6-2.63-1.26-5.24-1.98-7.84-1.09-3.93-7.21-2.26-6.12,1.69h0Z"/>
        <path class="cls-3" d="M419.48,225.53c2.21,9.04,3.38,17.39,3.74,26.65.18,4.51.13,9.02-.12,13.53-.12,2.19-.29,4.37-.52,6.55-.1,1.03-.22,2.06-.35,3.09-.16,1.32-.21,1.67-.42,3.09-2.65,17.67-8.37,34.6-16.5,50.16-8.35,15.97-18.77,30.1-31.47,42.76s-26.38,22.66-42.25,30.59c-3.9,1.95-7.63,3.62-11.37,5.09-4,1.57-8.07,2.97-12.19,4.17s-8.39,2.24-12.66,3.05c-2.13.41-4.28.76-6.43,1.06-.12.02-.82.11-.32.04-.22.03-.44.06-.66.08-.55.07-1.11.14-1.66.2-1.11.12-2.22.23-3.33.33-2.12.18-4.24.31-6.36.39-1.71.06-3.17,1.41-3.17,3.17s1.45,3.24,3.17,3.17c18.02-.66,35.65-5.08,52.1-12.41,16.51-7.35,31.66-17.68,44.91-29.93s25.03-27.03,34.11-42.95,15.76-33.33,19.2-51.35c3.49-18.31,3.68-37.13.15-55.46-.44-2.27-.93-4.53-1.48-6.78-.97-3.97-7.09-2.29-6.12,1.69h0Z"/>
        <path class="cls-3" d="M226.32,86.45c-19.1,2.01-37.77,6.82-55.21,14.91-15.76,7.32-30.28,17.35-42.65,29.57s-21.88,25.63-29.29,40.67-12.52,31.6-14.88,48.4c-2.48,17.68-2.17,35.57.77,53.18.37,2.22.79,4.44,1.24,6.64.34,1.68,2.33,2.65,3.9,2.22,1.75-.48,2.56-2.22,2.22-3.9-1.8-8.77-2.83-16.62-3.28-25.63-.43-8.54-.22-17.12.65-25.63.1-.96.2-1.91.32-2.87.06-.53.13-1.06.2-1.59.08-.65.03-.25.01-.11.05-.37.1-.74.15-1.11.29-2.05.63-4.09,1-6.13.75-4.1,1.66-8.17,2.72-12.2s2.27-7.96,3.65-11.86c.67-1.92,1.39-3.82,2.13-5.71.36-.92.74-1.84,1.12-2.75-.19.45.01-.03.04-.1.12-.29.25-.57.37-.86.21-.48.42-.95.63-1.43,3.33-7.48,7.27-14.7,11.77-21.54s9.12-12.76,14.89-18.93c11.51-12.34,24.4-22.05,39.42-29.85,7.97-4.14,15.52-7.24,24.14-9.98s18.02-4.88,27.25-6.23c2.14-.31,4.32-.58,6.72-.83,1.7-.18,3.17-1.33,3.17-3.17,0-1.58-1.46-3.35-3.17-3.17h0Z"/>
        <path class="cls-3" d="M193.81,135.23c-14.87,5.68-28.14,14.96-39.03,26.53-11.78,12.51-20.75,27.48-26.66,43.6-3.57,9.74-5.89,19.85-7.16,30.14-.21,1.7,1.61,3.17,3.17,3.17,1.89,0,2.96-1.46,3.17-3.17,2.08-16.75,7.58-33.26,16.09-47.89,7.79-13.38,18.39-25.6,30.73-34.53,3.36-2.43,6.87-4.67,10.5-6.66,1.81-1,3.66-1.93,5.53-2.81,2.08-.97,3.21-1.45,5.34-2.26,1.6-.61,2.7-2.14,2.22-3.9-.42-1.53-2.29-2.83-3.9-2.22h0Z"/>
        <path class="cls-3" d="M382.1,265.04c.15,4.55-.02,9.11-.48,13.64-.43,4.19-1.18,8.65-2.25,13.23-2.19,9.35-5.34,17.91-9.59,26.2-2.18,4.24-4.61,8.35-7.3,12.28-.69,1-1.39,2-2.11,2.98-.77,1.05-1.29,1.74-1.91,2.52-1.43,1.81-2.93,3.58-4.48,5.3-6.41,7.09-13.18,12.76-21.31,17.5-2.26,1.32-4.58,2.53-6.96,3.63-.6.27-1.2.54-1.8.8-.99.43.54-.22-.45.19-.3.13-.61.25-.91.37-1.23.49-2.46.95-3.71,1.37-2.58.88-5.2,1.62-7.85,2.22-1.32.3-2.64.56-3.97.79-1.58.27-2.39.38-3.72.54-1.7.2-3.17,1.32-3.17,3.17,0,1.56,1.46,3.37,3.17,3.17,20.12-2.31,38.37-11.98,52.47-26.4,13.88-14.19,23.73-32.33,28.84-51.46,2.78-10.41,4.18-21.28,3.83-32.06-.06-1.71-1.42-3.17-3.17-3.17s-3.23,1.45-3.17,3.17h0Z"/>
      </g>
    </g>
  </g>
</svg>