<?xml version="1.0" encoding="UTF-8"?>
<svg id="disc" xmlns="http://www.w3.org/2000/svg" version="1.1" viewBox="0 0 511.4 505.8">
  <!-- Generator: Adobe Illustrator 29.2.1, SVG Export Plug-In . SVG Version: 2.1.0 Build 116)  -->
  <defs>
    <style>
      .st0 {
        fill: #3e2c7a;
      }

      .st1 {
        fill: #523ba2;
      }

      .st2 {
        fill: #6db1c9;
      }

      .st3 {
        fill: #6c58b0;
      }

      .st4 {
        fill: #2f215c;
      }
    </style>
  </defs>
  <g id="discbg">
    <path id="discbgfill" class="st0" d="M254.1,3.2C90.8,3.1,3.2,89.1,3.2,271.1s130.4,231.5,260.8,231.5,257.2-118.7,242.7-290.2C495.8,82.8,392.6,3.2,254.1,3.2"/>
    <path id="discbgoutline" class="st4" d="M254.1,0c-13.8,0-27.6.6-41.3,2-12.8,1.3-25.6,3.2-38.2,6-11.6,2.6-22.9,5.9-34,10s-21.1,8.7-31.1,14.3-18.7,11.6-27.2,18.5c-8.3,6.7-16.1,14.2-23.1,22.3s-13.9,17.5-19.7,27c-6.1,10-11.3,20.5-15.8,31.3-4.7,11.4-8.6,23.1-11.7,35-3.4,12.9-5.9,26.1-7.8,39.3-2,14.7-3.3,29.5-3.9,44.3-.6,15.8-.7,31.6.9,47.4,1.6,15.7,4.2,29.8,8.6,44.2,4,13.5,9.4,26.6,16,39,6.3,11.9,13.8,23.1,22.3,33.5,8.2,10.1,17.5,19.5,27.4,28,10.2,8.6,21,16.4,32.5,23.2,11.5,6.9,23.6,12.8,36.1,17.8s25.4,9.3,38.4,12.6,26.9,5.9,40.6,7.5c13.7,1.7,27.4,2.5,41.2,2.5s28.8-1,43-3c13.2-1.8,26.2-4.6,39-8.4s24.3-8.3,35.9-13.9c10.9-5.3,21.5-11.5,31.3-18.6s19.2-14.9,27.7-23.5,16.4-18.1,23.4-28.1,13.2-20.6,18.6-31.6c5.6-11.6,10.4-23.6,14.2-35.9s7-25.9,9.2-39.1c2.4-14.1,3.8-28.5,4.3-42.8s.2-30-.9-45-3.2-28.8-6.7-42.9c-3.3-13.3-7.8-26.3-13.5-38.8s-11.8-23.2-19.3-33.9-15.9-20.7-25.2-29.8-19.6-17.6-30.5-25-22.6-14-34.6-19.5c-12.7-5.8-25.8-10.6-39.2-14.4-14.1-4-28.5-6.8-43.1-8.7S268.7,0,254,0s-4.1,6.3,0,6.3c7.7,0,15.4.2,23,.8,3.8.2,7.5.6,11.2.9,1.9.2,3.7.4,5.5.6s1.7.2,2.6.3c.4,0,.8.1,1.2.1h.7c1.1.1-.3,0,.4,0,14.2,1.9,28.2,4.8,42,8.7,6.7,1.9,13.2,4.1,19.7,6.5s12,4.7,18.3,7.6c11.9,5.5,23.3,12,34.1,19.5,2.7,1.8,5.3,3.7,7.9,5.7.3.2.6.5,1,.7.2,0,.9.7.6.4.6.5,1.3,1,1.9,1.5,1.3,1,2.5,2,3.8,3,4.9,4.1,9.7,8.4,14.2,12.9s8.8,9.2,12.9,14c1,1.2,2,2.5,3,3.7s.9,1.2,1.4,1.8c.1.2.2.3.4.5,0,0-.3-.4,0,0s.5.7.8,1.1c1.9,2.5,3.8,5.1,5.5,7.7,7.4,10.7,13.7,22.1,19,34,.7,1.6,1.2,2.8,1.8,4.1.6,1.5,1.2,3.1,1.9,4.6,1.2,3.1,2.3,6.2,3.4,9.3,2.2,6.5,4,13,5.6,19.6s2.9,13.6,4,20.5c.3,1.9.5,3.3.7,4.8.2,1.8.4,3.6.6,5.4.4,3.7.7,7.5,1,11.2,1,14.8,1.3,29.7.7,44.5-.6,14.8-2,27.6-4.4,41.1s-5.3,25.9-9.3,38.5c-1.9,6-4.1,12-6.4,17.9-.3.7-.6,1.5-.9,2.2-.1.3-.3.6-.4,1,0,.2-.1.4-.2.5-.1.3.1-.3,0,.2-.6,1.4-1.2,2.9-1.9,4.3-1.3,2.8-2.6,5.6-4,8.4-5.4,10.9-11.6,21.4-18.6,31.2-.9,1.2-1.8,2.4-2.6,3.6-.4.6-.8,1.1-1.3,1.7-.2.3-.5.6-.7.9-.1.1-.2.3-.3.5.3-.4,0,0-.1.1-1.8,2.3-3.7,4.6-5.6,6.9-3.8,4.5-7.9,8.9-12.1,13.1s-8.6,8.2-13.1,12c-1.1,1-2.3,1.9-3.5,2.8-.5.4-1.1.9-1.6,1.3-.3.2-.5.4-.8.6-.1.1-.3.2-.4.3-.7.5.3-.2-.1.1-2.4,1.8-4.8,3.6-7.2,5.3-9.9,7-20.4,13-31.3,18.2-2.8,1.3-5.6,2.6-8.5,3.8-.2,0-1.1.5-.6.2-.3.1-.6.3-.9.4-.8.3-1.5.6-2.3.9-1.5.6-2.9,1.2-4.4,1.7-5.9,2.2-11.9,4.2-18,6s-12.6,3.4-19,4.8c-3.2.7-6.5,1.3-9.7,1.9-1.7.3-3.3.6-5,.8-.8.1-1.7.2-2.5.4-.4,0-.7.1-1.1.2h-.6c-.2,0-.7.1-.3,0-14,1.9-28.1,2.7-42.2,2.6-13.6,0-27.2-.9-40.6-2.6-.4,0-.8-.1-1.3-.2-.2,0-1.2-.2-.7-.1-.8-.1-1.7-.2-2.5-.4-1.7-.2-3.4-.5-5-.8-3.4-.5-6.7-1.1-10-1.8-6.6-1.3-13.1-2.7-19.6-4.4-12.9-3.4-25.6-7.5-37.9-12.6-1.6-.7-2.3-1-4.1-1.7-1.5-.7-3-1.3-4.5-2-3-1.4-6-2.8-8.9-4.3-5.9-3-11.6-6.1-17.3-9.5s-11-6.9-16.2-10.7c-1.3-1-2.6-1.9-3.9-2.9-.6-.5-1.2-.9-1.8-1.4-.5-.4-.2-.1,0,0-.2-.1-.3-.2-.5-.4-.4-.3-.7-.6-1.1-.9-2.5-2-5-4-7.4-6.1-9.9-8.5-19-17.9-27.2-28-1.1-1.4-1.9-2.4-2.7-3.5-1-1.3-1.9-2.5-2.8-3.8-1.9-2.7-3.8-5.4-5.6-8.1-3.6-5.5-7-11.3-10-17.1-1.6-3-3.1-6-4.5-9.1-.7-1.5-1.4-3.1-2.1-4.7,0-.1-.5-1.1-.3-.7-.2-.4-.3-.8-.5-1.2-.3-.8-.6-1.6-1-2.4-2.6-6.5-4.9-13.2-6.8-19.9s-3.6-14-5-21.1c-1.4-7.6-2.3-14.4-3-22.1-1.4-15.6-1.2-31.3-.5-47,.3-7.4.8-14.7,1.5-22,.3-3.6.7-7.1,1.1-10.7.2-1.8.4-3.5.6-5.2,0-.4.1-.8.1-1.1,0,.4,0-.6.1-.8.1-.9.2-1.8.4-2.7,1.9-13.1,4.5-26,7.9-38.8,3.1-11.8,7-23.3,11.7-34.5.2-.4-.2.4,0,0,0-.1.1-.2.2-.4.1-.3.3-.7.4-1,.3-.7.6-1.4.9-2.1.6-1.3,1.2-2.6,1.8-3.8,1.2-2.6,2.5-5.2,3.8-7.7,2.6-5,5.3-9.9,8.3-14.7s6-9.2,9.2-13.6c.4-.5.8-1,1.1-1.5.2-.2.4-.5.5-.7,0,0,.2-.3.3-.4,0,0,.5-.6.2-.3-.2.3.4-.5.5-.6.2-.2.4-.5.5-.7.4-.6.9-1.1,1.3-1.7,1.7-2.1,3.4-4.1,5.2-6.2,7-8,14.7-15.3,23-22,.5-.4,1-.8,1.5-1.2.3-.2.5-.4.8-.6.4-.3-.4.3,0,0,.2,0,.3-.2.5-.4,1.1-.8,2.1-1.6,3.2-2.4,2.2-1.6,4.4-3.1,6.6-4.6,4.5-3,9.1-5.8,13.8-8.4s9.7-5.1,14.7-7.4c1.3-.6,2.6-1.1,3.8-1.7.3-.1.6-.3,1-.4.2,0,.3-.1.5-.2-.1,0-.6.2,0,0,.6-.3,1.3-.5,1.9-.8,2.6-1.1,5.3-2.1,8-3.1,11.1-4,22.4-7.2,33.9-9.7,6-1.3,12.1-2.4,18.2-3.4,1.6-.2,3.1-.5,4.7-.7.4,0,.8-.1,1.2-.2-.6,0,.5,0,.6,0,.8-.1,1.6-.2,2.4-.3,3.2-.4,6.5-.8,9.7-1.1,13.1-1.2,26.3-1.8,39.4-1.8s4.1-6.3,0-6.3h0l-.5.7Z"/>
  </g>
  <g id="disccenter">
    <g id="disccenterlarge">
      <path id="disccenterlargefill" class="st2" d="M255.1,158c-62.1,0-95.3,32.6-95.3,101.8s49.6,88,99.1,88,97.7-45.1,92.2-110.3c-4.2-49.2-43.4-79.5-96-79.5"/>
      <path id="disccenterlargeline" class="st4" d="M255.1,154.8c-19.3,0-39.2,3-56.2,12.7-15.4,8.7-26.6,22.6-33.3,38.8-3.7,9.1-6,18.7-7.4,28.3-1.6,11.7-2.4,23.8-1.1,35.6s4.2,22.2,9.6,32.2c4.9,9.1,11.5,17.3,19.4,23.9,16.2,13.6,36.6,21.1,57.4,23.6,20.7,2.5,42.5.2,61.4-9,17.1-8.3,30.8-22.5,39-39.5,9.4-19.5,12-41.5,10.4-62.9-.9-11.1-3.4-21.8-8-31.9-4.1-9.1-10-17.5-17.2-24.5-15.4-15.1-36-23.4-57.2-26.2-5.6-.7-11.3-1.1-17-1.1s-4.1,6.3,0,6.4c11.3,0,21.7,1.3,32.6,4.4,2.5.7,5,1.5,7.4,2.4,2.6,1,4.1,1.6,6.5,2.8,4.5,2.1,8.8,4.6,12.9,7.4.9.6,1.8,1.3,2.7,1.9.2.2.5.4.7.6-.5-.4.3.2.3.2.5.4,1.1.9,1.6,1.3,1.9,1.5,3.6,3.2,5.3,4.9s3.3,3.5,4.9,5.3c.4.5.8.9,1.1,1.4.2.2.4.5.6.7-.4-.5.2.3.2.3.7,1,1.4,1.9,2.1,2.9,5.8,8.4,9.4,16.8,11.7,26.6,1.3,5.4,1.9,10,2.3,15.4s.5,11.2.3,16.8c-.1,2.7-.3,5.3-.6,8-.3,2.8-.5,4.6-1,7.5-.9,4.9-2,9.7-3.5,14.5-.7,2.3-1.5,4.5-2.4,6.8-.2.5-.4.9-.6,1.4.3-.6-.1.3-.1.3-.1.3-.2.5-.4.8-.5,1.1-1,2.3-1.6,3.4-2,4.1-4.4,8-7,11.8-.6.8-1.2,1.7-1.8,2.5.4-.5-.1.2-.2.2-.2.2-.4.4-.5.7-.4.5-.8,1-1.2,1.5-1.4,1.7-3,3.3-4.5,4.9s-3.2,3.1-4.9,4.5c-.4.4-.9.7-1.3,1.1s-.4.4-.6.5c0,0-.7.5-.3.3s-.4.3-.3.3c-.2.2-.5.3-.7.5-.5.4-1.1.8-1.6,1.1-3.7,2.6-7.7,4.9-11.8,6.9-1,.5-2.1,1-3.2,1.4-.9.4.6-.2-.3.1-.2,0-.4.1-.5.2-.6.3-1.3.5-1.9.8-2.2.9-4.5,1.6-6.8,2.3-4.8,1.4-9.7,2.4-14.6,3.1.6,0-.4,0-.4,0-.3,0-.6,0-1,.1-.6,0-1.3.1-1.9.2-1.3.1-2.6.2-3.9.3-2.7.2-5.4.2-8.1.2-19.9,0-40-4.7-57.1-15-2.1-1.3-4.1-2.6-6.1-4-.5-.4-1-.7-1.5-1.1-.2-.1-.4-.3-.6-.5-.5-.4.6.5-.2-.2-1-.8-2.1-1.7-3.1-2.5-3.7-3.2-7.1-6.7-10.2-10.5-.2-.2-.4-.5-.6-.7-.6-.8.4.5-.3-.3-.3-.5-.7-.9-1-1.4-.8-1-1.5-2.1-2.2-3.2-1.4-2.1-2.6-4.3-3.8-6.5-2.4-4.6-4.1-8.8-5.6-14-3.2-11.1-3.7-22-3.2-33.6.5-10.7,1.6-20.2,4.4-30.6,1.2-4.4,2.6-8.8,4.4-13-.3.6.2-.6.3-.8.2-.5.4-1,.7-1.5.5-1.1,1-2.1,1.5-3.1,1-1.9,2-3.7,3.1-5.5s2.2-3.5,3.5-5.1c.1-.2,1-1.4.6-.8.3-.3.5-.7.8-1,.7-.9,1.4-1.7,2.1-2.5,2.6-3,5.6-5.8,8.7-8.3.2-.2.4-.3.6-.5.7-.5-.5.4.1-.1.4-.3.7-.6,1.1-.8.9-.6,1.7-1.2,2.6-1.8,1.7-1.1,3.4-2.2,5.2-3.2s3.7-1.9,5.5-2.8c.5-.2,1-.4,1.4-.6.1,0,.9-.4.2,0,.2-.1.5-.2.7-.3,1-.4,2-.8,3-1.1,4.2-1.5,8.4-2.7,12.8-3.7,2.3-.5,4.6-.9,6.9-1.3.6,0,1.2-.2,1.8-.3,0,0,1.1-.1.4,0,.3,0,.6,0,.9-.1,1.2-.1,2.4-.3,3.6-.4,5-.5,10-.7,15.1-.7s4.1-6.4,0-6.4h0Z"/>
    </g>
    <g id="disccentermedium">
      <path id="disccentermediumfill" class="st2" d="M255.3,185.5c-44.1,0-67.7,23.2-67.7,72.3s35.2,62.4,70.4,62.4,69.4-32,65.5-78.3c-3-34.9-30.8-56.4-68.2-56.4"/>
      <path id="disccentermediumline" class="st4" d="M255.3,182.3c-13.8,0-28.1,2.2-40.3,9.1-11.1,6.3-19.2,16.3-24.1,28.1-2.7,6.5-4.3,13.4-5.3,20.4-1.1,8.3-1.7,16.9-.8,25.3,1.6,15.7,8.7,30.3,20.9,40.5s26.3,15.2,41.3,17c14.9,1.8,30.5.1,44.1-6.5,12.3-6,22.2-16.2,28.2-28.5,6.7-14,8.6-29.9,7.4-45.2s-7.1-29.8-18.1-40.5c-11.1-10.9-26-16.9-41.2-18.9-4-.5-8-.8-12-.8s-4.1,6.3,0,6.4c8,0,15,.8,22.7,3,1.8.5,3.5,1.1,5.2,1.7.8.3,1.6.6,2.4.9.9.4-.3-.1.3.1.2,0,.4.2.6.2.4.2.9.4,1.3.6,3.2,1.5,6.2,3.2,9.1,5.2.7.5,1.3.9,2,1.4.5.4.9.7,1.7,1.4,1.3,1.1,2.6,2.2,3.8,3.4,2.5,2.5,4.5,4.8,6.2,7.4,2,2.8,3.6,5.8,5,9,0,0,.5,1.2.3.7.2.4.3.8.5,1.1.3.9.7,1.8,1,2.6.6,1.7,1.1,3.4,1.5,5.2,1.8,7.3,2.2,14.8,1.8,22.6,0,1.9-.2,3.8-.4,5.7,0,.4,0,.9-.1,1.3,0,.1-.2,1.3,0,.8-.1,1-.3,1.9-.4,2.9-.6,3.5-1.4,6.9-2.5,10.3-.5,1.6-1.1,3.2-1.7,4.8-.1.4-.3.7-.5,1.1.2-.5-.2.4-.3.6-.4.8-.7,1.6-1.1,2.4-1.4,2.9-3.1,5.7-5,8.4-1.1,1.6-1.4,1.9-2.6,3.4-1,1.2-2.1,2.4-3.2,3.5s-2.3,2.2-3.5,3.2c-1.5,1.2-1.8,1.5-3.3,2.6-2.6,1.9-5.4,3.5-8.3,4.9-1.8.9-2.3,1.1-4.1,1.8-1.6.6-3.2,1.1-4.8,1.6-3.4,1-6.9,1.7-10.3,2.2.5,0,0,0-.1,0h-.6c-.4,0-.9.1-1.3.1-1,.1-2,.2-3,.2-1.9.1-3.8.2-5.7.2-13.9,0-27.9-3.3-39.9-10.5-3.1-1.9-5.6-3.7-8-5.7-2.6-2.2-5.1-4.7-7.2-7.4-.1-.1-.8-1-.4-.6-.2-.3-.5-.6-.7-1-.6-.8-1.1-1.5-1.6-2.3-1-1.5-1.9-3-2.7-4.6-1.7-3.3-2.8-6-3.9-9.8-2.3-7.8-2.6-15.4-2.2-23.6.3-7.6,1.1-14,3.1-21.3.8-3.1,1.9-6.2,3.1-9.2-.3.6.2-.4.2-.5.1-.3.3-.7.4-1,.3-.7.7-1.5,1.1-2.2.7-1.3,1.4-2.6,2.2-3.9s1.6-2.4,2.4-3.6.4-.5.6-.8c-.4.6.2-.2.3-.4.5-.6,1-1.2,1.5-1.7,1.9-2.1,3.9-4.1,6.1-5.9.2-.1.9-.7.3-.3.3-.2.5-.4.8-.6.6-.4,1.2-.9,1.9-1.3,1.2-.8,2.4-1.5,3.7-2.2s2.6-1.4,3.9-2c.3-.1.6-.3,1-.4.1,0,.6-.2,0,0,.2,0,.3-.1.5-.2.7-.3,1.5-.6,2.2-.9,2.9-1.1,6-1.9,9.1-2.6,1.6-.4,3.2-.6,4.9-.9.4,0,.8-.1,1.2-.2.1,0,.6,0,0,0h.6c.9-.1,1.8-.2,2.7-.3,3.5-.3,7.1-.5,10.6-.5s4.1-6.4,0-6.4h-.5Z"/>
    </g>
    <g id="disccentersmall">
      <path id="disccentersmallfill" class="st1" d="M255.6,232c-13.6,0-21,7.2-21,22.4s10.9,19.4,21.8,19.4,21.5-9.9,20.3-24.3c-.9-10.8-9.5-17.5-21.1-17.5"/>
      <path id="disccentersmallline" class="st4" d="M255.6,228.8c-4.7,0-9.6.8-13.8,3.2-3.9,2.3-6.6,5.8-8.3,9.9-1.9,4.6-2.5,10.1-1.9,15,.6,5.4,3,10.5,7.2,14,7.8,6.4,19.7,7.9,28.9,3.5s13-15.2,12.2-25c-.5-5.8-2.9-11.3-7.5-15.1s-10.7-5.6-16.8-5.6-4.1,6.3,0,6.4c2.6,0,4.1.2,6.6.9.5.1.9.3,1.4.4.2,0,.5.2.7.3-.5-.2,0,0,.1,0,1,.5,2,1,2.9,1.7.2.1.3.2.5.4.8.6-.4-.4.3.2.4.3.8.6,1.1,1,.3.3.6.6.9,1,.2.2.3.4.5.6-.4-.5.1.2.2.3.6.8,1,1.7,1.5,2.6s-.1-.3.1.2c0,.2.2.5.3.7.2.6.4,1.2.5,1.8.1.5.2,1,.3,1.4,0,.6,0-.8,0,.3v.7c.1,1.3.1,2.6,0,3.8,0,.6,0,1.1-.1,1.7v.6c0-.6,0,.4,0,.4-.2,1-.4,2-.7,3-.1.5-.3.9-.5,1.4-.3.9.1-.3,0,.2-.1.2-.2.4-.3.7-.4.9-1,1.7-1.5,2.6,0,.1-.5.6,0,.1-.1.2-.3.4-.4.5-.3.3-.5.6-.8.9s-.7.6-1,1c-.2.2-.4.4-.6.5.4-.3-.1,0-.3.2-.8.5-1.6,1-2.5,1.4-.2,0-.4.2-.5.2.5-.2,0,0-.2,0-.5.2-1,.4-1.5.5-2.3.7-3.5.8-6,.8s-2,0-3-.2.6.1-.4,0c-.2,0-.4,0-.6-.1-.6-.1-1.2-.2-1.8-.4-2.2-.6-3.3-1-5.2-2.1-3.3-1.9-5.7-4.9-6.8-8.5-.6-2.2-.7-4.1-.6-6.6s.2-3.7.9-6.1c.1-.5.3-1,.5-1.5,0-.2.1-.4.2-.7,0-.1.4-1,.1-.4.4-.9.9-1.7,1.4-2.6.1-.2.3-.4.4-.6.4-.6-.4.4.1-.2.3-.4.7-.8,1-1.1s.6-.6.9-.8c.1,0,.8-.6.1-.1.2-.1.4-.3.6-.4.8-.5,1.6-1,2.5-1.4.8-.4-.6.2.2,0,.2,0,.5-.2.8-.3.5-.2,1.1-.3,1.6-.5s1-.2,1.5-.3c.2,0,.5,0,.7-.1.9-.2-.6,0,.4,0,1.3-.1,2.5-.2,3.8-.2,4.1,0,4.1-6.4,0-6.4h0l-.3.3Z"/>
    </g>
  </g>
  <g id="disclines">
    <path class="st3" d="M244.1,44.2c-13.2.3-26.3,1.5-39.3,3.8-12,2.1-23.9,5-35.4,9s-21.8,8.5-32,14.1-19.3,11.8-28.1,18.8-16.3,14.4-23.4,22.7-13.7,17.4-19.4,26.9c-5.8,9.8-10.7,20.1-14.7,30.6s-7.3,21.9-9.6,33.2c-2.5,12.1-4,24.4-4.7,36.7s-.4,25.7.7,38.5c.3,3.3.6,6.5,1,9.8.2,1.7,1.3,3.2,3.2,3.2s3.4-1.5,3.2-3.2c-1.5-12.9-2.3-25.8-2.1-38.7,0-6.2.4-12.4,1-18.5.3-3,.6-6.1,1-9.1,0-.3,0-.6,0-.9v-.6s0,.4,0,0c0-.8.2-1.6.3-2.4.2-1.5.4-2.9.7-4.4,1.9-11.4,4.6-22.7,8.3-33.7.9-2.7,1.8-5.4,2.9-8,.5-1.3,1-2.6,1.5-3.9.3-.6.5-1.3.8-1.9,0-.1.3-.8.2-.6,0,.3,0-.2,0-.3,0-.2.2-.4.2-.5,2.2-5.1,4.6-10,7.2-14.9s5.3-9.5,8.3-14.1,3-4.5,4.6-6.8c.8-1.1,1.6-2.2,2.4-3.2s.8-1.1,1.2-1.6c.4-.5-.2.2.2-.3.2-.3.5-.6.7-.9,6.7-8.5,14.1-16.3,22.2-23.5,2-1.8,4.1-3.6,6.2-5.3.5-.4,1.1-.8,1.6-1.3s.4-.4.7-.5c.2,0,.3-.2.5-.3.4-.3-.3.3,0,0,1.1-.8,2.2-1.7,3.3-2.5,4.4-3.2,8.9-6.2,13.6-9.1s9.8-5.6,14.8-8.1,5.1-2.4,7.6-3.6c.6-.3,1.3-.6,1.9-.8.1,0,.8-.3.4-.2.4-.2.8-.3,1.1-.5,1.4-.6,2.7-1.1,4.1-1.7,11.1-4.3,22.5-7.6,34.1-10.1,3-.6,6-1.2,9-1.7,1.6-.3,3.2-.5,4.7-.8.7,0,1.4-.2,2.1-.3.4,0,.8,0,1.2-.2h.5q.2,0,0,0h.3c6.4-.9,12.8-1.5,19.2-1.9s6.4-.3,9.7-.4c4.1,0,4.1-6.5,0-6.3h0v.3Z"/>
    <path class="st3" d="M457.2,199.3c1.5,5.3,2.7,10.7,3.7,16.1.5,2.8.9,5.5,1.3,8.3-.1-.7,0,.2,0,.4,0,.3,0,.6.1.9,0,.7.2,1.4.3,2.2.2,1.4.3,2.8.4,4.2,1.1,11.5,1.1,23.1.4,34.6-.2,3-.5,5.9-.8,8.8-.2,1.5-.3,3-.5,4.4,0,.4,0,.7-.1,1.1,0,.2-.1,1,0,.4-.1.8-.2,1.6-.3,2.4-.9,5.9-1.9,11.8-3.2,17.6-2.6,11.8-6.1,23.4-10.5,34.7-.5,1.4-1.1,2.8-1.7,4.2-.1.3-.3.7-.4,1,0,.2-.1.3-.2.5,0,0-.3.6-.1.3s0,.2-.1.3c0,.2-.1.3-.2.5-.2.4-.3.8-.5,1.1-1.2,2.8-2.5,5.6-3.8,8.3-2.6,5.5-5.5,10.8-8.6,16s-6.4,10.3-9.9,15.3c-.9,1.3-1.8,2.6-2.8,3.8-.4.6-.8,1.1-1.2,1.7-.2.3-.5.6-.7.9-.3.4.3-.4,0,0-.1.2-.3.4-.4.5-1.9,2.4-3.8,4.8-5.8,7.1-8,9.3-16.8,17.8-26.4,25.4-.3.2-.6.5-.9.7-.4.3.4-.3,0,0-.1.1-.3.2-.4.3-.6.5-1.3,1-1.9,1.4-1.2.9-2.5,1.8-3.8,2.7-2.5,1.8-5,3.5-7.6,5.1-5.3,3.3-10.8,6.4-16.5,9.1-1.4.7-2.9,1.4-4.3,2-.7.3-1.3.6-2,.9-.4.1-.7.3-1.1.5-.2,0-.4.1-.5.2.6-.3-.3.1-.3.1-3,1.2-6,2.4-9,3.5-6.2,2.2-12.5,4-18.9,5.5-3.3.8-6.6,1.4-10,2-1.7.3-3.4.6-5.1.8-.4,0-.8.1-1.2.2.6,0-.4,0-.6,0-.9.1-1.8.2-2.7.3-7.1.8-14.3,1.2-21.5,1.2s-7.3,0-10.9-.2c-1.7,0-3.2,1.5-3.2,3.2s1.5,3.1,3.2,3.2c14.7.7,29.4-.1,43.9-2.6,13.1-2.3,26-6,38.3-11.1s23.1-11.1,33.6-18.6c10.2-7.2,19.7-15.5,28.3-24.6s16.2-19,23-29.5,12.4-21.2,17.3-32.4,9.1-23.2,12.2-35.2,5.3-24,6.6-36.2,1.6-23.5,1-35.3-2.1-22.9-4.7-34.1c-.6-2.6-1.3-5.2-2-7.8-1.1-3.9-7.2-2.3-6.1,1.7h-.2Z"/>
    <path class="st3" d="M419.5,225.5c2.2,9,3.4,17.4,3.7,26.6.2,4.5.1,9-.1,13.5-.1,2.2-.3,4.4-.5,6.5-.1,1-.2,2.1-.4,3.1-.2,1.3-.2,1.7-.4,3.1-2.6,17.7-8.4,34.6-16.5,50.2-8.4,16-18.8,30.1-31.5,42.8s-26.4,22.7-42.2,30.6c-3.9,2-7.6,3.6-11.4,5.1-4,1.6-8.1,3-12.2,4.2s-8.4,2.2-12.7,3c-2.1.4-4.3.8-6.4,1.1-.1,0-.8.1-.3,0h-.7c-.5,0-1.1.1-1.7.2-1.1.1-2.2.2-3.3.3-2.1.2-4.2.3-6.4.4-1.7,0-3.2,1.4-3.2,3.2s1.5,3.2,3.2,3.2c18-.7,35.6-5.1,52.1-12.4,16.5-7.4,31.7-17.7,44.9-29.9s25-27,34.1-43,15.8-33.3,19.2-51.4c3.5-18.3,3.7-37.1.1-55.5-.4-2.3-.9-4.5-1.5-6.8-1-4-7.1-2.3-6.1,1.7h0l.2.2Z"/>
    <path class="st3" d="M226.3,86.4c-19.1,2-37.8,6.8-55.2,14.9-15.8,7.3-30.3,17.3-42.6,29.6-12.4,12.2-21.9,25.6-29.3,40.7s-12.5,31.6-14.9,48.4c-2.5,17.7-2.2,35.6.8,53.2.4,2.2.8,4.4,1.2,6.6.3,1.7,2.3,2.6,3.9,2.2,1.8-.5,2.6-2.2,2.2-3.9-1.8-8.8-2.8-16.6-3.3-25.6-.4-8.5-.2-17.1.7-25.6,0-1,.2-1.9.3-2.9,0-.5,0-1.1.2-1.6,0-.6,0-.2,0-.1,0-.4,0-.7.2-1.1.3-2.1.6-4.1,1-6.1.8-4.1,1.7-8.2,2.7-12.2s2.3-8,3.7-11.9c.7-1.9,1.4-3.8,2.1-5.7.4-.9.7-1.8,1.1-2.8-.2.4,0,0,0-.1,0-.3.2-.6.4-.9.2-.5.4-.9.6-1.4,3.3-7.5,7.3-14.7,11.8-21.5s9.1-12.8,14.9-18.9c11.5-12.3,24.4-22.1,39.4-29.8,8-4.1,15.5-7.2,24.1-10s18-4.9,27.2-6.2c2.1-.3,4.3-.6,6.7-.8,1.7-.2,3.2-1.3,3.2-3.2s-1.5-3.3-3.2-3.2h.1Z"/>
    <path class="st3" d="M193.8,135.2c-14.9,5.7-28.1,15-39,26.5-11.8,12.5-20.8,27.5-26.7,43.6-3.6,9.7-5.9,19.9-7.2,30.1-.2,1.7,1.6,3.2,3.2,3.2s3-1.5,3.2-3.2c2.1-16.8,7.6-33.3,16.1-47.9,7.8-13.4,18.4-25.6,30.7-34.5,3.4-2.4,6.9-4.7,10.5-6.7s3.7-1.9,5.5-2.8c2.1-1,3.2-1.4,5.3-2.3,1.6-.6,2.7-2.1,2.2-3.9-.4-1.5-2.3-2.8-3.9-2.2h0Z"/>
    <path class="st3" d="M382.1,265c.1,4.5,0,9.1-.5,13.6-.4,4.2-1.2,8.6-2.2,13.2-2.2,9.4-5.3,17.9-9.6,26.2-2.2,4.2-4.6,8.4-7.3,12.3-.7,1-1.4,2-2.1,3-.8,1-1.3,1.7-1.9,2.5-1.4,1.8-2.9,3.6-4.5,5.3-6.4,7.1-13.2,12.8-21.3,17.5-2.3,1.3-4.6,2.5-7,3.6-.6.3-1.2.5-1.8.8-1,.4.5-.2-.5.2-.3.1-.6.2-.9.4-1.2.5-2.5,1-3.7,1.4-2.6.9-5.2,1.6-7.9,2.2-1.3.3-2.6.6-4,.8-1.6.3-2.4.4-3.7.5-1.7.2-3.2,1.3-3.2,3.2s1.5,3.4,3.2,3.2c20.1-2.3,38.4-12,52.5-26.4,13.9-14.2,23.7-32.3,28.8-51.5,2.8-10.4,4.2-21.3,3.8-32.1,0-1.7-1.4-3.2-3.2-3.2s-3.2,1.5-3.2,3.2h.2Z"/>
  </g>
</svg>