<?xml version="1.0" encoding="UTF-8"?>
<svg id="laugh" xmlns="http://www.w3.org/2000/svg" version="1.1" viewBox="0 0 224.7 221.9">
  <!-- Generator: Adobe Illustrator 29.2.1, SVG Export Plug-In . SVG Version: 2.1.0 Build 116)  -->
  <defs>
    <style>
      .st13 {
        fill: #fff;
      }

      .st14 {
        fill: #ff5898;
      }

      .st15 {
        fill: #2f215c;
      }
    </style>
  </defs>
  <g id="laughbg">
    <path id="laughbgfill" class="st14" d="M130.5,5.8C61.8-6.4,18.5,23.2,4.9,99.8c-11.7,65.7,37.5,107.1,92.4,116.9,68.6,12.2,117.1-30.7,123.8-103.9,5.1-55.3-32.4-96.5-90.6-106.9"/>
    <path id="laughbgoutline" class="st15" d="M131.3,2.8C119.9.8,108.3-.4,96.7.1c-10.1.4-20.2,2.1-29.8,5.5-9.6,3.4-17.6,7.9-25.1,14s-14.1,13.9-19.5,22.2c-6,9.5-10.6,20-14,30.7C4.2,85.1,1.2,98.4.3,111.6c-.9,12.5.5,25.3,4.5,37.2,3.7,11.1,9.6,21.4,17.1,30.3,7.4,8.9,16.5,16.4,26.3,22.4s21.1,11,32.5,14.4,23.9,5.6,36.1,5.9c11.2.3,22.6-1,33.4-4.2,10-3,19.6-7.6,28.1-13.7s16.3-14.1,22.6-22.9c6.6-9.2,11.7-19.6,15.4-30.3,4.2-12,6.6-24.6,7.9-37.2s.4-24.2-2.6-36c-2.8-10.8-7.6-21.2-14.1-30.3s-15.2-17.5-24.7-24.1c-10.1-7-21.3-12.2-33-15.9-6-1.9-12.2-3.4-18.4-4.5-1.7-.3-3.4.5-3.9,2.2-.4,1.5.5,3.6,2.2,3.9,6.3,1.1,12.5,2.6,18.6,4.6,2.9.9,5.9,2,8.7,3.1,1.5.6,2.2.9,3.6,1.5s2.7,1.2,4.1,1.9c5.2,2.5,10.2,5.4,14.9,8.7,1.2.8,2.3,1.6,3.4,2.5.1,0,.7.5.4.3.3.2.6.5.9.7.6.5,1.1.9,1.7,1.4,2.1,1.7,4.1,3.6,6.1,5.5s3.8,3.9,5.6,6c.9,1,1.8,2.1,2.6,3.2.2.3,0,0,0,0,0,.1.2.2.3.4.2.2.4.5.6.7.4.6.8,1.1,1.2,1.7,3.1,4.4,5.8,9.1,8.1,13.9.3.6.6,1.2.8,1.8,0,.1.4,1,.2.5.1.3.3.7.4,1,.5,1.3,1,2.6,1.5,3.8.9,2.6,1.7,5.2,2.4,7.8s1.3,5.5,1.7,8.3c.1.7.2,1.4.3,2,0-.5,0,.3,0,.4,0,.4.1.8.1,1.3.1,1.4.3,2.8.4,4.2.4,6.1.2,12.1-.4,18.2s-1.5,11.9-2.9,18.2c-1.3,5.8-2.9,11.5-4.8,17.1-.5,1.3-.9,2.6-1.4,3.9-.2.6-.5,1.3-.8,1.9-.1.3-.3.7-.4,1,0,0-.2.5,0,.2.1-.2-.1.3-.1.3-1.1,2.6-2.3,5.1-3.6,7.6-2.4,4.7-5.2,9.3-8.4,13.6-1.6,2.2-2.6,3.4-4.4,5.6-1.7,2-3.4,3.9-5.2,5.7s-3.6,3.5-5.5,5.1c-1,.8-1.9,1.6-2.9,2.4-.3.2,0,0,0,0-.1.1-.3.2-.4.3-.2.2-.4.3-.7.5-.5.4-1.1.8-1.6,1.2-4.1,2.9-8.4,5.5-12.9,7.7-1.1.6-2.3,1.1-3.5,1.6-.2,0-.8.3-.3.1-.3.1-.6.2-.9.4-.6.2-1.1.5-1.7.7-2.4.9-4.9,1.7-7.4,2.5s-5.1,1.4-7.7,1.9c-1.3.3-2.5.5-3.8.7-.6.1-1.3.2-1.9.3-.1,0-.3,0-.4,0,.1,0,.6,0,0,0-.4,0-.7,0-1.1.1-5.5.7-11.1.9-16.7.7-6-.2-11.7-.8-17.2-1.7s-11.4-2.3-17-4c-2.8-.8-5.6-1.8-8.3-2.8-1.3-.5-2.6-1-3.9-1.5-.3-.1-.7-.3-1-.4-.2,0-.3-.1-.4-.2,0,0,.3.1,0,0-.7-.3-1.4-.6-2.1-.9-5.2-2.3-10.2-5-15.1-8-2.4-1.5-4.8-3.1-7.1-4.8s-3.9-2.9-6.1-4.8c-8.6-7.4-15.4-15.4-20.9-25.1-1.4-2.4-2.6-4.9-3.7-7.4-.1-.3-.2-.6-.4-.9-.2-.5.2.4,0-.1,0-.1-.1-.3-.2-.4-.3-.7-.6-1.4-.8-2.1-.5-1.3-.9-2.6-1.4-3.9-.9-2.8-1.7-5.6-2.3-8.4-.3-1.4-.6-2.9-.8-4.4-.1-.7-.2-1.4-.3-2.1,0-.6,0,0,0-.5,0-.4-.1-.9-.2-1.3-1.5-13,0-25.5,2.8-38.1,1.3-6,2.9-12,4.8-17.9.9-2.7,1.8-5.4,2.9-8.1s1.8-4.5,3.1-7.2c2.2-4.7,4.6-9.3,7.4-13.7,1.3-2,2.7-4.1,4.2-6,.2-.2.4-.5.6-.8.2-.3,0,0,0,.1,0-.1.2-.2.2-.3.4-.5.8-1,1.2-1.5.8-.9,1.5-1.8,2.3-2.7,3.1-3.5,6.4-6.7,10-9.6.2-.2.4-.3.6-.5.2-.1.8-.6.3-.2.5-.4,1-.7,1.4-1.1.9-.6,1.8-1.3,2.7-1.9,1.9-1.3,3.8-2.5,5.8-3.5s4.1-2.1,6.2-3.1c.2-.1.5-.2.7-.3.2-.1.7-.3.2,0,.6-.2,1.1-.5,1.7-.7,1.1-.4,2.2-.8,3.3-1.2,4.5-1.5,9.1-2.7,13.7-3.6,1.2-.2,2.4-.4,3.7-.6.1,0,.9-.1.5,0-.3,0,.5,0,.7,0,.7,0,1.3-.2,1.9-.2,2.5-.3,5-.4,7.6-.5,5.4-.2,10.8,0,16.1.3,2.8.2,5.5.5,8.2.9.1,0,.9.1.4,0,.3,0,.7,0,1,.1.7,0,1.4.2,2.1.3,1.5.2,3,.5,4.5.7,1.7.3,3.4-.5,3.9-2.2.4-1.5-.5-3.6-2.2-3.9h0Z"/>
  </g>
  <g id="laughmouth">
    <path id="laughmouthfill" class="st13" d="M59.1,116.7c-11.9,66.8,90.5,85.1,102.4,18.2,0,0-102.4-18.2-102.4-18.2Z"/>
    <path id="laughmouthline" class="st15" d="M56,115.9c-2.1,12.2-1,24.7,4.9,35.7,5,9.4,13.2,16.9,22.6,21.7s20.4,7.2,31.2,6.7,21.2-3.9,29.8-10.3c9.6-7.2,16.1-17.6,19.1-29.2.4-1.6.8-3.2,1-4.8s-.4-3.6-2.2-3.9c-3.4-.6-6.8-1.2-10.2-1.8-8.1-1.4-16.3-2.9-24.4-4.3-9.9-1.8-19.8-3.5-29.6-5.3-8.5-1.5-17-3-25.5-4.5-4.2-.7-8.3-1.5-12.5-2.2,0,0-.1,0-.2,0-1.7-.3-3.4.5-3.9,2.2-.4,1.5.5,3.6,2.2,3.9,3.4.6,6.8,1.2,10.2,1.8,8.1,1.4,16.3,2.9,24.4,4.3,9.9,1.8,19.8,3.5,29.6,5.3,8.5,1.5,17,3,25.5,4.5l8.4,1.5c1.3.2,2.7.6,4,.7,0,0,.1,0,.2,0l-2.2-3.9c-.6,3.1-1.3,6.1-2.3,9.1-.2.7-.5,1.3-.7,2-.1.3-.2.6-.4.9-.2.6,0,0,0,0-.1.2-.2.4-.3.7-.6,1.3-1.2,2.5-1.9,3.8s-1.3,2.4-2.1,3.5c-.4.6-.8,1.1-1.2,1.7-.2.2-.4.5-.5.7,0,.1-.2.2-.3.4.5-.7,0,0,0,0-1.6,2-3.4,3.9-5.3,5.6-.4.4-.9.8-1.4,1.2-.2.2-.5.4-.8.6-.1.1-.5.4.1-.1-.2.1-.3.3-.5.4-1,.7-2,1.4-3,2-2.1,1.3-4.3,2.4-6.6,3.5-.4.2.6-.2.2,0s-.3.1-.5.2c-.3.1-.5.2-.8.3-.6.2-1.2.4-1.8.6-1.2.4-2.4.8-3.6,1.1-1.2.3-2.3.6-3.5.8-.6.1-1.2.2-1.9.3-.3,0-.6,0-.8.1,1-.1-.2,0-.4,0-2.4.3-4.9.4-7.4.4-1.3,0-2.6,0-3.8-.2-.6,0-1.1-.1-1.7-.2-.3,0-.6,0-.9-.1-.1,0-.6,0,0,0,.6,0-.2,0-.3,0-2.4-.4-4.9-.9-7.3-1.5-1.2-.3-2.4-.7-3.5-1.1-.6-.2-1.2-.4-1.8-.6-.3-.1-.5-.2-.8-.3-.2,0-1.3-.5-.4-.2-2.2-1-4.5-2.1-6.6-3.3-1.1-.6-2.2-1.3-3.2-2.1-.5-.3-.9-.6-1.4-1-.2-.2-.4-.3-.7-.5.7.6-.2-.1-.3-.3-1.9-1.6-3.8-3.3-5.4-5.1-.8-.9-1.6-1.9-2.4-2.8.5.7,0,0-.2-.2-.2-.3-.4-.5-.6-.8-.4-.6-.8-1.1-1.1-1.7-1.4-2.1-2.5-4.4-3.6-6.6,0-.1-.2-.6,0,.1,0-.1-.1-.3-.2-.4-.1-.3-.2-.6-.4-.9-.2-.6-.5-1.2-.7-1.9-.4-1.2-.8-2.5-1.1-3.8-.3-1.4-.6-2.7-.8-4.1,0-.2,0-.3,0-.5,0,0,0,.7,0,.1,0-.3,0-.6-.1-.9,0-.8-.2-1.5-.2-2.3-.2-2.9-.1-5.9.2-8.9,0-.4,0-.8.1-1.2,0-.2.2-1.2,0-.5.1-.8.2-1.6.4-2.4.3-1.7-.5-3.4-2.2-3.9-1.5-.4-3.6.5-3.9,2.2h0Z"/>
  </g>
  <g id="laugheyes">
    <path id="laugheyesleft" class="st15" d="M90.7,95.3c4.2,0,8.1-3.7,7.9-7.9s-3.5-7.9-7.9-7.9-8.1,3.7-7.9,7.9,3.5,7.9,7.9,7.9h0Z"/>
    <path id="laugheyesright" class="st15" d="M141.9,104.4c4.1,0,8.1-3.7,7.9-7.9s-3.5-7.9-7.9-7.9-8.1,3.7-7.9,7.9,3.5,7.9,7.9,7.9h0Z"/>
  </g>
</svg>