<?xml version="1.0" encoding="UTF-8"?>
<svg id="Layer_2" data-name="Layer 2" xmlns="http://www.w3.org/2000/svg" viewBox="0 0 224.74 221.91">
  <defs>
    <style>
      .cls-1 {
        fill: #fff;
      }

      .cls-2 {
        fill: #2f215c;
      }

      .cls-3 {
        fill: #ff5898;
      }
    </style>
  </defs>
  <g id="Layer_1-2" data-name="Layer 1">
    <g id="laugh">
      <g>
        <path class="cls-3" d="M130.49,5.85C61.8-6.41,18.53,23.21,4.91,99.8c-11.69,65.71,37.54,107.12,92.4,116.88,68.58,12.2,117.09-30.71,123.82-103.94,5.09-55.31-32.36-96.53-90.64-106.89"/>
        <path class="cls-2" d="M131.33,2.79C119.91.76,108.29-.39,96.68.12c-10.11.44-20.25,2.09-29.81,5.47s-17.57,7.92-25.09,14-14.15,13.87-19.45,22.2c-6.05,9.52-10.57,20-14.02,30.72C4.25,85.09,1.19,98.39.26,111.6c-.88,12.51.49,25.27,4.48,37.18,3.73,11.13,9.61,21.36,17.14,30.34,7.44,8.87,16.48,16.37,26.3,22.45s21.12,11.04,32.48,14.42,23.87,5.55,36.05,5.87c11.24.3,22.62-.98,33.42-4.17,10.04-2.96,19.64-7.57,28.13-13.7s16.33-14.07,22.63-22.85c6.64-9.25,11.69-19.57,15.44-30.3,4.2-12,6.65-24.55,7.87-37.19s.44-24.25-2.59-35.96c-2.81-10.84-7.62-21.21-14.15-30.32s-15.18-17.52-24.72-24.15c-10.07-7-21.34-12.24-33.02-15.93-6.03-1.91-12.18-3.39-18.41-4.5-1.69-.3-3.42.46-3.9,2.22-.42,1.54.52,3.6,2.22,3.9,6.28,1.12,12.49,2.62,18.57,4.56,2.95.94,5.86,1.98,8.73,3.12,1.5.6,2.16.87,3.59,1.51s2.73,1.24,4.07,1.89c5.19,2.53,10.19,5.43,14.94,8.73,1.17.81,2.32,1.64,3.45,2.5.1.08.71.54.35.27.29.22.58.45.86.68.57.45,1.14.91,1.7,1.38,2.1,1.74,4.13,3.57,6.08,5.48s3.84,3.93,5.63,6.02c.89,1.04,1.75,2.1,2.59,3.17.22.28,0,0-.03-.04.09.12.18.24.28.36.18.24.37.48.55.72.42.57.84,1.14,1.24,1.71,3.12,4.39,5.84,9.07,8.11,13.95.28.6.55,1.19.81,1.8.06.14.43,1,.22.5.14.33.27.65.41.98.52,1.27,1,2.56,1.46,3.85.91,2.57,1.69,5.17,2.36,7.81s1.26,5.5,1.7,8.28c.11.68.21,1.36.3,2.04-.07-.5.03.28.05.42.05.42.1.85.15,1.27.15,1.39.28,2.79.37,4.18.4,6.06.23,12.12-.38,18.16s-1.51,11.94-2.87,18.17c-1.26,5.79-2.86,11.51-4.83,17.1-.46,1.31-.94,2.61-1.45,3.91-.25.64-.5,1.28-.76,1.92-.14.34-.28.68-.42,1.02,0,0-.2.48-.08.2.11-.25-.13.29-.15.34-1.11,2.56-2.29,5.08-3.57,7.56-2.45,4.74-5.23,9.32-8.35,13.65-1.62,2.25-2.55,3.44-4.42,5.65-1.67,1.96-3.41,3.86-5.23,5.69s-3.6,3.47-5.51,5.09c-.96.82-1.95,1.62-2.94,2.4-.28.22.05-.03.09-.06-.15.11-.3.23-.45.34-.22.17-.45.34-.67.51-.53.39-1.06.78-1.59,1.16-4.09,2.91-8.42,5.47-12.93,7.66-1.15.55-2.31,1.09-3.48,1.59-.17.07-.78.33-.29.12-.31.13-.61.25-.92.38-.57.23-1.15.46-1.73.68-2.42.92-4.88,1.74-7.37,2.46s-5.1,1.36-7.68,1.88c-1.26.26-2.53.49-3.81.69-.64.1-1.29.2-1.93.29-.15.02-.3.04-.45.06.13-.02.59-.07-.05,0-.35.04-.7.09-1.05.13-5.53.66-11.11.87-16.68.7-6.01-.18-11.67-.79-17.23-1.74s-11.4-2.31-16.96-3.98c-2.79-.84-5.55-1.76-8.28-2.77-1.31-.48-2.61-.99-3.91-1.51-.35-.14-.7-.28-1.04-.43-.15-.06-.3-.12-.45-.19.07.03.35.15.02,0-.69-.29-1.38-.59-2.06-.9-5.19-2.32-10.24-4.98-15.07-7.98-2.41-1.5-4.77-3.08-7.07-4.75s-3.86-2.9-6.12-4.84c-8.63-7.38-15.44-15.4-20.9-25.14-1.35-2.41-2.59-4.88-3.71-7.41-.13-.29-.25-.58-.38-.87-.21-.49.16.38-.05-.11-.06-.15-.12-.29-.18-.44-.28-.68-.55-1.37-.81-2.06-.49-1.29-.95-2.59-1.38-3.9-.91-2.77-1.67-5.59-2.3-8.43-.32-1.45-.6-2.91-.85-4.38-.12-.71-.23-1.43-.33-2.15-.08-.55,0,.07-.07-.49-.06-.45-.11-.89-.16-1.34-1.48-13.03.04-25.51,2.82-38.12,1.33-6.02,2.91-11.99,4.82-17.86.88-2.72,1.84-5.41,2.87-8.07s1.78-4.45,3.06-7.22c2.18-4.71,4.65-9.3,7.45-13.67,1.31-2.05,2.7-4.06,4.16-6.02.19-.25.38-.5.57-.76.22-.29-.06.07-.08.11.08-.11.17-.21.25-.32.39-.49.78-.98,1.17-1.47.76-.93,1.53-1.84,2.33-2.73,3.06-3.46,6.41-6.67,10-9.57.2-.16.4-.32.6-.48.18-.15.75-.58.26-.21.47-.36.95-.72,1.42-1.07.89-.65,1.79-1.28,2.7-1.89,1.89-1.27,3.84-2.45,5.84-3.55s4.06-2.12,6.15-3.05c.23-.1.47-.21.7-.31s.7-.29.19-.08c.55-.23,1.11-.46,1.67-.67,1.08-.42,2.17-.83,3.27-1.2,4.47-1.54,9.07-2.71,13.73-3.55,1.21-.22,2.43-.41,3.65-.59.12-.02.89-.12.54-.08-.32.04.5-.06.68-.08.65-.08,1.3-.15,1.95-.22,2.51-.26,5.03-.44,7.55-.54,5.37-.21,10.76-.07,16.12.35,2.76.22,5.51.51,8.25.86.13.02.92.12.45.06.32.04.65.09.97.14.71.1,1.42.21,2.12.32,1.49.23,2.98.48,4.46.74,1.69.3,3.42-.46,3.9-2.22.42-1.53-.52-3.6-2.22-3.9h0Z"/>
      </g>
      <g>
        <path class="cls-1" d="M59.11,116.74c-11.88,66.85,90.49,85.05,102.37,18.2l-102.37-18.2Z"/>
        <path class="cls-2" d="M56.05,115.9c-2.14,12.16-1.01,24.71,4.87,35.71,5.01,9.37,13.19,16.91,22.62,21.71s20.43,7.23,31.15,6.68,21.22-3.85,29.75-10.28c9.6-7.23,16.06-17.56,19.06-29.16.41-1.57.75-3.16,1.03-4.76s-.41-3.58-2.22-3.9c-3.4-.61-6.81-1.21-10.21-1.82-8.13-1.45-16.26-2.89-24.39-4.34-9.87-1.76-19.75-3.51-29.62-5.27-8.5-1.51-17.01-3.02-25.51-4.54-4.15-.74-8.3-1.52-12.46-2.22-.06,0-.12-.02-.17-.03-1.69-.3-3.42.46-3.9,2.22-.42,1.53.52,3.6,2.22,3.9,3.4.61,6.81,1.21,10.21,1.82,8.13,1.45,16.26,2.89,24.39,4.34,9.87,1.76,19.75,3.51,29.62,5.27,8.5,1.51,17.01,3.02,25.51,4.54l8.45,1.5c1.32.24,2.67.58,4.01.71.06,0,.12.02.17.03l-2.22-3.9c-.56,3.09-1.32,6.14-2.34,9.11-.23.67-.48,1.34-.73,2.01-.12.31-.25.61-.37.92-.21.55,0,.02.04-.08-.1.22-.19.45-.29.67-.56,1.28-1.18,2.53-1.85,3.76s-1.34,2.35-2.09,3.48c-.38.57-.76,1.13-1.16,1.68-.18.24-.36.48-.54.73-.09.12-.18.24-.27.36.51-.67.03-.05-.06.06-1.62,1.98-3.35,3.85-5.26,5.56-.45.41-.92.8-1.39,1.19-.25.2-.5.4-.75.6-.13.11-.48.36.14-.1-.17.13-.34.26-.51.38-.97.72-1.96,1.4-2.98,2.04-2.12,1.33-4.34,2.43-6.62,3.46-.39.18.58-.23.18-.08-.16.06-.32.13-.49.2-.26.1-.52.21-.78.31-.59.22-1.18.44-1.78.64-1.19.41-2.4.77-3.63,1.08-1.15.3-2.32.56-3.49.78-.62.12-1.25.22-1.87.32-.28.04-.56.08-.84.12.98-.15-.17.02-.41.05-2.45.28-4.92.4-7.39.37-1.27-.02-2.55-.08-3.81-.18-.56-.05-1.13-.1-1.69-.16-.32-.03-.63-.07-.95-.11-.12-.01-.6-.08-.1-.01.55.07-.21-.03-.31-.05-2.45-.36-4.88-.87-7.27-1.53-1.19-.33-2.38-.7-3.54-1.1-.6-.21-1.2-.43-1.79-.65-.26-.1-.53-.2-.79-.31-.23-.09-1.26-.54-.42-.17-2.25-1.01-4.46-2.07-6.59-3.34-1.09-.64-2.15-1.33-3.19-2.05-.46-.32-.92-.65-1.37-.98-.23-.17-.45-.34-.67-.51.73.55-.18-.15-.35-.28-1.94-1.56-3.76-3.27-5.44-5.1-.83-.91-1.62-1.85-2.38-2.82.54.68-.01-.02-.15-.2-.19-.26-.38-.51-.56-.77-.39-.55-.77-1.11-1.14-1.67-1.38-2.12-2.51-4.35-3.57-6.64-.07-.15-.23-.56.06.15-.06-.14-.11-.27-.17-.41-.12-.31-.25-.61-.36-.92-.24-.62-.46-1.25-.67-1.88-.41-1.25-.78-2.52-1.08-3.8-.33-1.35-.58-2.72-.8-4.1-.02-.16-.04-.31-.07-.47.01.09.08.73.02.14-.04-.32-.08-.63-.11-.95-.08-.76-.15-1.52-.19-2.29-.18-2.95-.11-5.92.17-8.87.04-.4.08-.79.13-1.19.02-.2.16-1.22.06-.49.11-.81.24-1.63.39-2.44.3-1.69-.45-3.42-2.22-3.9-1.53-.42-3.61.52-3.9,2.22Z"/>
      </g>
      <g>
        <path class="cls-2" d="M90.73,95.33c4.15,0,8.12-3.65,7.93-7.93s-3.49-7.93-7.93-7.93c-4.15,0-8.12,3.65-7.93,7.93s3.49,7.93,7.93,7.93h0Z"/>
        <path class="cls-2" d="M141.92,104.41c4.15,0,8.12-3.65,7.93-7.93s-3.49-7.93-7.93-7.93c-4.15,0-8.12,3.65-7.93,7.93s3.49,7.93,7.93,7.93h0Z"/>
      </g>
    </g>
  </g>
</svg>