<?xml version="1.0" encoding="UTF-8"?>
<svg id="Layer_2" data-name="Layer 2" xmlns="http://www.w3.org/2000/svg" viewBox="0 0 276.51 588.38">
  <defs>
    <style>
      .cls-1 {
        fill: #6db1c9;
      }

      .cls-2 {
        fill: #a56eff;
      }

      .cls-3 {
        fill: #2f215c;
      }

      .cls-4 {
        fill: #6c58b0;
      }

      .cls-5 {
        fill: #3e2c7a;
      }
    </style>
  </defs>
  <g id="Layer_1-2" data-name="Layer 1">
    <g id="mic">
      <g>
        <path class="cls-3" d="M245.23,481.49c3.89,9.72,7.66,19.51,10.47,29.61,1.48,5.3,2.66,10.68,3.45,16.13.09.62.01.1,0-.02.02.18.05.36.07.55.04.32.08.64.11.96.08.68.15,1.36.21,2.04.12,1.35.22,2.71.27,4.06.1,2.57.08,5.15-.12,7.72-.05.65-.11,1.31-.18,1.96-.03.3-.07.6-.11.91,0,.07-.07.5-.01.09.07-.47-.04.26-.05.35-.19,1.28-.43,2.55-.73,3.8s-.61,2.4-.99,3.58c-.18.57-.38,1.13-.58,1.69-.1.28-.21.56-.32.84-.06.16-.13.32-.19.47-.22.57.13-.29-.03.07-1.02,2.33-2.23,4.57-3.66,6.67-.35.51-.71,1-1.08,1.5-.33.44.25-.29-.24.3-.23.28-.45.55-.68.83-.89,1.04-1.83,2.04-2.82,2.99s-2.04,1.85-3.12,2.72c-.07.06-.47.36-.05.04-.12.09-.24.18-.35.27-.28.21-.56.41-.84.61-.66.47-1.34.93-2.02,1.36-2.63,1.68-5.69,3.26-8.38,4.4-2.46,1.04-5.46,2.05-8.23,2.74-1.23.31-2.47.58-3.72.79-.29.05-.59.1-.88.14-.17.03-1.24.16-.4.06-.61.07-1.23.14-1.85.2-2.32.2-4.65.21-6.96.02-.53-.04-1.06-.11-1.58-.17.65.07.17.02-.16-.03s-.66-.11-.99-.17c-1.05-.19-2.1-.43-3.14-.71s-2.03-.6-3.03-.96c-.51-.19-1.02-.39-1.53-.59-.33-.13.25.11.26.11-.13-.06-.27-.11-.4-.17-.27-.12-.53-.24-.79-.36-1.95-.92-3.83-1.99-5.62-3.19-.43-.29-.86-.59-1.28-.89-.21-.15-.42-.31-.63-.46-.22-.16-.8-.63-.25-.18-.89-.71-1.76-1.42-2.6-2.18-1.7-1.52-3.31-3.15-4.84-4.86-.8-.89-1.57-1.81-2.32-2.74-.18-.22-.35-.44-.53-.66-.08-.1-.15-.19-.22-.29-.28-.36.32.43.05.06-.37-.49-.74-.98-1.1-1.47-1.46-1.99-2.83-4.05-4.13-6.15-2.72-4.41-5.13-9.01-7.31-13.71-.57-1.23-1.13-2.47-1.67-3.72-.13-.29-.25-.59-.38-.88-.07-.16-.38-.89-.27-.63s-.2-.47-.26-.63c-.14-.34-.28-.68-.42-1.02-1.03-2.52-2.01-5.06-2.95-7.62-3.73-10.18-6.8-20.6-9.58-31.08-2.41-9.1-4.54-18.27-6.84-27.4-1.77-7.01-3.44-14.02-4.87-21.12-1.69-8.4-3.21-16.83-4.71-25.27-1.67-9.37-3.32-18.74-5.07-28.1-1.84-9.87-3.77-19.72-5.92-29.53s-4.56-19.87-7.3-29.69-5.63-18.94-9.12-28.18-7.16-17.62-11.68-25.96c-4.17-7.7-9-15.06-14.65-21.75-5.23-6.19-11.27-11.73-18.08-16.14s-14.23-7.51-22.05-9.16c-8.89-1.88-17.95-1.88-26.91-.62-4.76.67-9.46,1.72-14.07,3.05-3.92,1.13-2.25,7.25,1.69,6.12,2.49-.72,5.01-1.36,7.55-1.9,1.17-.25,2.35-.48,3.53-.68.6-.1,1.2-.2,1.8-.3.24-.04.48-.07.71-.11.16-.02.32-.04.47-.07.62-.09-.42.05-.02,0,4.45-.56,8.93-.82,13.42-.63,1.03.04,2.06.11,3.09.2.52.05,1.05.1,1.57.15.21.02.42.05.62.07.15.02,1.13.15.61.08s.25.04.4.06c.24.04.48.07.71.11.51.08,1.01.17,1.52.26,1,.18,1.99.39,2.98.63,1.95.46,3.87,1.01,5.76,1.65.9.31,1.8.63,2.69.98.46.18.91.37,1.37.55-.43-.17-.42-.18-.04-.01.27.12.54.24.81.36,3.54,1.59,6.92,3.52,10.12,5.72.78.54,1.56,1.09,2.32,1.66.18.14.37.28.55.42.38.28-.52-.41.14.11.39.31.78.62,1.16.93,1.52,1.25,3,2.55,4.42,3.91,2.95,2.81,5.7,5.84,8.25,9.03.31.38.61.77.91,1.16.49.62-.26-.34.09.11.17.23.34.45.51.68.64.85,1.27,1.72,1.89,2.59,1.26,1.77,2.47,3.58,3.63,5.42,4.86,7.66,8.94,15.8,12.51,24.14.11.26.22.51.33.77-.25-.59,0-.02.1.24.23.56.46,1.11.69,1.67.46,1.12.91,2.25,1.35,3.37.89,2.28,1.75,4.58,2.58,6.89,1.67,4.63,3.21,9.3,4.66,14,3,9.73,5.59,19.58,7.93,29.49s4.41,19.85,6.35,29.83,3.61,19.23,5.32,28.87c1.58,8.87,3.14,17.74,4.82,26.59,1.44,7.59,2.95,15.17,4.78,22.67,1.97,8.11,4.02,16.21,6.05,24.31,2.58,10.31,5.34,20.58,8.62,30.69,3.4,10.49,7.34,20.87,12.34,30.71,4.52,8.89,10.03,17.54,17.2,24.54,6.57,6.41,14.74,11.39,23.88,12.99,11.11,1.94,22.35-.7,32.37-5.61,10.63-5.21,19.16-13.6,23.49-24.69,3.99-10.2,3.91-21.48,2.38-32.17s-4.83-21.46-8.59-31.76c-1.68-4.6-3.47-9.16-5.29-13.7-.64-1.59-2.12-2.71-3.9-2.22-1.51.42-2.86,2.3-2.22,3.9h0Z"/>
        <g>
          <path class="cls-4" d="M215,444.5c7.76,23.52,10.41,62.96,40.72,49.42,22.8-9.9,4.66-47.36-3.91-62.99"/>
          <path class="cls-3" d="M211.94,445.35c3.21,9.76,5.1,19.89,8.34,29.64,2.81,8.47,6.9,18.51,15.37,22.77,4.43,2.23,9.33,2.51,14.13,1.5,5.22-1.09,10.79-3.45,14.44-7.46,7.36-8.08,6.37-20.08,3.93-29.92-2.59-10.44-7.14-20.41-12.16-29.88-.47-.89-.95-1.78-1.44-2.66-1.96-3.58-7.44-.38-5.48,3.2,2.11,3.86,4.12,7.78,5.97,11.78.54,1.17,1.07,2.35,1.58,3.53.06.13.12.27.17.4.03.07.27.64.13.3-.1-.23.19.44.24.57.27.64.53,1.28.78,1.93,1,2.51,1.91,5.06,2.72,7.64s1.46,5.03,1.99,7.59c.13.61.24,1.23.35,1.84.06.33.11.66.16.99.03.16.14,1,.1.7s.06.51.08.69c.03.28.06.55.08.83.06.63.1,1.27.13,1.91.06,1.19.06,2.38,0,3.57-.03.55-.07,1.11-.13,1.66-.03.31-.11.72-.01.16-.05.33-.1.65-.16.98-.19,1.03-.46,2.05-.8,3.05-.09.26-.19.52-.29.78-.04.11-.09.22-.13.33,0-.02.24-.54.09-.22-.24.49-.47.99-.74,1.47-.25.44-.53.86-.81,1.29-.06.1-.14.19-.2.29-.25.37.35-.43.07-.08-.18.21-.35.43-.53.64-.34.39-.71.76-1.09,1.12-.21.2-.42.38-.64.57-.09.08-.19.16-.29.24-.35.29.42-.3.05-.04-.97.68-1.97,1.3-3.05,1.82-1.24.6-1.88.85-3.38,1.36-1.2.41-2.42.75-3.66.99-.26.05-.51.1-.77.14-.3.05-.74.09-.16.03-.57.06-1.13.11-1.7.14-.5.02-1.01.02-1.51,0-.26-.01-.52-.03-.79-.05-.11,0-.22-.03-.33-.03-.43,0,.6.12.19.03-.94-.2-1.86-.36-2.78-.68-.2-.07-.39-.15-.58-.21-.52-.18.56.28-.09-.04-.43-.21-.86-.42-1.27-.66-.38-.22-.76-.46-1.13-.71-.17-.12-.33-.25-.5-.36.57.37.1.08-.17-.15-.7-.59-1.36-1.23-1.98-1.91-.32-.35-.62-.71-.92-1.08-.5-.61.21.32-.12-.15-.15-.21-.31-.42-.46-.64-1.24-1.75-2.28-3.63-3.21-5.55-.24-.49-.47-.98-.69-1.48-.1-.23-.2-.47-.31-.7-.06-.13-.23-.56.02.05-.07-.16-.13-.32-.2-.48-.45-1.1-.87-2.21-1.27-3.33-3.31-9.28-5.22-18.98-8.02-28.41-.33-1.1-.67-2.19-1.02-3.28-.53-1.63-2.19-2.69-3.9-2.22-1.59.44-2.75,2.27-2.22,3.9h0Z"/>
        </g>
      </g>
      <g>
        <g>
          <path class="cls-1" d="M96.02,179.41c35.7,87.95,42.8,119.88,67.86,184.25,6.46,19.07,29.96,87.38,34.99,93.62,3.47,4.3,43.14-7.74,74.47-21.4-31.98-98.22-62.57-194.36-93.94-286.96"/>
          <path class="cls-3" d="M92.96,180.25c6.75,16.65,13.33,33.36,19.65,50.18,4.95,13.16,9.73,26.38,14.38,39.65,4.07,11.59,8.05,23.22,12.07,34.82s8.18,23.42,12.47,35.07c3.96,10.75,8.2,21.38,11.91,32.22,3.51,10.25,7.06,20.48,10.68,30.69,3.94,11.14,7.94,22.27,12.15,33.32,1.66,4.36,3.36,8.71,5.16,13.01,1.21,2.87,2.38,5.83,3.95,8.54.62,1.07,1.34,2.11,2.46,2.7,1.53.81,3.37.92,5.07.87,5.08-.15,10.19-1.4,15.09-2.63,15.36-3.86,30.4-9.24,45.09-15.13,3.97-1.59,7.92-3.24,11.84-4.95,1.22-.53,1.85-2.37,1.46-3.58-6.21-19.08-12.4-38.17-18.58-57.26s-12.24-37.81-18.36-56.72-12.13-37.41-18.24-56.11c-6.03-18.49-12.1-36.97-18.21-55.44s-12.13-36.49-18.28-54.7c-.76-2.24-1.52-4.48-2.28-6.73-.55-1.62-2.18-2.69-3.9-2.22-1.58.43-2.77,2.27-2.22,3.9,6.16,18.18,12.25,36.39,18.3,54.61s12.18,36.89,18.21,55.35c6.1,18.67,12.17,37.35,18.23,56.03s12.23,37.76,18.34,56.65c6.17,19.07,12.35,38.14,18.55,57.19.77,2.38,1.55,4.75,2.32,7.13l1.46-3.58c-14.93,6.5-30.29,12.18-45.9,16.82-5.91,1.76-11.89,3.41-17.97,4.47-.53.09-1.06.18-1.59.26-.35.05-.95.12-.22.04-.27.03-.54.07-.81.1-.91.1-1.82.17-2.73.18-.36,0-.72,0-1.08-.03-.14,0-.31-.05-.45-.04.06,0,.84.18.21.02-.1-.03-.59-.22-.67-.19.1-.04.87.44.41.16-.53-.32.59.52.31.26-.54-.49.42.67.18.26-.1-.17-.22-.32-.32-.48-.26-.41-.49-.84-.72-1.28-.64-1.21-1.21-2.46-1.77-3.71-.35-.78-.69-1.56-1.02-2.35-.08-.2-.42-1.01-.04-.09-.08-.21-.17-.41-.26-.62-.2-.49-.41-.98-.61-1.47-.86-2.09-1.69-4.19-2.51-6.29-4.14-10.61-8.01-21.32-11.84-32.04s-7.48-21.18-11.13-31.81c-1.3-3.77-2.59-7.54-3.87-11.31-2.08-6.14-4.63-12.14-6.9-18.21-4.41-11.78-8.65-23.63-12.8-35.51s-7.84-22.69-11.78-34.03c-4.39-12.63-8.87-25.22-13.5-37.76-5.75-15.57-11.72-31.06-17.87-46.48-1.79-4.48-3.59-8.96-5.41-13.43-.64-1.59-2.11-2.71-3.9-2.22-1.5.41-2.86,2.31-2.22,3.9h0Z"/>
        </g>
        <g>
          <path class="cls-2" d="M158.69,216.64c-22.75,4.64,4.88,81.12,24.52,74.48,18.3-6.2-5.07-81.15-24.52-74.48"/>
          <path class="cls-3" d="M157.85,213.58c-5.6,1.18-8.92,6.16-10.1,11.46-1.49,6.7-.7,13.81.6,20.48,1.52,7.79,4.07,15.36,7.28,22.61,2.92,6.61,6.51,13.06,11.27,18.54,3.47,4.01,8.36,8.14,13.99,8.02s9.54-4.59,11.01-9.84c1.82-6.47,1.18-13.55.2-20.1-1.16-7.73-3.27-15.35-6.08-22.65-2.64-6.88-5.84-13.72-10.34-19.6-3.46-4.52-8.08-9.19-14.13-9.47-1.24-.06-2.53.13-3.71.53-1.62.54-2.69,2.19-2.22,3.9.44,1.59,2.27,2.76,3.9,2.22.38-.13,1.03-.14,1.37-.34-.49.3-.82.07-.34.05.12,0,.25-.02.37-.02.25,0,.5,0,.75.01.12,0,.25.03.38.03.54.02-.86-.19-.34-.04.2.06.42.08.63.13.25.06.51.14.75.22.08.03.17.06.25.09.76.25-.15-.03-.13-.07.12-.19,2.65,1.56,2.88,1.72.5.34-.59-.52-.15-.11.08.07.17.13.25.2.25.21.5.42.74.64.51.46,1,.95,1.47,1.45s.9.99,1.33,1.5c.2.24.4.49.6.73.12.15.53.7-.02-.03.16.21.32.42.47.63.9,1.22,1.74,2.49,2.53,3.78,1.83,2.99,3.42,6.12,4.85,9.33.18.4.35.81.53,1.21.07.17.29.7.01.02.09.22.19.45.28.67.37.91.73,1.82,1.08,2.74.68,1.78,1.31,3.58,1.89,5.39,1.14,3.53,2.11,7.11,2.9,10.73.39,1.78.72,3.57,1.01,5.37.07.46.13.91.2,1.37.09.58,0-.08-.02-.16.03.23.06.45.09.68.11.88.2,1.77.28,2.65.27,3.07.35,6.17.05,9.23-.03.3-.07.59-.1.89.12-1.14-.02.09-.06.36-.11.62-.23,1.24-.39,1.86-.14.55-.3,1.09-.49,1.63-.06.17-.15.64-.29.76.25-.2.34-.72.09-.23-.06.12-.12.25-.18.38-.22.44-.46.87-.74,1.28-.07.11-.16.21-.22.32-.28.45.57-.6.19-.24-.18.17-.33.38-.5.56s-.36.33-.53.5c-.5.49.69-.4.07-.06-.21.12-.4.26-.61.38-.07.04-.14.07-.21.11-.65.38.21-.09.21-.07-.03.16-1.16.35-1.32.39-.83.2.46.01.11,0-.28-.01-.58.04-.87.04-.21,0-.42-.03-.62-.03-.72,0,.88.2-.03,0-.51-.12-1.02-.24-1.52-.42-.08-.03-.17-.07-.25-.09-.62-.21.27.1.25.11-.05.04-.69-.32-.76-.36-.5-.26-.99-.55-1.47-.86-.24-.16-.47-.32-.7-.48-.13-.09-.25-.2-.38-.28.72.46.43.34.26.2-.51-.44-1.03-.86-1.52-1.32-1.03-.96-1.98-1.99-2.88-3.06-.25-.3-.5-.6-.74-.9-.08-.1-.16-.21-.25-.31-.45-.55.43.59,0,0-.49-.66-.98-1.32-1.45-2-1.95-2.82-3.67-5.81-5.22-8.87-.81-1.6-1.58-3.22-2.3-4.86-.18-.41-.35-.82-.53-1.22.32.75-.16-.38-.24-.59-.37-.91-.73-1.82-1.08-2.73-1.32-3.5-2.47-7.07-3.42-10.69-.46-1.75-.87-3.52-1.23-5.3-.17-.82-.32-1.65-.46-2.48-.06-.37-.12-.74-.18-1.11-.03-.22-.07-.44-.1-.66-.14-.93.03.32-.04-.25-.35-3.05-.59-6.1-.42-9.17.04-.67.1-1.34.17-2.01.02-.22.14-.88-.02.14.03-.17.05-.34.08-.52.05-.34.11-.67.18-1,.12-.59.26-1.17.42-1.74.13-.45.28-1.4.6-1.74-.38.41-.29.62-.09.22.04-.09.08-.18.12-.26.12-.26.25-.51.4-.76.11-.2.23-.4.36-.6.07-.12.15-.23.23-.34.43-.65.02.15-.09.1.02,0,.9-.99.99-1.06s.49-.34.5-.42c-.02.26-.71.49-.22.19.15-.09.29-.19.44-.28.19-.11.38-.22.57-.32.12-.06.24-.11.36-.17.45-.25-.68.18-.33.14.49-.05,1.03-.34,1.53-.45,1.68-.35,2.65-2.32,2.22-3.9-.48-1.74-2.22-2.57-3.9-2.22h0Z"/>
        </g>
        <g>
          <path class="cls-5" d="M190.48,312.97c-9.11,3.07-12.38,9.53-8.93,19.7,2.95,8.71,11.66,10.45,18.94,7.98,9.09-3.08,12.1-11.49,8.05-20.79-3.06-7.01-10.32-9.51-18.06-6.89"/>
          <path class="cls-3" d="M189.64,309.91c-3.3,1.13-6.61,2.78-8.92,5.46s-3.48,5.83-3.66,9.31c-.38,7.44,3.17,15.73,10.29,18.75s15.24,1.24,20.76-3.52c5.82-5.02,6.5-13.37,3.79-20.19-1.71-4.32-4.61-7.82-8.96-9.64s-9-1.58-13.3-.17c-1.63.54-2.69,2.19-2.22,3.9.44,1.59,2.27,2.75,3.9,2.22.78-.26,1.57-.48,2.38-.65.85-.18,1.03-.2,2-.24.74-.03,1.48,0,2.22.07-.44-.04.34.06.47.08.43.08.85.19,1.27.32.31.09.61.2.91.31-.41-.16.3.14.41.2.33.17.66.35.97.55.12.08.85.59.53.34.56.43,1.05.94,1.52,1.46.11.12.22.25.32.38-.05-.06-.2-.27.01.03.27.37.51.76.74,1.16.76,1.32,1.21,2.6,1.6,4.15.09.34.16.68.23,1.02.02.12.16.93.1.49.1.75.13,1.51.12,2.27,0,.37-.04.73-.06,1.1s.01-.01.02-.08c-.02.15-.05.3-.07.45-.13.69-.31,1.36-.54,2.03-.05.14-.1.28-.15.42.02-.06.19-.41.03-.08-.15.31-.3.62-.47.92-.15.26-.3.51-.47.75-.08.12-.17.24-.25.37-.19.27.23-.23-.15.18-1.85,2-3.72,3.14-6.42,3.89-.65.18-1.31.31-1.97.44-.59.12.21,0-.38.05-.41.03-.82.07-1.23.08-.66.02-1.32,0-1.98-.05-.15-.01-.3-.03-.45-.04.06,0,.47.08.1.01-.39-.07-.78-.14-1.17-.24-.58-.14-1.14-.32-1.7-.54-.47-.18.39.2-.06-.03-.13-.07-.27-.13-.4-.2-.31-.16-.61-.33-.9-.52-.12-.08-.89-.61-.46-.28-.24-.18-.47-.39-.69-.6s-.44-.43-.65-.66c-.14-.15-.28-.31-.41-.47.21.26,0,0-.09-.12-.97-1.36-1.38-2.39-1.83-3.86-.23-.76-.43-1.52-.6-2.3-.07-.34-.13-.67-.19-1.01,0,0-.08-.55-.04-.24.03.27-.03-.33-.04-.38-.06-.76-.09-1.53-.05-2.29.01-.23.14-1.22.03-.58.05-.32.11-.64.19-.95.08-.35.19-.69.3-1.04.21-.68-.1.11.12-.35.3-.6.63-1.15.99-1.7.2-.3-.07.08-.1.11.14-.17.29-.34.44-.51.21-.24.44-.46.67-.68.27-.26.55-.5.84-.73-.44.34.27-.17.41-.27,1.48-.98,2.64-1.47,4.03-1.95,1.62-.56,2.69-2.18,2.22-3.9-.43-1.58-2.28-2.78-3.9-2.22h0Z"/>
        </g>
        <g>
          <path class="cls-3" d="M185.89,414.95c18.53-6.26,37.4-11.46,56.08-17.24,5.11-1.58,10.21-3.21,15.28-4.92,1.62-.55,2.69-2.18,2.22-3.9-.44-1.58-2.27-2.77-3.9-2.22-18.53,6.26-37.4,11.45-56.08,17.24-5.11,1.58-10.21,3.21-15.28,4.93-1.62.55-2.69,2.18-2.22,3.9.44,1.58,2.27,2.77,3.9,2.22h0Z"/>
          <path class="cls-3" d="M191.19,430.6c18.52-6.27,37.39-11.46,56.07-17.25,5.11-1.58,10.21-3.21,15.28-4.93,1.62-.55,2.69-2.18,2.22-3.9-.43-1.58-2.27-2.77-3.9-2.22-18.53,6.27-37.39,11.46-56.07,17.25-5.11,1.59-10.21,3.22-15.28,4.93-1.62.55-2.69,2.18-2.22,3.9.43,1.58,2.27,2.77,3.9,2.22h0Z"/>
        </g>
      </g>
      <g>
        <g>
          <path class="cls-4" d="M84.44,9.47C27.47,28.73,7.07,69.07,28.59,132.57c18.46,54.5,72.83,65.33,118.33,49.9,56.85-19.26,75.67-71.8,50.37-129.9C178.15,8.68,132.77-6.91,84.44,9.47"/>
          <path class="cls-3" d="M83.6,6.41c-17.85,6.05-35.45,15.08-48.05,29.44-11.48,13.08-17.49,29.52-18.38,46.82-.51,9.95.59,19.97,2.59,29.71,2.25,10.99,5.48,22.03,10.29,32.18,8.42,17.78,22.85,32.24,40.99,39.99,17.62,7.53,37.08,8.95,55.9,6.08,19.99-3.05,39.77-10.96,55.29-24.1,14.54-12.31,24.41-29.45,27.77-48.2,3.73-20.88.06-42.41-7.71-61.97-4.14-10.41-9.48-20.13-16.88-28.6-6.56-7.5-14.58-13.79-23.45-18.34C142.84-.37,120.78-1.98,99.91,2.06c-5.53,1.07-10.97,2.55-16.31,4.35-1.62.55-2.69,2.18-2.22,3.9.44,1.58,2.27,2.77,3.9,2.22,19.83-6.69,41.12-8.67,61.08-2.6,4.84,1.47,8.57,2.99,12.95,5.28,2.08,1.09,4.11,2.27,6.09,3.55,1.84,1.19,4.04,2.77,5.36,3.82,7.95,6.31,14.14,13.7,19.12,22.33,5.38,9.32,9.11,19.52,11.78,29.99,2.5,9.8,3.73,19,3.45,29.2-.13,4.94-.56,8.99-1.41,13.46s-2.06,8.87-3.64,13.13c-.35.94-.72,1.87-1.09,2.79s.25-.56-.15.34c-.12.27-.24.55-.36.82-.24.55-.49,1.09-.75,1.63-.94,1.98-1.96,3.92-3.06,5.81s-2.4,3.91-3.73,5.79c-.29.41-.58.81-.88,1.22-.12.17-.88,1.17-.6.8-.74.96-1.51,1.9-2.29,2.82-2.98,3.49-6.25,6.71-9.77,9.66-1.94,1.63-3.18,2.57-5.31,4.07-1.97,1.38-4,2.69-6.07,3.92-8.74,5.18-17.69,8.74-27.53,11.39-4.45,1.2-8.97,2.15-13.53,2.83-1.42.21-1.41.21-2.83.38-1.17.14-2.35.26-3.53.36-2.29.2-4.6.33-6.9.38-4.51.11-9.03-.06-13.51-.54-.55-.06-1.1-.12-1.65-.19.04,0-.94-.12-.48-.06s-.51-.07-.47-.07c-1.19-.17-2.38-.36-3.56-.58-2.16-.39-4.3-.86-6.43-1.41s-4.31-1.19-6.42-1.92c-.98-.34-1.96-.69-2.93-1.06-.51-.2-1.01-.4-1.52-.6-.23-.09-.46-.19-.69-.28.58.24-.51-.22-.61-.26-4.04-1.78-7.94-3.89-11.62-6.33-.88-.58-1.74-1.18-2.59-1.79-1.21-.88-1.53-1.13-2.47-1.89-1.74-1.41-3.42-2.89-5.03-4.45s-3.21-3.25-4.7-4.98c-1.75-2.03-2.72-3.28-4.22-5.41-6.14-8.73-9.95-17.95-13.02-28.03-1.59-5.21-2.95-10.49-4.02-15.83-1-5.02-1.59-8.98-1.99-13.92-.37-4.56-.47-9.14-.22-13.71.12-2.11.31-4.22.58-6.32.12-.94-.1.65.04-.28.04-.28.08-.56.12-.84.07-.46.15-.92.23-1.38.19-1.09.4-2.19.63-3.27.84-3.87,1.98-7.68,3.44-11.36.1-.25.2-.49.3-.74.33-.82-.26.59.09-.22.18-.4.35-.81.53-1.21.44-.96.89-1.91,1.37-2.85.88-1.72,1.83-3.4,2.85-5.04s2.12-3.25,3.28-4.8c.16-.21.32-.42.48-.64-.44.58.1-.12.16-.2.28-.35.55-.7.84-1.04.68-.83,1.38-1.65,2.1-2.44,2.7-3.01,5.65-5.79,8.78-8.35.44-.36.88-.71,1.33-1.06.48-.38.13-.11.03-.03.23-.18.45-.35.68-.52.92-.7,1.86-1.38,2.81-2.04,1.79-1.25,3.61-2.43,5.48-3.55,4.02-2.43,8.21-4.59,12.49-6.53s8.49-3.54,13.12-5.11c1.62-.55,2.69-2.18,2.22-3.9-.43-1.58-2.27-2.77-3.9-2.22h0Z"/>
        </g>
        <g>
          <path class="cls-1" d="M104.26,88.56c-16.92,7.93-35.52,10.95-53.11,16.91-7.83,2.65-35.11,12.26-39.1,16.53-7.5,7.99,8.06,32.47,14.52,29.94,20.2-7.93,54.1-17.22,68.76-22.2,38.13-12.91,71.69-26.47,109.81-39.38,15.64-5.3,20.75-5.91,13.9-26.51-5.3-15.98-14.78-11.49-46.67.56-19.33,7.3-48.56,17.54-68.11,24.15"/>
          <path class="cls-3" d="M102.65,85.82c-10.13,4.72-20.97,7.65-31.73,10.56-8.51,2.3-16.97,4.72-25.3,7.64-6.67,2.34-13.31,4.78-19.85,7.46-3.24,1.33-6.48,2.69-9.63,4.24-2.12,1.05-4.39,2.17-6.13,3.81-4.63,4.36-3.37,11.89-1.37,17.18,2.2,5.83,5.7,11.94,10.65,15.87,2.13,1.69,4.81,3.24,7.64,2.55,1.58-.38,3.12-1.16,4.65-1.73,1.99-.74,3.99-1.45,6-2.15,8.75-3.04,17.59-5.81,26.45-8.52,8.08-2.48,16.17-4.88,24.24-7.4,9.17-2.86,18.24-6.07,27.29-9.29,21.92-7.8,43.67-16.08,65.56-23.94,9.99-3.59,20.05-6.98,30.08-10.46,5.19-1.8,11.02-3.89,13.16-9.44,1.06-2.73.87-5.73.47-8.58-.56-3.91-1.72-7.79-3.05-11.49-1.73-4.83-4.45-9.34-9.55-11.07s-11.1-.12-16.08,1.37c-8.69,2.6-17.11,6.08-25.59,9.27-18.18,6.84-36.51,13.27-54.87,19.6-4.1,1.41-8.2,2.81-12.3,4.2-1.62.55-2.69,2.18-2.22,3.9.43,1.58,2.27,2.77,3.9,2.22,17.79-6.02,35.52-12.22,53.18-18.63,8.79-3.19,17.53-6.54,26.29-9.81,6.58-2.46,13.26-5.1,20.22-6.28.89-.15-.35.02.19-.03.3-.03.59-.07.89-.09.59-.05,1.18-.07,1.77-.07.49,0,.97.08,1.46.09.4,0-.73-.15-.36-.05.13.03.27.04.4.07.23.05.46.09.69.15.1.02,1.24.35,1.23.4,0,.03-.84-.4-.01.02.22.11.43.24.64.37.1.06.52.27.55.38,0,.03-.65-.57-.29-.22.07.07.16.13.23.2.35.32.67.65.99.99.09.1.16.22.26.31.28.25-.4-.58-.19-.25.14.21.3.41.44.63.3.45.58.92.83,1.4s.47,1.01.73,1.51c.21.41-.29-.75-.04-.09.05.13.11.27.16.4.13.35.26.69.39,1.04,1.27,3.62,2.38,7.36,2.96,11.15.07.48-.06-.56-.02-.09.02.2.04.4.06.6.03.31.05.61.06.92.03.63,0,1.25-.03,1.88-.05.92.13-.5-.02.19-.05.26-.1.52-.17.78-.06.22-.13.43-.2.65-.24.78.34-.55-.06.15-.11.19-.2.38-.31.56-.06.1-.56.83-.2.33s-.16.18-.27.29c-.19.2-.38.39-.59.57-.33.3-.51.38-.01.04-.22.15-.43.31-.65.46-.5.33-1.02.62-1.55.9-.49.25-1,.47-1.5.71s.08-.03.15-.06c-.17.07-.35.14-.52.21-.36.15-.73.29-1.1.42-1.44.54-2.9,1.04-4.36,1.53-4.94,1.66-9.87,3.35-14.78,5.07-21.25,7.43-42.32,15.4-63.47,23.11-17.69,6.45-35.43,12.67-53.44,18.13-16.57,5.03-33.3,9.83-49.45,16.11-.26.1-.62.18-.86.32-.46.27.79-.06.25-.03-.82.05.05-.18.15.07-.01-.04-.58-.14-.67-.16-.09-.03-.18-.07-.28-.1-.49-.13.37.14.34.14-.15.02-.54-.27-.65-.34-.23-.13-.45-.27-.66-.42-.1-.07-.2-.15-.3-.21-.5-.31.53.46.04.03-.95-.83-1.86-1.68-2.7-2.63-.24-.27-.47-.54-.69-.81-.13-.15-.71-.91-.26-.32-.46-.61-.9-1.23-1.33-1.86-.88-1.32-1.69-2.69-2.42-4.09-.35-.67-.67-1.36-.98-2.04-.07-.15-.3-.71-.05-.09-.07-.16-.13-.32-.2-.49-.16-.4-.32-.81-.46-1.22-.5-1.41-.89-2.85-1.17-4.33-.03-.15-.05-.31-.08-.47.02.09.07.73.02.15-.02-.3-.06-.6-.08-.9-.04-.69-.02-1.36.02-2.05.04-.75-.16.63.04-.27.06-.26.11-.51.18-.77s.17-.48.24-.73c-.28.9.02,0,.17-.26.07-.12.61-.85.28-.45s.15-.15.26-.25.25-.2.35-.31c.31-.35-.35.33-.34.25.01-.07.27-.21.34-.25,2.07-1.4,4.32-2.49,6.58-3.54.65-.3,1.29-.59,1.94-.88.38-.17.76-.34,1.15-.5.22-.09.43-.19.65-.28.07-.03.77-.33.42-.18s.22-.09.29-.12c.23-.09.45-.19.68-.28.37-.15.74-.3,1.1-.45.84-.34,1.69-.68,2.54-1.02,3.39-1.34,6.79-2.63,10.21-3.89,6.29-2.31,12.61-4.54,19.04-6.45,10.38-3.08,20.94-5.53,31.23-8.91,5.19-1.71,10.29-3.67,15.24-5.98,1.55-.72,1.95-2.96,1.14-4.34-.93-1.59-2.78-1.86-4.34-1.14h0Z"/>
        </g>
        <g>
          <path class="cls-3" d="M82.12,34.98c2.77-1.4,4.81-2.29,7.42-3.29s5.53-1.96,8.35-2.75,5.9-1.5,8.9-2.03c.7-.12,1.4-.24,2.1-.35.38-.06.76-.11,1.14-.17s.04,0-.03,0c.27-.04.54-.07.81-.1,1.46-.18,2.93-.32,4.4-.43,3.03-.21,6.07-.27,9.1-.14,1.5.07,3,.18,4.49.33.32.03.64.07.95.11.21.03.42.05.63.08-.07,0-.43-.06-.05,0,.79.12,1.57.24,2.35.38,2.83.51,5.62,1.22,8.34,2.14.64.22,1.27.44,1.89.69.34.13.67.26,1.01.4s.01,0-.05-.02c.24.1.47.2.71.31,1.31.58,2.6,1.23,3.85,1.93,1.39.78,2.73,1.62,4.03,2.54.34.24.67.48.99.73,0,0,.41.32.17.13-.21-.17.24.2.29.23.64.52,1.27,1.06,1.89,1.62,2.54,2.31,4.53,4.66,6.25,7.22.95,1.42,2.8,2.04,4.34,1.14,1.41-.83,2.1-2.91,1.14-4.34-7.15-10.66-18.24-17.54-30.68-20.32s-25.74-1.95-38.13,1.14c-6.84,1.71-13.5,4.18-19.8,7.35-1.53.77-1.97,2.93-1.14,4.34.91,1.56,2.81,1.91,4.34,1.14h0Z"/>
          <path class="cls-3" d="M72.03,162.65c9.57,5.83,20.11,10.42,31.27,12.04,10.99,1.59,22.06.49,32.67-2.72,6.99-2.12,13.73-5.06,20.22-8.4,1.52-.78,1.97-2.92,1.14-4.34-.9-1.55-2.81-1.93-4.34-1.14-10.01,5.15-21.09,9.41-32.13,10.63-10.11,1.11-19.69-.1-29.24-3.51-5.72-2.04-11.16-4.85-16.38-8.03-3.5-2.13-6.69,3.36-3.2,5.48h0Z"/>
        </g>
      </g>
    </g>
  </g>
</svg>