<?xml version="1.0" encoding="UTF-8"?>
<svg id="mic" xmlns="http://www.w3.org/2000/svg" version="1.1" viewBox="0 0 276.5 588.4">
  <!-- Generator: Adobe Illustrator 29.2.1, SVG Export Plug-In . SVG Version: 2.1.0 Build 116)  -->
  <defs>
    <style>
      .st0 {
        fill: #3e2c7a;
      }

      .st1 {
        fill: #6db1c9;
      }

      .st2 {
        fill: #6c58b0;
      }

      .st3 {
        fill: #2f215c;
      }

      .st4 {
        fill: #a56eff;
      }

/* Our Own Styling */

#mic {
    transition: all 1s ease;
}

#micwire {
    transition: all 0.75s ease;
}

#michead {
    transition: all 0.75s ease;
    transform-origin: center;
}

#mic:hover {
  animation: shake 2s;
  animation-iteration-count: infinite;
  filter: contrast(200%);
  filter: drop-shadow(-3px -3px 3px blue);
}
@keyframes shake {
  0% { transform: rotate(15deg); }
  50% { transform: rotate(0deg); }
  100% { transform: rotate(15deg); }
}
    </style>
  </defs>
  <g id="micwire">
    <path id="micwirewire" class="st3" d="M245.2,481.5c3.9,9.7,7.7,19.5,10.5,29.6,1.5,5.3,2.7,10.7,3.4,16.1,0,.6,0,0,0,0,0,.2,0,.4,0,.5,0,.3,0,.6.1,1,0,.7.1,1.4.2,2,.1,1.3.2,2.7.3,4.1.1,2.6,0,5.2-.1,7.7,0,.7-.1,1.3-.2,2,0,.3,0,.6-.1.9,0,0,0,.5,0,0,0-.5,0,.3,0,.3-.2,1.3-.4,2.5-.7,3.8s-.6,2.4-1,3.6c-.2.6-.4,1.1-.6,1.7-.1.3-.2.6-.3.8,0,.2-.1.3-.2.5-.2.6.1-.3,0,0-1,2.3-2.2,4.6-3.7,6.7-.4.5-.7,1-1.1,1.5-.3.4.2-.3-.2.3-.2.3-.4.5-.7.8-.9,1-1.8,2-2.8,3s-2,1.8-3.1,2.7c0,0-.5.4,0,0-.1,0-.2.2-.4.3-.3.2-.6.4-.8.6-.7.5-1.3.9-2,1.4-2.6,1.7-5.7,3.3-8.4,4.4-2.5,1-5.5,2-8.2,2.7-1.2.3-2.5.6-3.7.8-.3,0-.6,0-.9.1-.2,0-1.2.2-.4,0-.6,0-1.2.1-1.9.2-2.3.2-4.6.2-7,0-.5,0-1.1-.1-1.6-.2.6,0,.2,0-.2,0s-.7-.1-1-.2c-1.1-.2-2.1-.4-3.1-.7s-2-.6-3-1c-.5-.2-1-.4-1.5-.6-.3-.1.2.1.3.1-.1,0-.3-.1-.4-.2-.3-.1-.5-.2-.8-.4-1.9-.9-3.8-2-5.6-3.2-.4-.3-.9-.6-1.3-.9-.2-.2-.4-.3-.6-.5-.2-.2-.8-.6-.2-.2-.9-.7-1.8-1.4-2.6-2.2-1.7-1.5-3.3-3.2-4.8-4.9-.8-.9-1.6-1.8-2.3-2.7-.2-.2-.4-.4-.5-.7,0,0-.1-.2-.2-.3-.3-.4.3.4,0,0-.4-.5-.7-1-1.1-1.5-1.5-2-2.8-4-4.1-6.2-2.7-4.4-5.1-9-7.3-13.7-.6-1.2-1.1-2.5-1.7-3.7-.1-.3-.2-.6-.4-.9,0-.2-.4-.9-.3-.6s-.2-.5-.3-.6c-.1-.3-.3-.7-.4-1-1-2.5-2-5.1-2.9-7.6-3.7-10.2-6.8-20.6-9.6-31.1-2.4-9.1-4.5-18.3-6.8-27.4-1.8-7-3.4-14-4.9-21.1-1.7-8.4-3.2-16.8-4.7-25.3-1.7-9.4-3.3-18.7-5.1-28.1-1.8-9.9-3.8-19.7-5.9-29.5s-4.6-19.9-7.3-29.7-5.6-18.9-9.1-28.2-7.2-17.6-11.7-26c-4.2-7.7-9-15.1-14.7-21.8-5.2-6.2-11.3-11.7-18.1-16.1s-14.2-7.5-22-9.2c-8.9-1.9-18-1.9-26.9-.6-4.8.7-9.5,1.7-14.1,3.1-3.9,1.1-2.2,7.2,1.7,6.1,2.5-.7,5-1.4,7.5-1.9,1.2-.2,2.4-.5,3.5-.7.6-.1,1.2-.2,1.8-.3.2,0,.5,0,.7-.1.2,0,.3,0,.5,0,.6,0-.4,0,0,0,4.4-.6,8.9-.8,13.4-.6,1,0,2.1.1,3.1.2.5,0,1,.1,1.6.1.2,0,.4,0,.6,0,.2,0,1.1.1.6,0s.2,0,.4,0c.2,0,.5,0,.7.1.5,0,1,.2,1.5.3,1,.2,2,.4,3,.6,2,.5,3.9,1,5.8,1.6.9.3,1.8.6,2.7,1,.5.2.9.4,1.4.6-.4-.2-.4-.2,0,0,.3.1.5.2.8.4,3.5,1.6,6.9,3.5,10.1,5.7.8.5,1.6,1.1,2.3,1.7.2.1.4.3.6.4.4.3-.5-.4.1.1.4.3.8.6,1.2.9,1.5,1.2,3,2.6,4.4,3.9,2.9,2.8,5.7,5.8,8.2,9,.3.4.6.8.9,1.2.5.6-.3-.3,0,.1.2.2.3.5.5.7.6.9,1.3,1.7,1.9,2.6,1.3,1.8,2.5,3.6,3.6,5.4,4.9,7.7,8.9,15.8,12.5,24.1.1.3.2.5.3.8-.2-.6,0,0,0,.2.2.6.5,1.1.7,1.7.5,1.1.9,2.2,1.3,3.4.9,2.3,1.8,4.6,2.6,6.9,1.7,4.6,3.2,9.3,4.7,14,3,9.7,5.6,19.6,7.9,29.5s4.4,19.9,6.3,29.8,3.6,19.2,5.3,28.9c1.6,8.9,3.1,17.7,4.8,26.6,1.4,7.6,2.9,15.2,4.8,22.7,2,8.1,4,16.2,6.1,24.3,2.6,10.3,5.3,20.6,8.6,30.7,3.4,10.5,7.3,20.9,12.3,30.7,4.5,8.9,10,17.5,17.2,24.5,6.6,6.4,14.7,11.4,23.9,13,11.1,1.9,22.4-.7,32.4-5.6,10.6-5.2,19.2-13.6,23.5-24.7,4-10.2,3.9-21.5,2.4-32.2s-4.8-21.5-8.6-31.8c-1.7-4.6-3.5-9.2-5.3-13.7-.6-1.6-2.1-2.7-3.9-2.2-1.5.4-2.9,2.3-2.2,3.9h0Z"/>
    <g id="micwireknob">
      <path class="st2" d="M215,444.5c7.8,23.5,10.4,63,40.7,49.4,22.8-9.9,4.7-47.4-3.9-63"/>
      <path class="st3" d="M211.9,445.4c3.2,9.8,5.1,19.9,8.3,29.6,2.8,8.5,6.9,18.5,15.4,22.8,4.4,2.2,9.3,2.5,14.1,1.5,5.2-1.1,10.8-3.5,14.4-7.5,7.4-8.1,6.4-20.1,3.9-29.9-2.6-10.4-7.1-20.4-12.2-29.9-.5-.9-.9-1.8-1.4-2.7-2-3.6-7.4-.4-5.5,3.2,2.1,3.9,4.1,7.8,6,11.8.5,1.2,1.1,2.4,1.6,3.5,0,.1.1.3.2.4,0,0,.3.6.1.3-.1-.2.2.4.2.6.3.6.5,1.3.8,1.9,1,2.5,1.9,5.1,2.7,7.6s1.5,5,2,7.6c.1.6.2,1.2.4,1.8,0,.3.1.7.2,1,0,.2.1,1,.1.7s0,.5,0,.7c0,.3,0,.5,0,.8,0,.6.1,1.3.1,1.9,0,1.2,0,2.4,0,3.6,0,.5,0,1.1-.1,1.7,0,.3-.1.7,0,.2,0,.3-.1.6-.2,1-.2,1-.5,2-.8,3,0,.3-.2.5-.3.8,0,.1,0,.2-.1.3,0,0,.2-.5,0-.2-.2.5-.5,1-.7,1.5-.2.4-.5.9-.8,1.3,0,.1-.1.2-.2.3-.2.4.4-.4,0,0-.2.2-.4.4-.5.6-.3.4-.7.8-1.1,1.1-.2.2-.4.4-.6.6,0,0-.2.2-.3.2-.4.3.4-.3,0,0-1,.7-2,1.3-3.1,1.8-1.2.6-1.9.9-3.4,1.4-1.2.4-2.4.8-3.7,1-.3,0-.5.1-.8.1-.3,0-.7,0-.2,0-.6,0-1.1.1-1.7.1-.5,0-1,0-1.5,0-.3,0-.5,0-.8,0-.1,0-.2,0-.3,0-.4,0,.6.1.2,0-.9-.2-1.9-.4-2.8-.7-.2,0-.4-.1-.6-.2-.5-.2.6.3,0,0-.4-.2-.9-.4-1.3-.7-.4-.2-.8-.5-1.1-.7-.2-.1-.3-.2-.5-.4.6.4.1,0-.2-.1-.7-.6-1.4-1.2-2-1.9-.3-.4-.6-.7-.9-1.1-.5-.6.2.3-.1-.1-.1-.2-.3-.4-.5-.6-1.2-1.8-2.3-3.6-3.2-5.5-.2-.5-.5-1-.7-1.5-.1-.2-.2-.5-.3-.7,0-.1-.2-.6,0,0,0-.2-.1-.3-.2-.5-.4-1.1-.9-2.2-1.3-3.3-3.3-9.3-5.2-19-8-28.4-.3-1.1-.7-2.2-1-3.3-.5-1.6-2.2-2.7-3.9-2.2-1.6.4-2.8,2.3-2.2,3.9h0Z"/>
    </g>
  </g>
  <g id="michandle">
    <g id="michandleblue">
      <path class="st1" d="M96,179.4c35.7,87.9,42.8,119.9,67.9,184.2,6.5,19.1,30,87.4,35,93.6,3.5,4.3,43.1-7.7,74.5-21.4-32-98.2-62.6-194.4-93.9-287"/>
      <path class="st3" d="M93,180.2c6.8,16.6,13.3,33.4,19.7,50.2,4.9,13.2,9.7,26.4,14.4,39.6,4.1,11.6,8,23.2,12.1,34.8s8.2,23.4,12.5,35.1c4,10.8,8.2,21.4,11.9,32.2,3.5,10.2,7.1,20.5,10.7,30.7,3.9,11.1,7.9,22.3,12.1,33.3,1.7,4.4,3.4,8.7,5.2,13,1.2,2.9,2.4,5.8,3.9,8.5.6,1.1,1.3,2.1,2.5,2.7,1.5.8,3.4.9,5.1.9,5.1-.1,10.2-1.4,15.1-2.6,15.4-3.9,30.4-9.2,45.1-15.1,4-1.6,7.9-3.2,11.8-5,1.2-.5,1.9-2.4,1.5-3.6-6.2-19.1-12.4-38.2-18.6-57.3s-12.2-37.8-18.4-56.7-12.1-37.4-18.2-56.1c-6-18.5-12.1-37-18.2-55.4s-12.1-36.5-18.3-54.7c-.8-2.2-1.5-4.5-2.3-6.7-.6-1.6-2.2-2.7-3.9-2.2-1.6.4-2.8,2.3-2.2,3.9,6.2,18.2,12.2,36.4,18.3,54.6s12.2,36.9,18.2,55.3c6.1,18.7,12.2,37.4,18.2,56s12.2,37.8,18.3,56.6c6.2,19.1,12.3,38.1,18.6,57.2.8,2.4,1.5,4.8,2.3,7.1l1.5-3.6c-14.9,6.5-30.3,12.2-45.9,16.8-5.9,1.8-11.9,3.4-18,4.5-.5,0-1.1.2-1.6.3-.4,0-.9.1-.2,0-.3,0-.5,0-.8.1-.9.1-1.8.2-2.7.2-.4,0-.7,0-1.1,0-.1,0-.3,0-.4,0,0,0,.8.2.2,0-.1,0-.6-.2-.7-.2.1,0,.9.4.4.2-.5-.3.6.5.3.3-.5-.5.4.7.2.3-.1-.2-.2-.3-.3-.5-.3-.4-.5-.8-.7-1.3-.6-1.2-1.2-2.5-1.8-3.7-.4-.8-.7-1.6-1-2.4,0-.2-.4-1,0,0,0-.2-.2-.4-.3-.6-.2-.5-.4-1-.6-1.5-.9-2.1-1.7-4.2-2.5-6.3-4.1-10.6-8-21.3-11.8-32s-7.5-21.2-11.1-31.8c-1.3-3.8-2.6-7.5-3.9-11.3-2.1-6.1-4.6-12.1-6.9-18.2-4.4-11.8-8.6-23.6-12.8-35.5s-7.8-22.7-11.8-34c-4.4-12.6-8.9-25.2-13.5-37.8-5.8-15.6-11.7-31.1-17.9-46.5-1.8-4.5-3.6-9-5.4-13.4-.6-1.6-2.1-2.7-3.9-2.2-1.5.4-2.9,2.3-2.2,3.9h0Z"/>
    </g>
    <g id="michandlepurple2">
      <path class="st4" d="M158.7,216.6c-22.8,4.6,4.9,81.1,24.5,74.5,18.3-6.2-5.1-81.1-24.5-74.5"/>
      <path class="st3" d="M157.9,213.6c-5.6,1.2-8.9,6.2-10.1,11.5-1.5,6.7-.7,13.8.6,20.5,1.5,7.8,4.1,15.4,7.3,22.6,2.9,6.6,6.5,13.1,11.3,18.5,3.5,4,8.4,8.1,14,8s9.5-4.6,11-9.8c1.8-6.5,1.2-13.5.2-20.1-1.2-7.7-3.3-15.4-6.1-22.6-2.6-6.9-5.8-13.7-10.3-19.6-3.5-4.5-8.1-9.2-14.1-9.5-1.2,0-2.5.1-3.7.5-1.6.5-2.7,2.2-2.2,3.9.4,1.6,2.3,2.8,3.9,2.2.4-.1,1-.1,1.4-.3-.5.3-.8,0-.3,0,.1,0,.2,0,.4,0,.2,0,.5,0,.8,0,.1,0,.2,0,.4,0,.5,0-.9-.2-.3,0,.2,0,.4,0,.6.1.2,0,.5.1.8.2,0,0,.2,0,.2,0,.8.2-.1,0-.1,0,.1-.2,2.6,1.6,2.9,1.7.5.3-.6-.5-.1-.1,0,0,.2.1.2.2.2.2.5.4.7.6.5.5,1,.9,1.5,1.4s.9,1,1.3,1.5c.2.2.4.5.6.7.1.1.5.7,0,0,.2.2.3.4.5.6.9,1.2,1.7,2.5,2.5,3.8,1.8,3,3.4,6.1,4.9,9.3.2.4.4.8.5,1.2,0,.2.3.7,0,0,0,.2.2.4.3.7.4.9.7,1.8,1.1,2.7.7,1.8,1.3,3.6,1.9,5.4,1.1,3.5,2.1,7.1,2.9,10.7.4,1.8.7,3.6,1,5.4,0,.5.1.9.2,1.4,0,.6,0,0,0-.2,0,.2,0,.5,0,.7.1.9.2,1.8.3,2.6.3,3.1.4,6.2,0,9.2,0,.3,0,.6-.1.9.1-1.1,0,0,0,.4-.1.6-.2,1.2-.4,1.9-.1.5-.3,1.1-.5,1.6,0,.2-.1.6-.3.8.2-.2.3-.7,0-.2,0,.1-.1.2-.2.4-.2.4-.5.9-.7,1.3,0,.1-.2.2-.2.3-.3.5.6-.6.2-.2-.2.2-.3.4-.5.6s-.4.3-.5.5c-.5.5.7-.4,0,0-.2.1-.4.3-.6.4,0,0-.1,0-.2.1-.6.4.2,0,.2,0,0,.2-1.2.4-1.3.4-.8.2.5,0,.1,0-.3,0-.6,0-.9,0s-.4,0-.6,0c-.7,0,.9.2,0,0-.5-.1-1-.2-1.5-.4,0,0-.2,0-.2,0-.6-.2.3.1.2.1,0,0-.7-.3-.8-.4-.5-.3-1-.5-1.5-.9-.2-.2-.5-.3-.7-.5-.1,0-.2-.2-.4-.3.7.5.4.3.3.2-.5-.4-1-.9-1.5-1.3-1-1-2-2-2.9-3.1-.2-.3-.5-.6-.7-.9,0-.1-.2-.2-.2-.3-.4-.5.4.6,0,0-.5-.7-1-1.3-1.4-2-1.9-2.8-3.7-5.8-5.2-8.9-.8-1.6-1.6-3.2-2.3-4.9-.2-.4-.4-.8-.5-1.2.3.8-.2-.4-.2-.6-.4-.9-.7-1.8-1.1-2.7-1.3-3.5-2.5-7.1-3.4-10.7-.5-1.8-.9-3.5-1.2-5.3-.2-.8-.3-1.6-.5-2.5,0-.4-.1-.7-.2-1.1,0-.2,0-.4-.1-.7-.1-.9,0,.3,0-.2-.4-3.1-.6-6.1-.4-9.2,0-.7.1-1.3.2-2,0-.2.1-.9,0,.1,0-.2,0-.3,0-.5,0-.3.1-.7.2-1,.1-.6.3-1.2.4-1.7.1-.4.3-1.4.6-1.7-.4.4-.3.6,0,.2,0,0,0-.2.1-.3.1-.3.2-.5.4-.8.1-.2.2-.4.4-.6,0-.1.1-.2.2-.3.4-.6,0,.1,0,.1,0,0,.9-1,1-1.1s.5-.3.5-.4c0,.3-.7.5-.2.2.1,0,.3-.2.4-.3.2-.1.4-.2.6-.3.1,0,.2-.1.4-.2.4-.2-.7.2-.3.1.5,0,1-.3,1.5-.4,1.7-.4,2.6-2.3,2.2-3.9-.5-1.7-2.2-2.6-3.9-2.2h0Z"/>
    </g>
    <g id="michandlepurple1">
      <path class="st0" d="M190.5,313c-9.1,3.1-12.4,9.5-8.9,19.7,2.9,8.7,11.7,10.5,18.9,8,9.1-3.1,12.1-11.5,8.1-20.8-3.1-7-10.3-9.5-18.1-6.9"/>
      <path class="st3" d="M189.6,309.9c-3.3,1.1-6.6,2.8-8.9,5.5s-3.5,5.8-3.7,9.3c-.4,7.4,3.2,15.7,10.3,18.8s15.2,1.2,20.8-3.5c5.8-5,6.5-13.4,3.8-20.2-1.7-4.3-4.6-7.8-9-9.6s-9-1.6-13.3-.2c-1.6.5-2.7,2.2-2.2,3.9.4,1.6,2.3,2.8,3.9,2.2.8-.3,1.6-.5,2.4-.6.9-.2,1-.2,2-.2.7,0,1.5,0,2.2,0-.4,0,.3,0,.5,0,.4,0,.9.2,1.3.3.3,0,.6.2.9.3-.4-.2.3.1.4.2.3.2.7.4,1,.5.1,0,.9.6.5.3.6.4,1.1.9,1.5,1.5.1.1.2.2.3.4,0,0-.2-.3,0,0,.3.4.5.8.7,1.2.8,1.3,1.2,2.6,1.6,4.1,0,.3.2.7.2,1,0,.1.2.9.1.5.1.8.1,1.5.1,2.3,0,.4,0,.7,0,1.1s0,0,0,0c0,.1,0,.3,0,.5-.1.7-.3,1.4-.5,2,0,.1-.1.3-.1.4,0,0,.2-.4,0,0-.1.3-.3.6-.5.9-.1.3-.3.5-.5.8,0,.1-.2.2-.2.4-.2.3.2-.2-.1.2-1.9,2-3.7,3.1-6.4,3.9-.6.2-1.3.3-2,.4-.6.1.2,0-.4,0-.4,0-.8,0-1.2,0-.7,0-1.3,0-2,0-.1,0-.3,0-.4,0,0,0,.5,0,.1,0-.4,0-.8-.1-1.2-.2-.6-.1-1.1-.3-1.7-.5-.5-.2.4.2,0,0-.1,0-.3-.1-.4-.2-.3-.2-.6-.3-.9-.5-.1,0-.9-.6-.5-.3-.2-.2-.5-.4-.7-.6s-.4-.4-.6-.7c-.1-.1-.3-.3-.4-.5.2.3,0,0,0-.1-1-1.4-1.4-2.4-1.8-3.9-.2-.8-.4-1.5-.6-2.3,0-.3-.1-.7-.2-1,0,0,0-.5,0-.2,0,.3,0-.3,0-.4,0-.8,0-1.5,0-2.3,0-.2.1-1.2,0-.6,0-.3.1-.6.2-1,0-.4.2-.7.3-1,.2-.7-.1.1.1-.4.3-.6.6-1.1,1-1.7.2-.3,0,0-.1.1.1-.2.3-.3.4-.5.2-.2.4-.5.7-.7.3-.3.6-.5.8-.7-.4.3.3-.2.4-.3,1.5-1,2.6-1.5,4-2,1.6-.6,2.7-2.2,2.2-3.9-.4-1.6-2.3-2.8-3.9-2.2h0Z"/>
    </g>
    <g id="michandlelines">
      <path class="st3" d="M185.9,415c18.5-6.3,37.4-11.5,56.1-17.2,5.1-1.6,10.2-3.2,15.3-4.9,1.6-.5,2.7-2.2,2.2-3.9-.4-1.6-2.3-2.8-3.9-2.2-18.5,6.3-37.4,11.5-56.1,17.2-5.1,1.6-10.2,3.2-15.3,4.9-1.6.5-2.7,2.2-2.2,3.9.4,1.6,2.3,2.8,3.9,2.2h0Z"/>
      <path class="st3" d="M191.2,430.6c18.5-6.3,37.4-11.5,56.1-17.2,5.1-1.6,10.2-3.2,15.3-4.9,1.6-.5,2.7-2.2,2.2-3.9-.4-1.6-2.3-2.8-3.9-2.2-18.5,6.3-37.4,11.5-56.1,17.2-5.1,1.6-10.2,3.2-15.3,4.9-1.6.5-2.7,2.2-2.2,3.9.4,1.6,2.3,2.8,3.9,2.2h0Z"/>
    </g>
  </g>
  <g id="michead">
    <g id="micheadpurple">
      <path class="st2" d="M84.4,9.5C27.5,28.7,7.1,69.1,28.6,132.6c18.5,54.5,72.8,65.3,118.3,49.9,56.8-19.3,75.7-71.8,50.4-129.9C178.1,8.7,132.8-6.9,84.4,9.5"/>
      <path class="st3" d="M83.6,6.4c-17.8,6.1-35.5,15.1-48,29.4-11.5,13.1-17.5,29.5-18.4,46.8-.5,9.9.6,20,2.6,29.7,2.2,11,5.5,22,10.3,32.2,8.4,17.8,22.9,32.2,41,40,17.6,7.5,37.1,8.9,55.9,6.1,20-3.1,39.8-11,55.3-24.1,14.5-12.3,24.4-29.4,27.8-48.2,3.7-20.9,0-42.4-7.7-62-4.1-10.4-9.5-20.1-16.9-28.6-6.6-7.5-14.6-13.8-23.4-18.3C142.8-.4,120.8-2,99.9,2.1c-5.5,1.1-11,2.5-16.3,4.3-1.6.6-2.7,2.2-2.2,3.9.4,1.6,2.3,2.8,3.9,2.2,19.8-6.7,41.1-8.7,61.1-2.6,4.8,1.5,8.6,3,12.9,5.3,2.1,1.1,4.1,2.3,6.1,3.5,1.8,1.2,4,2.8,5.4,3.8,7.9,6.3,14.1,13.7,19.1,22.3,5.4,9.3,9.1,19.5,11.8,30,2.5,9.8,3.7,19,3.4,29.2-.1,4.9-.6,9-1.4,13.5s-2.1,8.9-3.6,13.1c-.4.9-.7,1.9-1.1,2.8s.2-.6-.1.3c-.1.3-.2.6-.4.8-.2.6-.5,1.1-.8,1.6-.9,2-2,3.9-3.1,5.8s-2.4,3.9-3.7,5.8c-.3.4-.6.8-.9,1.2-.1.2-.9,1.2-.6.8-.7,1-1.5,1.9-2.3,2.8-3,3.5-6.2,6.7-9.8,9.7-1.9,1.6-3.2,2.6-5.3,4.1-2,1.4-4,2.7-6.1,3.9-8.7,5.2-17.7,8.7-27.5,11.4-4.4,1.2-9,2.1-13.5,2.8-1.4.2-1.4.2-2.8.4-1.2.1-2.3.3-3.5.4-2.3.2-4.6.3-6.9.4-4.5.1-9,0-13.5-.5-.6,0-1.1-.1-1.7-.2,0,0-.9-.1-.5,0s-.5,0-.5,0c-1.2-.2-2.4-.4-3.6-.6-2.2-.4-4.3-.9-6.4-1.4s-4.3-1.2-6.4-1.9c-1-.3-2-.7-2.9-1.1-.5-.2-1-.4-1.5-.6-.2,0-.5-.2-.7-.3.6.2-.5-.2-.6-.3-4-1.8-7.9-3.9-11.6-6.3-.9-.6-1.7-1.2-2.6-1.8-1.2-.9-1.5-1.1-2.5-1.9-1.7-1.4-3.4-2.9-5-4.4s-3.2-3.2-4.7-5c-1.8-2-2.7-3.3-4.2-5.4-6.1-8.7-10-17.9-13-28-1.6-5.2-3-10.5-4-15.8-1-5-1.6-9-2-13.9-.4-4.6-.5-9.1-.2-13.7.1-2.1.3-4.2.6-6.3.1-.9-.1.7,0-.3,0-.3,0-.6.1-.8,0-.5.1-.9.2-1.4.2-1.1.4-2.2.6-3.3.8-3.9,2-7.7,3.4-11.4.1-.2.2-.5.3-.7.3-.8-.3.6,0-.2.2-.4.4-.8.5-1.2.4-1,.9-1.9,1.4-2.8.9-1.7,1.8-3.4,2.8-5s2.1-3.2,3.3-4.8c.2-.2.3-.4.5-.6-.4.6,0-.1.2-.2.3-.3.5-.7.8-1,.7-.8,1.4-1.7,2.1-2.4,2.7-3,5.7-5.8,8.8-8.4.4-.4.9-.7,1.3-1.1.5-.4.1-.1,0,0,.2-.2.5-.4.7-.5.9-.7,1.9-1.4,2.8-2,1.8-1.2,3.6-2.4,5.5-3.5,4-2.4,8.2-4.6,12.5-6.5s8.5-3.5,13.1-5.1c1.6-.6,2.7-2.2,2.2-3.9-.4-1.6-2.3-2.8-3.9-2.2h0Z"/>
    </g>
    <g id="micheadblue">
      <path class="st1" d="M104.3,88.6c-16.9,7.9-35.5,10.9-53.1,16.9-7.8,2.7-35.1,12.3-39.1,16.5-7.5,8,8.1,32.5,14.5,29.9,20.2-7.9,54.1-17.2,68.8-22.2,38.1-12.9,71.7-26.5,109.8-39.4,15.6-5.3,20.8-5.9,13.9-26.5-5.3-16-14.8-11.5-46.7.6-19.3,7.3-48.6,17.5-68.1,24.2"/>
      <path class="st3" d="M102.7,85.8c-10.1,4.7-21,7.7-31.7,10.6-8.5,2.3-17,4.7-25.3,7.6-6.7,2.3-13.3,4.8-19.9,7.5-3.2,1.3-6.5,2.7-9.6,4.2-2.1,1.1-4.4,2.2-6.1,3.8-4.6,4.4-3.4,11.9-1.4,17.2,2.2,5.8,5.7,11.9,10.6,15.9,2.1,1.7,4.8,3.2,7.6,2.6,1.6-.4,3.1-1.2,4.6-1.7,2-.7,4-1.4,6-2.1,8.8-3,17.6-5.8,26.5-8.5,8.1-2.5,16.2-4.9,24.2-7.4,9.2-2.9,18.2-6.1,27.3-9.3,21.9-7.8,43.7-16.1,65.6-23.9,10-3.6,20.1-7,30.1-10.5,5.2-1.8,11-3.9,13.2-9.4,1.1-2.7.9-5.7.5-8.6-.6-3.9-1.7-7.8-3.1-11.5-1.7-4.8-4.4-9.3-9.6-11.1s-11.1-.1-16.1,1.4c-8.7,2.6-17.1,6.1-25.6,9.3-18.2,6.8-36.5,13.3-54.9,19.6-4.1,1.4-8.2,2.8-12.3,4.2-1.6.6-2.7,2.2-2.2,3.9.4,1.6,2.3,2.8,3.9,2.2,17.8-6,35.5-12.2,53.2-18.6,8.8-3.2,17.5-6.5,26.3-9.8,6.6-2.5,13.3-5.1,20.2-6.3.9-.2-.4,0,.2,0,.3,0,.6,0,.9,0,.6,0,1.2,0,1.8,0s1,0,1.5,0c.4,0-.7-.2-.4,0,.1,0,.3,0,.4,0,.2,0,.5,0,.7.2.1,0,1.2.3,1.2.4,0,0-.8-.4,0,0,.2.1.4.2.6.4.1,0,.5.3.6.4,0,0-.6-.6-.3-.2,0,0,.2.1.2.2.4.3.7.7,1,1,0,0,.2.2.3.3.3.2-.4-.6-.2-.2.1.2.3.4.4.6.3.5.6.9.8,1.4s.5,1,.7,1.5c.2.4-.3-.8,0,0,0,.1.1.3.2.4.1.3.3.7.4,1,1.3,3.6,2.4,7.4,3,11.2,0,.5,0-.6,0,0,0,.2,0,.4,0,.6,0,.3,0,.6,0,.9,0,.6,0,1.2,0,1.9,0,.9.1-.5,0,.2,0,.3-.1.5-.2.8,0,.2-.1.4-.2.7-.2.8.3-.6,0,.2-.1.2-.2.4-.3.6,0,0-.6.8-.2.3s-.2.2-.3.3c-.2.2-.4.4-.6.6-.3.3-.5.4,0,0-.2.2-.4.3-.6.5-.5.3-1,.6-1.6.9-.5.2-1,.5-1.5.7s0,0,.1,0c-.2,0-.4.1-.5.2-.4.2-.7.3-1.1.4-1.4.5-2.9,1-4.4,1.5-4.9,1.7-9.9,3.3-14.8,5.1-21.2,7.4-42.3,15.4-63.5,23.1-17.7,6.4-35.4,12.7-53.4,18.1-16.6,5-33.3,9.8-49.5,16.1-.3.1-.6.2-.9.3-.5.3.8,0,.2,0-.8,0,0-.2.1,0,0,0-.6-.1-.7-.2,0,0-.2,0-.3-.1-.5-.1.4.1.3.1-.1,0-.5-.3-.6-.3-.2-.1-.5-.3-.7-.4-.1,0-.2-.1-.3-.2-.5-.3.5.5,0,0-1-.8-1.9-1.7-2.7-2.6-.2-.3-.5-.5-.7-.8-.1-.1-.7-.9-.3-.3-.5-.6-.9-1.2-1.3-1.9-.9-1.3-1.7-2.7-2.4-4.1-.4-.7-.7-1.4-1-2,0-.1-.3-.7,0,0,0-.2-.1-.3-.2-.5-.2-.4-.3-.8-.5-1.2-.5-1.4-.9-2.9-1.2-4.3,0-.1,0-.3,0-.5,0,0,0,.7,0,.1,0-.3,0-.6,0-.9,0-.7,0-1.4,0-2.1,0-.8-.2.6,0-.3,0-.3.1-.5.2-.8s.2-.5.2-.7c-.3.9,0,0,.2-.3,0-.1.6-.8.3-.4s.1-.2.3-.2.2-.2.4-.3c.3-.3-.4.3-.3.2,0,0,.3-.2.3-.2,2.1-1.4,4.3-2.5,6.6-3.5.6-.3,1.3-.6,1.9-.9.4-.2.8-.3,1.1-.5.2,0,.4-.2.6-.3,0,0,.8-.3.4-.2s.2,0,.3-.1c.2,0,.5-.2.7-.3.4-.2.7-.3,1.1-.4.8-.3,1.7-.7,2.5-1,3.4-1.3,6.8-2.6,10.2-3.9,6.3-2.3,12.6-4.5,19-6.4,10.4-3.1,20.9-5.5,31.2-8.9,5.2-1.7,10.3-3.7,15.2-6,1.6-.7,1.9-3,1.1-4.3-.9-1.6-2.8-1.9-4.3-1.1h0Z"/>
    </g>
    <g id="micheadlines">
      <path class="st3" d="M82.1,35c2.8-1.4,4.8-2.3,7.4-3.3s5.5-2,8.3-2.8,5.9-1.5,8.9-2c.7-.1,1.4-.2,2.1-.4.4,0,.8-.1,1.1-.2s0,0,0,0c.3,0,.5,0,.8-.1,1.5-.2,2.9-.3,4.4-.4,3-.2,6.1-.3,9.1-.1,1.5,0,3,.2,4.5.3.3,0,.6,0,.9.1.2,0,.4,0,.6,0,0,0-.4,0,0,0,.8.1,1.6.2,2.4.4,2.8.5,5.6,1.2,8.3,2.1.6.2,1.3.4,1.9.7.3.1.7.3,1,.4s0,0,0,0c.2.1.5.2.7.3,1.3.6,2.6,1.2,3.9,1.9,1.4.8,2.7,1.6,4,2.5.3.2.7.5,1,.7,0,0,.4.3.2.1-.2-.2.2.2.3.2.6.5,1.3,1.1,1.9,1.6,2.5,2.3,4.5,4.7,6.2,7.2.9,1.4,2.8,2,4.3,1.1,1.4-.8,2.1-2.9,1.1-4.3-7.1-10.7-18.2-17.5-30.7-20.3s-25.7-2-38.1,1.1c-6.8,1.7-13.5,4.2-19.8,7.4-1.5.8-2,2.9-1.1,4.3.9,1.6,2.8,1.9,4.3,1.1h0Z"/>
      <path class="st3" d="M72,162.6c9.6,5.8,20.1,10.4,31.3,12,11,1.6,22.1.5,32.7-2.7,7-2.1,13.7-5.1,20.2-8.4,1.5-.8,2-2.9,1.1-4.3-.9-1.6-2.8-1.9-4.3-1.1-10,5.1-21.1,9.4-32.1,10.6-10.1,1.1-19.7-.1-29.2-3.5-5.7-2-11.2-4.9-16.4-8-3.5-2.1-6.7,3.4-3.2,5.5h0Z"/>
    </g>
  </g>
</svg>