<?xml version="1.0" encoding="UTF-8"?>
<svg id="piano" xmlns="http://www.w3.org/2000/svg" version="1.1" viewBox="0 0 586.3 301">
  <!-- Generator: Adobe Illustrator 29.2.1, SVG Export Plug-In . SVG Version: 2.1.0 Build 116)  -->
  <defs>
    <style>
      .st0 {
        fill: none;
        stroke: #2f215c;
        stroke-miterlimit: 10;
        stroke-width: 19px;
      }

      .st1 {
        fill: #fff;
      }

      .st2 {
        fill: #6db1c9;
      }

      .st3 {
        fill: #6c58b0;
      }

      .st4 {
        fill: #ff5898;
      }

      .st5 {
        fill: #2f215c;
      }

      .st6 {
        fill: #a56eff;
      }

/* Our Own Styling */

#piano {
    transition: all 1s ease;
}

#pianokeys {
    transition: all 0.75s ease;
}

#pianobg {
    transition: all 0.75s ease;
    transform-origin: center;
}

#pianokeylines {
    transition: all 0.75s ease;
    transform-origin: center;
}

#piano:hover {
  animation: shake 2s;
  animation-iteration-count: infinite;
  transform: scale(3, 3);
  filter: grayscale(200%);
}
@keyframes shake {
  0% { transform: rotate(20deg); }
  50% { transform: rotate(0deg); }
  100% { transform: rotate(20deg); }
}
    </style>
    <script>
    const pianokeyboard = document.querySelector('#piano');
function iconLogId() {
    console.log(this.id);
}
pianokeyboard.addEventListener('click', iconLogId);
    </script>
  </defs>
  <g id="pianobg">
    <path id="pianobgfill" class="st6" d="M28.5,95.7C214.4,57.5,336.2,35.3,505.3,5.2c47.4-8.4,45.9,9,56.6,60.2,6.7,32.2,14.5,76.2,20.2,106.4,6.4,34.1-12.7,32.4-96,46.8-58.3,10.1-118.4,22.2-176.6,33.1-58.1,10.9-116.3,21.5-174.4,32.7-81,15.6-97.8,21.9-102.9-4.9C5.5,137.4-15.2,100.4,28.5,95.7"/>
    <path id="pianobgoutline" class="st5" d="M29.3,98.7c17.2-3.5,34.5-7.1,51.7-10.5,16.3-3.3,32.6-6.6,49-9.8,15.5-3.1,30.9-6.1,46.4-9.2s29.7-5.8,44.6-8.7,29.1-5.6,43.6-8.3c14.6-2.8,28.6-5.4,42.8-8s28.6-5.3,42.8-7.9,29.1-5.3,43.6-7.9,29.7-5.4,44.6-8,30.9-5.5,46.4-8.3c7.8-1.4,15.7-2.9,23.5-4.2,1.4-.2,2.9-.4,4.3-.7.6,0-.2,0,.4,0,.3,0,.7,0,1-.1.7,0,1.3-.2,2-.2,2.4-.2,4.8-.4,7.3-.5,2,0,4.1,0,6.2.2.2,0,.5,0,.7,0,.1,0,.8.1.3,0-.5,0,.2,0,.4,0,.3,0,.5,0,.8.1.8.2,1.7.3,2.5.6.8.2,1.5.4,2.3.7.2,0,.4.1.6.2.6.2-.3-.1-.1,0,.4.2.8.4,1.1.5.7.3,1.3.7,1.9,1.1.3.2.6.4.9.6.4.3.1.1-.1-.1.2.1.3.3.5.4,1.2,1,2.1,2.1,3.1,3.2.1.1-.4-.6,0-.1.1.2.2.3.3.5.2.3.5.7.7,1,.4.7.8,1.4,1.2,2.1.4.7.8,1.5,1.1,2.2.2.4.4.8.5,1.2-.2-.4-.2-.4,0,0,0,.2.2.5.3.8.7,1.8,1.3,3.6,1.9,5.5,3,9.9,4.7,20.2,6.7,30.4,2.8,13.9,5.7,27.8,8.3,41.8,2.9,15.1,5.7,30.2,8.5,45.4,1.3,7,2.6,14,3.9,21,.5,2.7,1,5.5,1.5,8.2.1.8.3,1.6.4,2.4,0,.5,0-.8,0,0,0,.2,0,.4,0,.6,0,.4,0,.8.1,1.2.1,1.4.2,2.8.2,4.2s0,1.3,0,2c0,.3,0,.6,0,.9,0,.1,0,.3,0,.4,0,.7,0-.2,0-.2-.2,1.1-.4,2.3-.8,3.4,0,.2-.2.5-.3.7,0,.1,0,.2-.1.3-.2.6,0-.2,0-.2-.2.5-.5,1-.7,1.4s-.5.9-.8,1.3c0,.1-.2.2-.2.3-.3.4,0-.2.2-.3-.2,0-.4.5-.6.7-.7.9-1.6,1.6-2.4,2.3-.6.5.6-.4-.1.1-.2.2-.5.4-.8.5-.5.4-1.1.7-1.7,1-1.2.7-2.4,1.3-3.7,1.9-.2,0-.3.1-.5.2,0,0,.7-.3,0,0-.4.1-.7.3-1.1.4-.8.3-1.5.6-2.3.8-1.7.6-3.4,1.1-5.2,1.6-4.1,1.1-8.3,2.1-12.5,2.9-11.5,2.3-23,4.2-34.6,6.1-16.1,2.7-32.3,5.4-48.4,8.4-17.5,3.1-35,6.4-52.5,9.7-17.5,3.3-34.9,6.7-52.4,10s-34.6,6.6-52,9.9c-17.9,3.4-35.8,6.7-53.6,10-17.8,3.3-35.6,6.6-53.4,9.9-17.8,3.3-35.6,6.7-53.4,10.1-15.8,3-31.5,6.1-47.3,9.2-5.9,1.1-11.8,2.3-17.7,3.3-2.5.5-5.1.9-7.6,1.3-1.2.2-2.3.4-3.4.5-.5,0-1.1.1-1.6.2-.6,0,.5,0-.1,0-.3,0-.6,0-.9.1-3.7.5-7.5.9-11.2,1-1.5,0-3.1,0-4.7,0-.7,0-1.4,0-2-.2-.2,0-.3,0-.5,0-.7,0,.3,0,.3,0,0,0-.9-.1-1-.1-1.2-.2-2.3-.5-3.5-.8-.2,0-.5-.2-.7-.3-.1,0-.3-.1-.4-.1-.5-.2.7.3.3.1-.5-.2-1-.5-1.4-.7-.4-.2-.8-.5-1.2-.8,0,0-.2-.1-.3-.2-.5-.3.6.5.3.2-.2-.2-.4-.3-.6-.5-.4-.3-.7-.7-1-1-.2-.2-.3-.4-.5-.6-.5-.5.5.7,0,0-.6-.9-1.1-1.7-1.6-2.7-.1-.2-.2-.5-.3-.7,0-.1-.3-.7,0,0s0,0,0-.1c-.2-.5-.4-1.1-.6-1.7-1.4-4.2-2-8.6-2.8-12.9-3-15.4-6.1-30.8-9.3-46.2-2.6-12.6-5.4-25.2-8.1-37.9-2.1-10-4.2-20-6.1-30-.8-4.1-1.5-8.2-2.1-12.4-.1-.9-.3-1.9-.4-2.8,0-.5-.1-.9-.2-1.4,0-.2,0-.4,0-.6,0-.5,0,.7,0-.1-.2-1.7-.4-3.4-.6-5.1-.6-5.6-.9-11.3-.3-17,0-.3,0-.6,0-.8,0-.5,0,.1,0,.3,0-.2,0-.3,0-.5,0-.5.2-1.1.3-1.6.2-1,.4-2.1.8-3.1.1-.5.3-.9.5-1.4,0-.2.2-.4.2-.6.2-.4-.4.8,0,0s.8-1.7,1.3-2.4c.2-.4.5-.7.7-1.1.5-.7-.4.4,0,0,.1-.2.3-.3.4-.5.6-.7,1.2-1.3,1.9-1.8.2-.1.3-.3.5-.4.5-.4-.7.5,0,0,.4-.3.7-.5,1.1-.8.8-.5,1.6-.9,2.5-1.3.2,0,.4-.2.6-.3.5-.2-.4.2-.3.1.1,0,.2,0,.4-.2.5-.2.9-.3,1.4-.5,1-.3,2-.6,3-.9,1.1-.3,2.2-.5,3.4-.7.6,0,1.2-.2,1.8-.3s-.5,0-.3,0c.2,0,.3,0,.5,0h1c1.7-.3,3.2-1.5,3.2-3.3s-1.5-3.4-3.2-3.2c-5.1.6-10.1,1.5-14.8,3.7-3.8,1.8-7,4.6-9.2,8.1-2.5,3.9-3.5,8.4-4.1,12.9-.7,5.6-.3,11.3.2,16.9.8,8,2.1,15.9,3.6,23.8,1.9,10.1,4,20.1,6.1,30.2,2.7,12.7,5.4,25.4,8.1,38.1,3.3,15.5,6.4,31,9.4,46.6,1.3,6.6,2,14.2,6,19.8,3,4.1,7.2,6.7,12.2,7.6,6.6,1.3,13.5.8,20.1,0,10.7-1.3,21.3-3.3,31.9-5.4,15.6-3,31.1-6.1,46.7-9.1,18-3.5,36.1-6.9,54.1-10.2s36.1-6.7,54.1-10.1,35.9-6.7,53.9-10c17.6-3.3,35.2-6.6,52.7-10s35.4-6.8,53.1-10.2c17.6-3.3,35.3-6.6,53-9.8,16.3-2.9,32.5-5.7,48.9-8.4,11.5-1.9,23.1-3.7,34.5-6.1,7.6-1.6,15.3-3.4,22.4-6.6,4.8-2.2,9.4-5.4,12-10.1s3.1-10.4,2.6-15.8c-.4-4.4-1.3-8.7-2.1-13-1.3-7-2.6-14-3.9-21.1-2.8-15.2-5.6-30.5-8.5-45.7-2.7-14.2-5.6-28.3-8.5-42.5-2-10.2-3.8-20.7-6.8-30.7-2-6.8-4.9-14-10.4-18.8-5.8-5.1-13.4-6.6-20.9-6.7-5.3,0-10.6.6-15.8,1.3-7.5,1.1-15,2.6-22.5,3.9-15.7,2.8-31.4,5.6-47.1,8.4-15.1,2.7-30.2,5.4-45.3,8.2s-29.2,5.3-43.9,8c-14.5,2.7-29,5.3-43.4,8s-29,5.4-43.4,8.1-29.4,5.6-44,8.4-30.2,5.8-45.2,8.8-31.2,6.1-46.8,9.2c-16.5,3.3-33,6.6-49.5,9.9-16.8,3.4-33.7,6.8-50.5,10.3-1.7.3-2.6,2.3-2.2,3.9.5,1.8,2.2,2.6,3.9,2.2h0Z"/>
  </g>
  <g id="pianokeys">
    <g id="pianokeywhite">
      <path class="st1" d="M76.2,168.1c161.2-32.3,266.6-51.7,413.1-78.1,41.1-7.4,39,3.6,45.8,35.2,4.3,19.9,9,47.1,12.5,65.8,4,21.1-12.3,20.9-84.4,33.7-50.4,9-102.6,19.2-152.9,28.7-50.4,9.4-100.7,18.7-151.1,28.3-70.2,13.4-84.9,18.1-88,1.5-16.7-87.9-32.7-110.2,4.9-115.1"/>
      <path class="st5" d="M77,171.1c26.6-5.3,53.1-10.6,79.7-15.8,24.2-4.8,48.4-9.4,72.6-14.1,22.9-4.4,45.9-8.7,68.8-13,22.5-4.2,45.1-8.4,67.7-12.6,23.3-4.3,46.5-8.5,69.8-12.8,12.2-2.2,24.4-4.4,36.7-6.6,6.3-1.1,12.5-2.3,18.8-3.4,4.9-.9,8.9-1.5,13.9-1.8,1.9-.1,3.7-.2,5.6-.1.8,0,1.5,0,2.3.1.4,0,.8,0,1.2.1.5,0-.8-.1-.1,0,.2,0,.5,0,.7.1,1.3.2,2.6.5,3.8,1,.3.1,1,.6.2,0,.2.1.5.2.7.3.5.3,1.1.6,1.6.9.2.1.5.3.7.5,0,0-.6-.6-.3-.2.1,0,.2.2.3.3.4.4.8.8,1.2,1.2.2.2.3.4.5.6.5.6-.4-.6,0,0,.3.5.7,1,1,1.5.3.5.6,1,.8,1.5s.2.5.4.8c0,.2.1.3.2.5-.2-.3-.2-.6,0,0,.5,1.3.9,2.6,1.3,3.9,2.1,7,3.2,14.4,4.8,21.5,2.5,11.5,4.7,23,6.8,34.5,2,10.8,4.1,21.5,5.9,32.3,0,.2,0,.4.1.7.1.8,0-.4,0,0,0,.5.1.9.1,1.4,0,.9,0,1.7,0,2.6,0,.4,0,.7,0,1.1,0,.4.2-1,0-.2,0,.2,0,.4-.1.6,0,.4-.2.7-.3,1,0,.2-.1.4-.2.5-.2.8.1-.2,0-.1-.3.6-.6,1.2-1,1.8,0,.1-.2.3-.3.4.4-.9.4-.4,0-.1-.3.3-.5.6-.8.9-.3.3-.5.5-.8.7-.6.5.4-.3,0,0-.2.1-.4.3-.6.4-.8.5-1.6,1-2.4,1.4-.4.2-.8.4-1.3.6-.2.1-.5.2-.7.3-.9.4.5-.2-.2.1-1.1.4-2.3.9-3.4,1.3-2.7.9-5.5,1.6-8.3,2.3-7.8,1.9-15.7,3.3-23.5,4.7-11.4,2-22.7,3.9-34.1,5.9-27.5,4.8-55,10-82.4,15.2-27.5,5.2-55,10.5-82.6,15.7-28.1,5.3-56.2,10.5-84.4,15.7s-54.6,10.3-81.9,15.6c-9.6,1.9-19.2,3.7-28.8,5.4-1.8.3-3.6.6-5.4.9-.9.1-1.8.3-2.6.4-.2,0-1.5.2-.5,0-.4,0-.9.1-1.3.2-2.8.4-5.5.6-8.3.8-2.1,0-4.3,0-6.4-.1-.8,0,.4,0,0,0-.2,0-.4,0-.6-.1-.4,0-.8-.2-1.2-.3-.4,0-.8-.2-1.2-.3-.2,0-.3-.1-.5-.2,0,0-.1,0-.2,0-.6-.2.2-.1.3.1-.1-.3-1.4-.8-1.7-1-.1,0-.7-.5-.1,0s0,0,0,0c-.2-.2-.5-.4-.7-.7,0-.1-.2-.2-.3-.3-.5-.5.3.4.2.2-.2-.3-.4-.5-.6-.8s-.3-.6-.5-.9c0-.1-.1-.4-.2-.4.4.2.3.8,0,.1-1-2.7-1.3-5.5-1.9-8.3-1.2-6-2.4-12.1-3.7-18.1-2.1-10.1-4.4-20.1-6.7-30.2-1.7-7.6-3.4-15.2-4.8-22.9-.3-1.5-.5-3.1-.8-4.6-.1-.8-.2-1.5-.3-2.3-.1-.9,0,.5,0-.4,0-.4,0-.8-.1-1.2-.3-2.5-.5-5-.5-7.6,0-1.1,0-2.1,0-3.2,0-.5,0-1,.2-1.6,0-.3-.1.9,0,0,0-.3,0-.5.1-.8.2-.9.4-1.8.7-2.6.1-.4.3-.8.5-1.2s-.4.8,0,.1c0-.2.2-.4.3-.6.4-.7.8-1.4,1.3-2,.4-.6-.6.7,0,0,.1-.1.2-.3.4-.4.3-.3.6-.6.9-.9.3-.3.6-.5.9-.8.5-.5-.7.4,0,0,.2-.1.4-.3.6-.4.8-.5,1.6-1,2.4-1.4.2-.1.4-.2.6-.3.1,0,.2-.1.4-.2.4-.2-.3.1-.4.2.1-.2,1.2-.5,1.4-.5,1-.4,2-.6,3-.9,1.2-.3,2.3-.6,3.5-.8.6-.1,1.2-.2,1.8-.3.3,0,.6-.1.9-.1.2,0,.4,0,.6,0,.7-.1-.8.1,0,0,1.7-.2,3.2-1.3,3.2-3.2s-1.5-3.4-3.2-3.2c-8.7,1.1-19,3.4-23.5,11.9-2,3.8-2.7,8.2-2.7,12.5,0,5.7.8,11.5,1.8,17.1,3.1,17.9,7.7,35.5,11.5,53.3,1.3,6,2.5,12,3.7,18,.6,3.1,1,6.4,2.1,9.5,1.2,3.2,3.2,6.1,6.3,7.7,3.7,1.9,7.9,2.2,11.9,2.1,6.3-.1,12.6-1.1,18.8-2.1,9.3-1.5,18.6-3.3,27.9-5.1,13.1-2.5,26.2-5.1,39.3-7.6,28.6-5.4,57.2-10.8,85.8-16.1,28.1-5.2,56.3-10.5,84.4-15.8s56.1-10.7,84.2-15.9c25.2-4.7,50.5-9,75.8-13.5,7.9-1.4,15.8-2.8,23.5-4.7,5.1-1.2,10.4-2.7,15-5.2,3.2-1.7,6.2-4.2,7.8-7.6,1.7-3.8,1.6-7.8,1-11.8-.7-4.6-1.7-9.2-2.5-13.8-1.1-5.8-2.1-11.7-3.2-17.5-2.2-11.8-4.4-23.6-6.9-35.3-1.6-7.3-2.8-14.8-4.8-22.1-1.5-5.4-3.9-10.6-8.5-14.1-4.9-3.7-11.5-4.3-17.4-4.1-10.9.3-21.7,2.8-32.4,4.7-24.5,4.4-49,8.9-73.6,13.3-23.1,4.2-46.2,8.4-69.2,12.7-23,4.3-46,8.6-68.9,12.9s-47.3,9-71,13.6c-25.7,5-51.4,10-77.1,15.1-13.3,2.6-26.7,5.3-40,8-1.7.3-2.7,2.3-2.2,3.9.5,1.8,2.2,2.6,3.9,2.2h0Z"/>
    </g>
    <g id="pianokeylines">
      <path class="st5" d="M285.3,130.7c2.8,14.6,5.5,29.1,8.2,43.7s5.6,29.8,8.4,44.7c2,10.8,4,21.6,6,32.3.3,1.7,2.4,2.6,3.9,2.2,1.8-.5,2.5-2.2,2.2-3.9-3.3-17.7-6.6-35.3-9.9-53-2.6-14-5.2-28.1-7.9-42.1-1.6-8.5-3.2-17.1-4.8-25.6-.3-1.7-2.4-2.6-3.9-2.2-1.8.5-2.5,2.2-2.2,3.9h0Z"/>
      <path class="st5" d="M255.4,136.3c2.8,14.6,5.5,29.1,8.2,43.7s5.6,29.8,8.4,44.7c2,10.8,4,21.6,6,32.3.3,1.7,2.4,2.6,3.9,2.2,1.8-.5,2.5-2.2,2.2-3.9-3.3-17.7-6.6-35.4-9.9-53-2.6-14-5.2-28.1-7.9-42.1-1.6-8.5-3.2-17.1-4.8-25.6-.3-1.7-2.4-2.6-3.9-2.2-1.8.5-2.5,2.2-2.2,3.9h0Z"/>
      <path class="st5" d="M225.5,141.9c2.8,14.6,5.5,29.1,8.2,43.7s5.6,29.8,8.4,44.7c2,10.8,4,21.6,6.1,32.3.3,1.7,2.4,2.6,3.9,2.2,1.8-.5,2.5-2.2,2.2-3.9-3.3-17.7-6.6-35.4-9.9-53-2.6-14-5.2-28.1-7.9-42.1-1.6-8.5-3.2-17.1-4.8-25.6-.3-1.7-2.4-2.6-3.9-2.2-1.8.5-2.5,2.2-2.2,3.9h0Z"/>
      <path class="st5" d="M195.6,147.5c2.8,14.6,5.5,29.1,8.2,43.7s5.6,29.8,8.4,44.7c2,10.8,4,21.5,6.1,32.3.3,1.7,2.4,2.6,3.9,2.2,1.8-.5,2.5-2.2,2.2-3.9-3.3-17.7-6.6-35.4-9.9-53-2.6-14-5.2-28.1-7.9-42.1-1.6-8.5-3.2-17.1-4.8-25.6-.3-1.7-2.4-2.6-3.9-2.2-1.8.5-2.5,2.2-2.2,3.9h0Z"/>
      <path class="st5" d="M165.8,153.1c2.8,14.6,5.5,29.1,8.2,43.7s5.6,29.8,8.4,44.7c2,10.8,4,21.5,6,32.3.3,1.7,2.4,2.6,3.9,2.2,1.8-.5,2.5-2.2,2.2-3.9-3.3-17.7-6.6-35.4-9.9-53-2.6-14-5.2-28.1-7.9-42.1-1.6-8.5-3.2-17.1-4.8-25.6-.3-1.7-2.4-2.6-3.9-2.2-1.8.5-2.5,2.2-2.2,3.9h0Z"/>
      <path class="st5" d="M135.9,158.7c2.8,14.6,5.5,29.1,8.2,43.7s5.6,29.8,8.4,44.7c2,10.8,4,21.5,6.1,32.3.3,1.7,2.4,2.6,3.9,2.2,1.8-.5,2.5-2.2,2.2-3.9-3.3-17.7-6.6-35.4-9.9-53-2.6-14-5.2-28.1-7.9-42.1-1.6-8.5-3.2-17.1-4.9-25.6-.3-1.7-2.4-2.6-3.9-2.2-1.8.5-2.5,2.2-2.2,3.9h0Z"/>
      <path class="st5" d="M106,164.3c2.8,14.6,5.5,29.1,8.2,43.7s5.6,29.8,8.3,44.7c2,10.8,4,21.5,6,32.3.3,1.7,2.4,2.6,3.9,2.2,1.8-.5,2.5-2.2,2.2-3.9-3.3-17.7-6.6-35.4-9.9-53-2.6-14-5.2-28.1-7.9-42.1-1.6-8.5-3.2-17.1-4.8-25.6-.3-1.7-2.3-2.6-3.9-2.2-1.8.5-2.5,2.2-2.2,3.9h0Z"/>
      <path class="st5" d="M76.1,169.9c2.8,14.6,5.5,29.1,8.2,43.7,2.8,14.9,5.6,29.8,8.3,44.7,2,10.8,4,21.5,6.1,32.3.3,1.7,2.3,2.6,3.9,2.2,1.8-.5,2.5-2.2,2.2-3.9-3.3-17.7-6.6-35.4-9.9-53-2.6-14-5.2-28.1-7.9-42.1-1.6-8.5-3.2-17.1-4.8-25.6-.3-1.7-2.3-2.6-3.9-2.2-1.8.5-2.5,2.2-2.2,3.9h0Z"/>
      <path class="st5" d="M494.5,91.5c2.8,14.6,5.5,29.1,8.2,43.7s5.6,29.8,8.4,44.7c2,10.8,4,21.6,6.1,32.3.3,1.7,2.3,2.6,3.9,2.2,1.8-.5,2.5-2.2,2.2-3.9-3.3-17.7-6.6-35.4-9.9-53-2.6-14-5.2-28.1-7.9-42.1-1.6-8.5-3.2-17.1-4.8-25.6-.3-1.7-2.4-2.6-3.9-2.2-1.8.5-2.5,2.2-2.2,3.9h0Z"/>
      <path class="st5" d="M464.6,97.1c2.8,14.6,5.5,29.1,8.2,43.7,2.7,14.6,5.6,29.8,8.4,44.7,2,10.8,4,21.6,6,32.3.3,1.7,2.4,2.6,3.9,2.2,1.8-.5,2.5-2.2,2.2-3.9-3.3-17.7-6.6-35.3-9.9-53-2.6-14-5.2-28.1-7.9-42.1-1.6-8.5-3.2-17.1-4.8-25.6-.3-1.7-2.4-2.6-3.9-2.2-1.8.5-2.5,2.2-2.2,3.9h0Z"/>
      <path class="st5" d="M434.7,102.7c2.8,14.6,5.5,29.1,8.2,43.7,2.8,14.9,5.6,29.8,8.4,44.7,2,10.8,4,21.6,6,32.3.3,1.7,2.4,2.6,3.9,2.2,1.8-.5,2.5-2.2,2.2-3.9-3.3-17.7-6.6-35.4-9.9-53-2.6-14-5.2-28.1-7.9-42.1-1.6-8.5-3.2-17.1-4.9-25.6-.3-1.7-2.4-2.6-3.9-2.2-1.8.5-2.5,2.2-2.2,3.9h0Z"/>
      <path class="st5" d="M404.8,108.3c2.8,14.6,5.5,29.1,8.2,43.7s5.6,29.8,8.4,44.7c2,10.8,4,21.6,6,32.3.3,1.7,2.4,2.6,3.9,2.2,1.8-.5,2.5-2.2,2.2-3.9-3.3-17.7-6.6-35.3-9.9-53-2.6-14-5.2-28.1-7.9-42.1-1.6-8.5-3.2-17.1-4.9-25.6-.3-1.7-2.4-2.6-3.9-2.2-1.8.5-2.5,2.2-2.2,3.9h0Z"/>
      <path class="st5" d="M374.9,113.9c2.8,14.6,5.5,29.1,8.2,43.7,2.8,14.9,5.6,29.8,8.4,44.7,2,10.8,4,21.6,6,32.3.3,1.7,2.4,2.6,3.9,2.2,1.8-.5,2.5-2.2,2.2-3.9-3.3-17.7-6.6-35.4-9.9-53-2.6-14-5.2-28.1-7.9-42.1-1.6-8.5-3.2-17.1-4.8-25.6-.3-1.7-2.4-2.6-3.9-2.2-1.8.5-2.5,2.2-2.2,3.9h0Z"/>
      <path class="st5" d="M345,119.5c2.8,14.6,5.5,29.1,8.2,43.7,2.8,14.9,5.6,29.8,8.4,44.7,2,10.8,4,21.6,6,32.3.3,1.7,2.4,2.6,3.9,2.2,1.8-.5,2.5-2.2,2.2-3.9-3.3-17.7-6.6-35.4-9.9-53-2.6-14.1-5.2-28.1-7.9-42.1-1.6-8.5-3.2-17.1-4.8-25.6-.3-1.7-2.4-2.6-3.9-2.2-1.8.5-2.5,2.2-2.2,3.9h0Z"/>
      <path class="st5" d="M315.1,125.1c2.8,14.6,5.5,29.1,8.2,43.7,2.8,14.9,5.6,29.8,8.3,44.7,2,10.8,4,21.6,6,32.3.3,1.7,2.4,2.6,3.9,2.2,1.8-.5,2.5-2.2,2.2-3.9-3.3-17.7-6.6-35.4-9.9-53-2.6-14-5.2-28.1-7.9-42.1-1.6-8.5-3.2-17.1-4.9-25.6-.3-1.7-2.4-2.6-3.9-2.2-1.8.5-2.5,2.2-2.2,3.9h0Z"/>
    </g>
    <g id="pianokeyblack">
      <path class="st0" d="M288,128.1c3.7,19.2,5.6,30.1,10.4,55.2"/>
      <path class="st0" d="M258.1,133.7c3.7,19.2,5.6,30.1,10.4,55.2"/>
      <path class="st0" d="M228.2,139.3c3.7,19.2,5.6,30.1,10.4,55.2"/>
      <path class="st0" d="M168.5,150.5c3.7,19.2,5.6,30.1,10.4,55.2"/>
      <path class="st0" d="M138.6,156.1c3.7,19.2,5.6,30.1,10.4,55.2"/>
      <path class="st0" d="M78.8,167.3c3.7,19.2,5.6,30.1,10.4,55.2"/>
      <path class="st0" d="M497.2,88.9c3.7,19.2,5.6,30.1,10.4,55.2"/>
      <path class="st0" d="M437.4,100.1c3.7,19.2,5.6,30.1,10.4,55.2"/>
      <path class="st0" d="M407.5,105.7c3.7,19.2,5.6,30.1,10.4,55.2"/>
      <path class="st0" d="M347.8,116.9c3.7,19.2,5.6,30.1,10.4,55.2"/>
    </g>
  </g>
  <g id="pianobar">
    <g id="pianobarpurple">
      <path class="st3" d="M111.4,108.9c127.3-24.2,210.3-39.7,325.6-61.2,32.3-6,29.5-3.6,31.3,2,1.1,3.5,1.7,8.4,2.4,11.8.7,3.8-11.7,5.5-68.5,16-39.7,7.4-80.8,15.2-120.5,22.6-39.7,7.4-79.3,14.8-119,22.3-55.3,10.4-67.1,13-67.7,10-3.1-15.7-12.9-18.4,16.5-23.5"/>
      <path class="st5" d="M112.2,112c18-3.4,36-6.8,54-10.3,16.6-3.1,33.1-6.3,49.7-9.4,15.5-2.9,31.1-5.9,46.6-8.8,15.2-2.8,30.3-5.7,45.5-8.5s30.4-5.7,45.6-8.5c15.8-2.9,31.5-5.9,47.3-8.8s32.9-6.4,49.4-9c.8-.1,1.5-.2,2.3-.3.3,0,.6,0,.9-.1.2,0,.4,0,.6,0,.6,0-.2,0,.1,0,1.2-.2,2.4-.3,3.6-.4,1.7-.2,3.4-.3,5-.2.3,0,.6,0,.9,0s-.9-.2-.3,0c.1,0,.3,0,.4,0,.2,0,.4.1.6.2.8.2-.5-.4-.1,0,0,0,.3.2.4.3-.5,0-.5-.7-.2-.1.4.6-.4-.7-.2-.2,0,.1.2.3.2.4.4.5-.2-.7-.1-.3,0,.2.1.3.2.5.1.3.2.7.3,1,.5,1.9,1,3.7,1.4,5.6s.7,3.8,1,5.7c.1.6.1,1.3.4,2,0,0,0-1.1,0-.6,0,.4.2-1.1,0-.4,0,0,.5-1,.2-.5s.4-.5.3-.4c-.1,0-.4.3-.5.4.1-.3.8-.6.3-.3-.1,0-.2.2-.4.2-.3.2-.6.3-.9.4-.6.3.9-.3.2,0-.2,0-.4.2-.6.2-2.2.8-4.5,1.4-6.8,1.9-9.3,2.2-18.7,3.8-28.1,5.6-16.8,3.1-33.7,6.2-50.5,9.3-18.5,3.4-37,6.9-55.5,10.4-18.4,3.5-36.8,6.9-55.2,10.4-18.9,3.5-37.7,7.1-56.6,10.6s-37.7,7.1-56.5,10.6c-13.5,2.6-27,5.2-40.6,7.6-3.8.7-7.6,1.4-11.5,1.9-.4,0-.7.1-1.1.1-.2,0-.3,0-.5,0-.5,0,.9-.1.1,0-.6,0-1.2.2-1.8.2-1,.1-2,.2-2.9.2-.7,0-1.3,0-2,0-.6,0,.9.2.4,0-.1,0-.2,0-.3,0,0,0-.2,0-.3,0-.5,0,.8.4.5.2-.6-.4.6.6.3.2.2.2.6.7.6,1,0-.6-.3-1.6-.5-2.2-.2-1-.5-2-.8-3-.5-1.7-1.1-3.3-1.7-4.9-.2-.7-.5-1.3-.7-2,0-.3-.2-.6-.2-.9,0-.1,0-.3,0-.4-.1-.6,0,.2,0,.3,0-.2,0-.5,0-.8s0-.2,0-.4c0-.6-.2.6,0,.3,0,0,.2-.6.2-.7,0,.1-.4.8-.2.4,0-.1.2-.2.2-.4.3-.5-.4.4-.2.2,0,0,.2-.2.2-.2,0,0,.2-.2.3-.3.5-.5-.1,0-.1,0,.7-.2,1.3-.8,2-1.1.1,0,.2,0,.3-.2,0,0-.7.2-.3.1.2,0,.4-.2.7-.3.5-.2,1-.3,1.5-.5,1.2-.4,2.4-.7,3.6-1,3.3-.8,6.7-1.4,10.1-2.1,1.7-.3,2.6-2.4,2.2-3.9-.5-1.8-2.2-2.5-3.9-2.2-5.9,1-12.1,1.9-17.5,4.5-3.1,1.4-5.4,4.1-5.4,7.6,0,3.1,1.5,6.1,2.5,9.1.7,2,1.1,4,1.6,6,.2.9.6,1.6,1.2,2.2,2.6,2.5,7.7,1.4,10.9,1,9.1-1.2,18.1-3,27.2-4.7,17-3.2,34-6.4,51-9.6,19.2-3.6,38.4-7.2,57.6-10.8s38.2-7.2,57.3-10.7c18.8-3.5,37.6-7.1,56.4-10.6,18.8-3.5,37.5-7.1,56.3-10.5,13.5-2.5,27-4.9,40.5-7.5,6-1.2,12.4-2.1,18.1-4.3,1.5-.6,3.2-1.3,4.3-2.5.8-.8,1.3-1.9,1.3-3,0-.4,0-.9-.1-1.3-.3-1.7-.6-3.5-.9-5.2-.5-3.2-1.2-6.6-2.4-9.6-.9-2.4-2.8-4-5.3-4.4-3.9-.7-7.9,0-11.8.4-7.9,1.1-15.8,2.6-23.6,4.1-16.6,3.1-33.2,6.2-49.9,9.3s-31.6,5.9-47.4,8.8c-15.8,3-30.9,5.8-46.4,8.7-15.6,2.9-31.1,5.8-46.7,8.8-16.3,3.1-32.6,6.1-48.8,9.2-17.6,3.3-35.2,6.7-52.8,10-9.1,1.7-18.2,3.5-27.3,5.2-1.7.3-2.6,2.3-2.2,3.9.5,1.8,2.2,2.5,3.9,2.2h0Z"/>
    </g>
    <g id="pianobarred">
      <path class="st4" d="M57.1,118c-7.9,1.5-11.4,6.4-9.7,15.3,1.4,7.6,8.4,10.1,14.8,8.9,7.9-1.5,11.4-8.1,9.2-16.3-1.7-6.2-7.4-9.1-14.2-7.9"/>
      <path class="st5" d="M56.2,114.9c-5.8,1.1-11,4.8-12.1,10.9-1.2,6.5.7,14.1,6.7,17.6,5.3,3.1,13,2.9,18.1-.6,5.7-4,7.2-11,5.6-17.5-1-3.7-3.2-7-6.6-8.9-3.6-2-7.6-2.2-11.5-1.5-1.7.3-2.6,2.4-2.2,3.9.5,1.8,2.2,2.5,3.9,2.2.7-.1.7-.1,1.6-.2.7,0,1.3,0,2,0,1,0-.5-.2.4,0,.2,0,.4,0,.6.1.3,0,.6.2.9.3.2,0,.4.1.6.2-.3-.1-.3-.1,0,0,.5.3,1,.6,1.5.9-.5-.4.2.2.3.2.2.1.3.3.4.4.2.2.4.4.6.7-.4-.5.2.3.2.3.2.3.3.5.5.8,0,.2.2.4.3.6-.1-.3,0-.2,0,.1.2.5.3,1.1.5,1.6,0,.3.2.7.2,1,0,0,.1,1.1,0,.5,0,.6,0,1.3,0,1.9,0,.3,0,.6,0,.9,0,.7.1-.4,0,.3-.1.6-.2,1.1-.4,1.7,0,0-.4.9,0,.3-.1.3-.2.5-.4.8-.2.4-.5.8-.7,1.2.4-.6-.1.1-.2.2-.2.3-.5.5-.8.8,0,0-.8.6-.2.2-.2.2-.5.3-.7.5-.4.3-.9.5-1.3.7.6-.3-.3.1-.4.1-.3.1-.6.2-.9.3s-.6.2-1,.2c-.1,0-1.4.2-.7.1-1.1.1-2.2.1-3.2,0-.9,0,.6.1-.3,0-.3,0-.6-.1-.8-.2-.6-.1-1.1-.3-1.6-.5.7.2-.2-.1-.3-.1-.2-.1-.5-.3-.7-.4s-.5-.3-.7-.5c.5.4-.2-.2-.2-.2-.4-.3-.7-.7-1-1,.4.5-.2-.3-.2-.3-.2-.3-.4-.7-.6-1.1-.4-.8.1.5-.2-.4,0-.3-.2-.6-.3-.9-.2-.6-.3-1.1-.4-1.7,0-.3-.1-.8-.1-1.5s0-1.4,0-2.1c0-.2,0-.4,0-.6,0,.8,0-.4.1-.5,0-.3.1-.5.2-.8,0-.2.5-1.2.1-.4.2-.4.4-.9.7-1.3,0-.1.6-.7,0-.2.2-.2.4-.5.7-.7.2-.2.4-.3.5-.5.3-.2.3-.2,0,0,.1,0,.3-.2.4-.3.5-.3.9-.5,1.4-.8.8-.4-.6.2.3-.1.4-.1.7-.3,1.1-.4.7-.2,1.4-.4,2.1-.5,1.7-.3,2.7-2.3,2.2-3.9-.5-1.8-2.2-2.6-3.9-2.2h0Z"/>
    </g>
    <g id="pianobarblue">
      <path class="st2" d="M499.3,35.1c-7.9,1.5-11.4,6.5-9.8,15.3,1.4,7.6,8.4,10,14.8,8.9,7.9-1.5,11.4-8.1,9.1-16.3-1.7-6.2-7.5-9.1-14.2-7.8"/>
      <path class="st5" d="M498.5,32c-5.8,1.1-11,4.8-12.1,10.9-1.2,6.5.7,14.1,6.7,17.6,5.3,3.1,13,2.9,18.1-.6,5.7-4,7.2-11,5.5-17.5-1-3.7-3.3-7-6.6-8.9-3.5-2-7.6-2.2-11.5-1.5-1.7.3-2.6,2.4-2.2,3.9.5,1.8,2.2,2.5,3.9,2.2.7-.1.7-.1,1.6-.2.7,0,1.3,0,2,0,1,0-.5-.2.4,0,.2,0,.4,0,.6.1.3,0,.6.2.9.3.2,0,.4.1.6.2-.3-.1-.3-.1,0,0,.5.3,1,.6,1.5.9-.5-.4.2.2.3.2.1.1.3.3.4.4.2.2.4.4.6.7-.4-.5.2.3.2.3.2.3.3.5.5.8.1.2.2.4.3.6-.1-.3,0-.2,0,.1.2.5.4,1.1.5,1.6,0,.3.1.7.2,1,0,0,.1,1.1,0,.5,0,.6.1,1.3,0,1.9,0,.3,0,.6,0,.9,0,.7.1-.4,0,.3-.1.6-.2,1.1-.4,1.7,0,0-.4,1,0,.3-.1.3-.2.5-.4.8-.2.4-.5.8-.7,1.2.4-.6-.1.1-.2.2-.2.3-.5.5-.8.8,0,0-.8.6-.2.2-.2.2-.5.3-.7.5-.4.3-.9.5-1.3.7.6-.3-.4.1-.4.1-.3.1-.6.2-.9.3s-.6.2-1,.2c-.1,0-1.4.2-.7.1-1.1.1-2.1,0-3.2,0-.9,0,.6.2-.3,0-.3,0-.6-.1-.9-.2-.6-.1-1.1-.3-1.6-.5.6.2-.2,0-.3-.1-.2-.1-.5-.3-.7-.4s-.5-.3-.7-.5c.5.4-.2-.2-.2-.2-.4-.3-.7-.7-1-1,.4.5-.2-.3-.2-.3-.2-.3-.4-.7-.6-1.1-.4-.8.1.5-.2-.4-.1-.3-.2-.6-.3-1-.1-.6-.3-1.2-.4-1.7,0-.3-.1-.8-.1-1.5s0-1.4,0-2.1c0-.2,0-.4,0-.6,0,.8,0-.4.1-.5,0-.3.1-.5.2-.8,0-.2.5-1.2.1-.4.2-.5.4-.9.7-1.3,0-.1.6-.7,0-.2.2-.2.4-.5.7-.7.2-.2.4-.3.5-.5.3-.2.3-.2,0,0,.1,0,.3-.2.4-.3.5-.3.9-.5,1.4-.8.8-.4-.6.2.3-.1.4-.1.7-.3,1.1-.4.7-.2,1.4-.4,2.1-.5,1.7-.3,2.6-2.3,2.2-3.9-.5-1.8-2.2-2.5-3.9-2.2h0Z"/>
    </g>
  </g>
  <g id="pianolines">
    <path id="pianolines2" class="st5" d="M38.2,105.7c-8.9,1.7-18.8,5.6-20.7,15.6-.9,4.5-.4,9,.4,13.4.9,5.4,2.3,10.7,3.6,16.1,1.7,7.4,3.3,15.1,4.1,22.3.2,1.7,1.3,3.2,3.2,3.2s3.4-1.5,3.2-3.2c-.8-6.9-2-13.7-3.5-20.4-1.2-5.5-2.6-10.9-3.8-16.4-.2-1.1-.5-2.3-.6-3.4,0-.5-.2-1.1-.3-1.6,0-.3-.1-.8,0-.2,0-.3,0-.6-.1-.9-.2-1.9-.3-3.9-.2-5.8,0-.4.2-1.5,0-.5,0-.4.1-.9.2-1.3.2-.8.5-1.6.8-2.4-.3.9,0-.2.3-.5.2-.3.4-.7.6-1,.1-.2.2-.3.4-.5,0,0-.4.5,0,0,.3-.3.6-.7.9-1,.2-.2.4-.3.5-.5.1-.1.7-.6.3-.3s.2-.2.4-.3c.2-.2.5-.3.7-.4.5-.3,1-.6,1.5-.8.3-.1.5-.3.8-.4.2,0,.9-.4.6-.3s.5-.2.6-.2c.3-.1.6-.2,1-.3.7-.2,1.4-.4,2-.6,1.6-.4,3.2-.8,4.8-1.1s2.6-2.3,2.2-3.9c-.5-1.8-2.2-2.5-3.9-2.2h0Z"/>
    <path id="pianolines1" class="st5" d="M555,127.3c5.2,17.2,7.3,34.9,10.6,52.4.3,1.7,2.3,2.6,3.9,2.2,1.8-.5,2.5-2.2,2.2-3.9-3.3-17.6-5.4-35.3-10.6-52.4-1.2-3.9-7.3-2.2-6.1,1.7h0Z"/>
  </g>
</svg>