<?xml version="1.0" encoding="UTF-8"?>
<svg id="Layer_2" data-name="Layer 2" xmlns="http://www.w3.org/2000/svg" viewBox="0 0 586.35 301.02">
  <defs>
    <style>
      .cls-1 {
        fill: #6db1c9;
      }

      .cls-2 {
        fill: #a56eff;
      }

      .cls-3 {
        fill: #fff;
      }

      .cls-4 {
        fill: none;
        stroke: #2f215c;
        stroke-miterlimit: 10;
        stroke-width: 19.04px;
      }

      .cls-5 {
        fill: #2f215c;
      }

      .cls-6 {
        fill: #6c58b0;
      }

      .cls-7 {
        fill: #ff5898;
      }
    </style>
  </defs>
  <g id="Layer_1-2" data-name="Layer 1">
    <g id="piano">
      <g>
        <path class="cls-2" d="M28.46,95.67C214.43,57.51,336.17,35.28,505.32,5.2c47.44-8.43,45.91,9.04,56.56,60.17,6.71,32.22,14.5,76.16,20.17,106.36,6.4,34.08-12.65,32.37-95.96,46.85-58.27,10.14-118.42,22.2-176.55,33.1-58.12,10.89-116.27,21.5-174.38,32.69-80.98,15.61-97.79,21.91-102.87-4.92C5.47,137.41-15.19,100.4,28.46,95.67"/>
        <path class="cls-5" d="M29.31,98.73c17.22-3.53,34.45-7.05,51.68-10.53,16.31-3.3,32.63-6.57,48.96-9.82,15.46-3.08,30.91-6.13,46.38-9.15s29.74-5.79,44.62-8.65,29.09-5.57,43.64-8.32,28.56-5.37,42.84-8.03,28.56-5.29,42.84-7.9,29.08-5.31,43.62-7.94,29.73-5.37,44.59-8.03,30.9-5.53,46.35-8.28c7.84-1.4,15.66-2.87,23.51-4.17,1.43-.24,2.86-.45,4.29-.66.61-.09-.23.03.37-.05.35-.04.7-.09,1.04-.13.68-.08,1.35-.16,2.03-.23,2.42-.25,4.85-.42,7.28-.46,2.05-.04,4.11.02,6.15.22.24.02.49.05.73.08.12.01.82.11.29.03-.55-.08.25.04.38.06.26.04.52.09.78.13.84.15,1.67.34,2.5.56.78.21,1.54.45,2.3.74.19.07.38.15.56.22.58.22-.3-.14-.13-.05.37.19.77.35,1.14.54.66.34,1.3.71,1.92,1.11.29.19.58.4.87.6.39.28.14.12-.13-.11.16.14.34.27.5.41,1.17.98,2.09,2.12,3.12,3.22.13.14-.44-.6-.09-.11.12.16.24.32.35.48.23.33.46.66.68.99.43.67.84,1.36,1.22,2.06.4.74.78,1.49,1.13,2.25.19.41.36.83.55,1.24-.19-.43-.17-.42-.01-.03.1.25.2.5.3.75.7,1.8,1.31,3.64,1.87,5.49,2.98,9.92,4.7,20.21,6.73,30.35,2.78,13.93,5.66,27.84,8.32,41.8,2.88,15.11,5.66,30.23,8.45,45.36,1.29,7.01,2.58,14.02,3.88,21.02.51,2.73,1.05,5.46,1.52,8.2.14.8.26,1.61.38,2.41.08.54-.09-.78-.01-.07.02.2.05.4.07.59.05.39.09.78.12,1.16.13,1.39.21,2.79.21,4.19,0,.67-.02,1.33-.07,1.99-.02.3-.04.59-.07.89-.01.13-.03.27-.04.4-.07.71.04-.22.03-.19-.22,1.14-.4,2.26-.76,3.38-.08.25-.16.5-.26.74-.04.11-.09.22-.13.34-.21.58.09-.21.09-.21-.25.46-.45.96-.7,1.42s-.54.91-.84,1.34c-.08.11-.16.22-.24.34-.3.44.07-.2.21-.26-.18.08-.43.53-.57.69-.74.85-1.56,1.59-2.41,2.31-.58.49.59-.42-.13.1-.25.18-.51.37-.77.54-.54.37-1.09.71-1.66,1.04-1.19.69-2.42,1.3-3.67,1.85-.17.08-.35.15-.52.23-.1.05.72-.29.07-.03-.37.15-.74.3-1.11.44-.75.29-1.51.56-2.27.82-1.7.58-3.42,1.1-5.16,1.58-4.11,1.14-8.27,2.07-12.45,2.92-11.48,2.34-23.05,4.17-34.61,6.09-16.14,2.68-32.27,5.45-48.38,8.35-17.52,3.15-35.01,6.42-52.5,9.73-17.47,3.31-34.93,6.67-52.39,10.02s-34.65,6.64-51.98,9.88c-17.88,3.35-35.76,6.67-53.64,9.99-17.8,3.31-35.6,6.61-53.39,9.94-17.8,3.33-35.6,6.68-53.39,10.09-15.76,3.01-31.51,6.14-47.26,9.2-5.89,1.14-11.78,2.27-17.69,3.31-2.54.45-5.07.87-7.62,1.27-1.15.18-2.29.35-3.44.52-.53.08-1.06.15-1.59.22-.63.09.52-.07-.11.02-.31.04-.63.08-.94.12-3.73.48-7.48.86-11.24.96-1.55.04-3.1.04-4.65-.04-.69-.04-1.37-.09-2.05-.16-.17-.02-.34-.04-.51-.06-.65-.07.27,0,.27.04,0-.02-.87-.13-.97-.15-1.17-.2-2.33-.47-3.45-.84-.25-.08-.49-.17-.74-.26-.13-.05-.26-.1-.39-.15-.55-.2.66.31.27.12-.47-.24-.96-.45-1.42-.71-.43-.24-.84-.52-1.25-.8-.09-.06-.17-.13-.26-.19-.49-.32.57.49.26.2-.18-.17-.39-.32-.58-.49-.36-.32-.71-.67-1.04-1.03-.17-.19-.33-.39-.5-.58-.47-.54.49.7-.04-.06-.6-.86-1.14-1.74-1.6-2.68-.12-.24-.23-.48-.34-.72-.06-.12-.28-.67-.04-.08s0-.02-.06-.15c-.21-.55-.42-1.11-.6-1.67-1.36-4.17-1.96-8.58-2.78-12.87-2.97-15.44-6.09-30.84-9.32-46.22-2.65-12.63-5.38-25.25-8.07-37.88-2.13-9.98-4.24-19.96-6.12-29.99-.77-4.11-1.5-8.22-2.14-12.36-.15-.93-.29-1.87-.42-2.81-.07-.47-.14-.94-.2-1.42-.03-.2-.05-.4-.08-.6-.06-.46.09.67-.02-.14-.22-1.7-.43-3.4-.6-5.1-.58-5.63-.93-11.35-.33-16.99.03-.28.06-.55.1-.83.06-.53,0,.14-.05.34.04-.16.05-.33.07-.5.08-.54.17-1.08.28-1.62.2-1.03.45-2.06.76-3.06.14-.47.3-.93.47-1.39.08-.22.17-.43.25-.64.17-.45-.37.8,0,0s.81-1.66,1.31-2.45c.24-.37.49-.74.74-1.1.52-.74-.36.42-.02.02.15-.17.29-.35.44-.52.57-.66,1.2-1.28,1.86-1.85.16-.14.33-.27.49-.41.5-.42-.72.51.03-.01.37-.26.74-.52,1.12-.76.8-.5,1.63-.95,2.48-1.35.21-.1.43-.19.64-.29.55-.25-.43.17-.3.13.12-.04.24-.1.36-.15.46-.18.92-.35,1.39-.51.99-.34,1.99-.62,3-.87,1.12-.28,2.24-.5,3.38-.7.59-.1,1.18-.19,1.78-.28s-.49.06-.28.04c.17-.02.33-.04.5-.06.34-.04.68-.08,1.02-.12,1.7-.19,3.17-1.33,3.17-3.17,0-1.57-1.46-3.36-3.17-3.17-5.1.56-10.12,1.52-14.78,3.72-3.77,1.78-6.99,4.57-9.24,8.08-2.47,3.87-3.53,8.41-4.07,12.92-.67,5.61-.35,11.33.2,16.93.79,7.98,2.12,15.9,3.58,23.78,1.87,10.09,3.99,20.14,6.13,30.18,2.7,12.69,5.45,25.38,8.12,38.08,3.26,15.5,6.41,31.02,9.4,46.57,1.27,6.59,1.98,14.18,6.03,19.83,2.96,4.13,7.24,6.66,12.2,7.65,6.61,1.33,13.5.75,20.14-.04,10.71-1.27,21.33-3.32,31.92-5.36,15.58-3,31.14-6.12,46.73-9.1,18.03-3.45,36.07-6.86,54.12-10.24s36.08-6.73,54.13-10.08,35.93-6.67,53.88-10.03c17.59-3.29,35.16-6.65,52.73-10.02s35.4-6.8,53.11-10.16c17.65-3.34,35.3-6.64,52.98-9.82,16.26-2.93,32.55-5.72,48.85-8.42,11.53-1.91,23.1-3.74,34.55-6.11,7.62-1.58,15.31-3.36,22.43-6.58,4.8-2.17,9.38-5.37,11.99-10.06s3.07-10.4,2.6-15.75c-.38-4.37-1.28-8.66-2.08-12.97-1.31-7.01-2.6-14.03-3.89-21.05-2.8-15.25-5.61-30.49-8.51-45.72-2.7-14.19-5.62-28.33-8.46-42.5-2.05-10.25-3.78-20.66-6.79-30.69-2.04-6.81-4.89-14.02-10.38-18.82-5.8-5.07-13.39-6.63-20.91-6.72-5.28-.06-10.56.55-15.78,1.33-7.54,1.12-15.04,2.61-22.54,3.94-15.71,2.8-31.43,5.6-47.14,8.42-15.1,2.71-30.2,5.42-45.29,8.15s-29.25,5.3-43.86,7.98c-14.48,2.65-28.96,5.32-43.44,8.01s-28.95,5.4-43.43,8.14-29.35,5.57-44.02,8.39-30.16,5.82-45.23,8.77-31.22,6.14-46.82,9.24c-16.49,3.28-32.98,6.59-49.46,9.93-16.85,3.41-33.69,6.84-50.53,10.3-1.68.34-2.65,2.33-2.22,3.9.48,1.75,2.22,2.56,3.9,2.22h0Z"/>
      </g>
      <g id="keyboards">
        <g>
          <path class="cls-3" d="M76.19,168.07c161.22-32.26,266.65-51.65,413.08-78.1,41.08-7.41,38.97,3.61,45.82,35.2,4.32,19.92,9.03,47.13,12.53,65.81,3.97,21.1-12.28,20.87-84.4,33.68-50.44,8.98-102.58,19.24-152.93,28.67-50.36,9.45-100.7,18.7-151.05,28.32-70.15,13.41-84.86,18.13-88.01,1.51-16.65-87.88-32.71-110.17,4.95-115.1"/>
          <path class="cls-5" d="M77.04,171.13c26.56-5.32,53.13-10.59,79.72-15.8,24.2-4.75,48.4-9.44,72.62-14.09,22.92-4.4,45.86-8.74,68.8-13.04,22.55-4.23,45.1-8.41,67.66-12.56,23.26-4.28,46.53-8.52,69.8-12.75,12.22-2.22,24.44-4.43,36.66-6.64,6.27-1.13,12.53-2.29,18.81-3.4,4.94-.87,8.89-1.48,13.88-1.79,1.86-.12,3.73-.17,5.59-.11.76.02,1.52.07,2.28.13.39.03.78.09,1.18.12.47.03-.82-.14-.12-.02.23.04.47.07.7.11,1.3.22,2.6.54,3.84,1,.3.11,1.05.56.18.06.23.13.5.23.74.35.55.27,1.07.58,1.58.91.21.14.55.3.7.49,0,0-.64-.55-.28-.21.11.1.24.2.35.29.43.37.83.76,1.21,1.17.17.19.33.39.51.58.54.6-.37-.55.08.1.35.51.7,1.01,1.01,1.54.3.5.57,1.02.83,1.54.13.26.25.52.37.78.07.16.14.32.21.48-.15-.34-.23-.58-.05-.1.5,1.28.94,2.58,1.33,3.9,2.07,7.04,3.2,14.36,4.75,21.52,2.47,11.46,4.66,22.98,6.79,34.51,1.99,10.76,4.09,21.51,5.93,32.3.04.23.07.45.11.68.13.81-.03-.35,0-.05.05.47.11.93.14,1.4.07.86.09,1.73.04,2.6-.02.37-.07.73-.09,1.1-.02.38.18-1.01.02-.21-.04.21-.07.41-.12.62-.08.35-.17.7-.27,1.04-.05.18-.12.35-.18.52-.25.75.11-.2.06-.11-.34.61-.62,1.24-1.02,1.83-.09.13-.24.27-.3.41.38-.86.37-.45.07-.12-.27.3-.54.6-.84.88-.27.26-.55.49-.83.73-.62.54.4-.27.1-.07-.2.13-.38.28-.58.42-.77.53-1.58,1.01-2.41,1.44-.41.22-.83.42-1.26.62-.22.1-.45.2-.67.3-.92.41.48-.18-.22.1-1.13.45-2.27.87-3.43,1.26-2.72.9-5.5,1.64-8.29,2.31-7.78,1.87-15.68,3.27-23.55,4.66-11.36,2-22.73,3.91-34.09,5.91-27.52,4.84-54.97,10.01-82.42,15.23-27.52,5.23-55.04,10.5-82.58,15.66-28.11,5.26-56.24,10.48-84.35,15.74s-54.61,10.27-81.89,15.56c-9.58,1.86-19.15,3.74-28.77,5.36-1.82.31-3.63.6-5.45.88-.88.13-1.75.26-2.63.38-.24.03-1.46.2-.53.07-.44.06-.89.12-1.33.17-2.76.35-5.54.63-8.32.75-2.13.09-4.26.06-6.38-.15-.8-.08.4.08.09.02-.2-.04-.4-.06-.6-.1-.42-.07-.83-.16-1.25-.26-.39-.09-.77-.2-1.15-.32-.16-.05-.33-.11-.49-.17-.06-.02-.13-.05-.19-.07-.58-.21.17-.15.3.13-.13-.27-1.43-.76-1.73-.95-.14-.09-.69-.49-.12-.07s.03.02-.09-.09c-.24-.22-.48-.44-.7-.68-.1-.11-.19-.22-.29-.33-.47-.52.28.42.17.22-.17-.29-.38-.55-.55-.83s-.33-.6-.49-.91c-.05-.1-.11-.38-.2-.44.36.24.32.84.06.12-.97-2.67-1.32-5.54-1.86-8.32-1.18-6.05-2.41-12.09-3.68-18.12-2.13-10.09-4.41-20.14-6.67-30.2-1.71-7.63-3.44-15.25-4.84-22.95-.28-1.53-.54-3.07-.78-4.61-.12-.76-.23-1.51-.34-2.27-.12-.87.06.54-.05-.35-.05-.39-.1-.78-.14-1.17-.3-2.51-.51-5.04-.52-7.58,0-1.07.02-2.14.1-3.21.04-.52.1-1.04.15-1.56.02-.27-.14.89,0,.03.04-.27.09-.53.13-.79.16-.88.37-1.75.65-2.6.14-.42.31-.83.45-1.25.08-.24-.39.83-.04.11.1-.21.2-.42.3-.63.37-.72.81-1.38,1.26-2.04.39-.57-.58.67,0,.02.13-.14.25-.29.37-.43.28-.31.58-.62.89-.9.29-.27.59-.51.88-.77.54-.47-.66.45-.07.06.2-.14.39-.28.6-.42.78-.52,1.59-.98,2.44-1.39.2-.1.4-.19.61-.29.12-.06.25-.11.38-.17.38-.18-.34.1-.37.16.11-.21,1.18-.46,1.4-.54.99-.35,2-.65,3.02-.92,1.15-.3,2.32-.55,3.49-.77.6-.11,1.2-.22,1.8-.31.31-.05.63-.1.94-.14.19-.03.38-.05.57-.08.7-.11-.78.1-.06,0,1.7-.22,3.17-1.3,3.17-3.17,0-1.54-1.46-3.4-3.17-3.17-8.72,1.15-19,3.38-23.5,11.87-2.04,3.84-2.67,8.23-2.72,12.53-.06,5.73.83,11.48,1.82,17.11,3.14,17.9,7.73,35.54,11.5,53.31,1.27,5.98,2.5,11.97,3.67,17.97.61,3.13.96,6.44,2.05,9.46,1.17,3.23,3.19,6.07,6.31,7.66,3.65,1.86,7.88,2.19,11.92,2.13,6.32-.1,12.63-1.08,18.85-2.09,9.34-1.5,18.62-3.32,27.91-5.12,13.11-2.53,26.21-5.07,39.33-7.56,28.59-5.43,57.21-10.76,85.82-16.09,28.14-5.24,56.28-10.48,84.4-15.83s56.13-10.73,84.23-15.94c25.22-4.68,50.5-8.99,75.76-13.46,7.88-1.39,15.77-2.8,23.54-4.7,5.12-1.25,10.36-2.71,15.03-5.22,3.22-1.74,6.24-4.24,7.78-7.64,1.7-3.77,1.64-7.78,1.03-11.8-.7-4.61-1.69-9.2-2.52-13.79-1.07-5.84-2.13-11.67-3.2-17.51-2.18-11.8-4.39-23.61-6.92-35.34-1.59-7.35-2.76-14.85-4.85-22.08-1.55-5.38-3.86-10.63-8.45-14.08-4.9-3.68-11.48-4.27-17.41-4.12-10.89.28-21.7,2.77-32.38,4.71-24.52,4.43-49.05,8.88-73.56,13.35-23.08,4.21-46.16,8.45-69.23,12.73-22.98,4.26-45.95,8.56-68.91,12.92s-47.34,9.02-71,13.61c-25.72,4.99-51.43,10.03-77.13,15.13-13.34,2.64-26.68,5.3-40.01,7.97-1.68.34-2.65,2.34-2.22,3.9.48,1.75,2.22,2.55,3.9,2.22h0Z"/>
        </g>
        <g>
          <path class="cls-5" d="M285.28,130.72c2.77,14.57,5.51,29.14,8.24,43.71s5.57,29.81,8.35,44.72c2.01,10.78,4.03,21.55,6.05,32.33.32,1.69,2.35,2.64,3.9,2.22,1.77-.49,2.53-2.21,2.22-3.9-3.31-17.68-6.61-35.35-9.91-53.03-2.62-14.04-5.24-28.09-7.88-42.13-1.61-8.53-3.22-17.07-4.84-25.6-.32-1.68-2.35-2.64-3.9-2.22-1.76.48-2.54,2.21-2.22,3.9h0Z"/>
          <path class="cls-5" d="M255.4,136.32c2.77,14.57,5.51,29.14,8.24,43.71s5.57,29.81,8.35,44.72c2.01,10.78,4.03,21.55,6.05,32.33.32,1.69,2.35,2.64,3.9,2.22,1.77-.49,2.53-2.21,2.22-3.9-3.31-17.68-6.61-35.35-9.91-53.03-2.62-14.04-5.24-28.09-7.88-42.13-1.61-8.53-3.22-17.07-4.84-25.6-.32-1.68-2.35-2.64-3.9-2.22-1.76.48-2.54,2.21-2.22,3.9h0Z"/>
          <path class="cls-5" d="M225.51,141.92c2.77,14.57,5.52,29.14,8.24,43.72s5.56,29.81,8.35,44.72c2.01,10.78,4.03,21.55,6.05,32.33.32,1.69,2.35,2.64,3.9,2.22,1.77-.49,2.53-2.21,2.22-3.9-3.31-17.68-6.61-35.35-9.91-53.03-2.62-14.04-5.24-28.09-7.88-42.13-1.61-8.54-3.22-17.07-4.84-25.6-.32-1.68-2.35-2.64-3.9-2.22-1.76.48-2.54,2.21-2.22,3.9h0Z"/>
          <path class="cls-5" d="M195.62,147.53c2.77,14.57,5.52,29.14,8.24,43.71s5.57,29.81,8.35,44.72c2.01,10.77,4.03,21.55,6.05,32.32.32,1.69,2.35,2.64,3.9,2.22,1.77-.49,2.53-2.21,2.22-3.9-3.32-17.67-6.62-35.35-9.92-53.02-2.62-14.04-5.24-28.09-7.89-42.13-1.61-8.53-3.22-17.07-4.84-25.6-.32-1.68-2.35-2.64-3.9-2.22-1.76.48-2.54,2.21-2.22,3.9h0Z"/>
          <path class="cls-5" d="M165.75,153.13c2.77,14.57,5.52,29.14,8.24,43.71s5.56,29.81,8.35,44.72c2.01,10.77,4.03,21.55,6.04,32.32.32,1.69,2.35,2.64,3.9,2.22,1.77-.49,2.53-2.21,2.22-3.9-3.31-17.67-6.61-35.35-9.91-53.02-2.62-14.04-5.24-28.09-7.88-42.13-1.61-8.53-3.22-17.07-4.84-25.6-.32-1.68-2.35-2.64-3.9-2.22-1.76.48-2.54,2.21-2.22,3.9h0Z"/>
          <path class="cls-5" d="M135.85,158.73c2.77,14.57,5.52,29.14,8.25,43.71s5.56,29.81,8.35,44.72c2.01,10.78,4.03,21.55,6.05,32.33.32,1.69,2.35,2.64,3.9,2.22,1.77-.49,2.53-2.21,2.22-3.9-3.31-17.68-6.61-35.36-9.91-53.04-2.62-14.04-5.24-28.09-7.88-42.13-1.61-8.53-3.22-17.07-4.85-25.6-.32-1.68-2.35-2.64-3.9-2.22-1.76.48-2.54,2.21-2.22,3.9h0Z"/>
          <path class="cls-5" d="M105.97,164.33c2.77,14.57,5.52,29.14,8.25,43.71s5.56,29.81,8.35,44.72c2.01,10.78,4.03,21.55,6.05,32.32.32,1.69,2.35,2.64,3.9,2.22,1.77-.49,2.53-2.21,2.22-3.9-3.32-17.67-6.62-35.35-9.91-53.03-2.62-14.04-5.24-28.09-7.89-42.13-1.61-8.53-3.22-17.07-4.85-25.6-.32-1.68-2.35-2.64-3.9-2.22-1.76.48-2.54,2.21-2.22,3.9h0Z"/>
          <path class="cls-5" d="M76.1,169.93c2.77,14.57,5.51,29.14,8.24,43.71,2.79,14.91,5.57,29.81,8.35,44.72,2.01,10.78,4.03,21.55,6.05,32.33.32,1.69,2.35,2.64,3.9,2.22,1.77-.49,2.53-2.21,2.22-3.9-3.32-17.68-6.62-35.35-9.92-53.03-2.62-14.04-5.24-28.09-7.89-42.13-1.61-8.53-3.22-17.07-4.84-25.6-.32-1.68-2.35-2.64-3.9-2.22-1.76.48-2.54,2.21-2.22,3.9h0Z"/>
          <path class="cls-5" d="M494.45,91.5c2.76,14.57,5.51,29.14,8.24,43.71s5.57,29.81,8.35,44.72c2.01,10.77,4.03,21.55,6.05,32.32.32,1.69,2.35,2.64,3.9,2.22,1.77-.49,2.53-2.21,2.22-3.9-3.31-17.67-6.62-35.35-9.92-53.03-2.62-14.04-5.24-28.09-7.88-42.13-1.61-8.53-3.22-17.07-4.84-25.6-.32-1.68-2.35-2.64-3.9-2.22-1.76.49-2.54,2.21-2.22,3.9h0Z"/>
          <path class="cls-5" d="M464.58,97.1c2.77,14.57,5.51,29.14,8.24,43.71s5.56,29.81,8.35,44.72c2.01,10.78,4.03,21.55,6.05,32.33.32,1.69,2.35,2.64,3.9,2.22,1.77-.49,2.53-2.21,2.22-3.9-3.31-17.68-6.61-35.35-9.91-53.03-2.62-14.04-5.24-28.09-7.88-42.13-1.61-8.53-3.22-17.07-4.84-25.6-.32-1.68-2.35-2.64-3.9-2.22-1.76.48-2.54,2.21-2.22,3.9h0Z"/>
          <path class="cls-5" d="M434.68,102.71c2.77,14.57,5.52,29.14,8.25,43.71,2.79,14.9,5.57,29.81,8.35,44.72,2.01,10.78,4.03,21.55,6.05,32.33.32,1.69,2.35,2.64,3.9,2.22,1.77-.49,2.53-2.21,2.22-3.9-3.31-17.68-6.61-35.35-9.91-53.03-2.62-14.04-5.24-28.09-7.89-42.13-1.61-8.53-3.22-17.07-4.85-25.6-.32-1.68-2.35-2.64-3.9-2.22-1.76.48-2.54,2.21-2.22,3.9h0Z"/>
          <path class="cls-5" d="M404.8,108.31c2.77,14.57,5.52,29.14,8.25,43.71s5.56,29.81,8.35,44.72c2.01,10.78,4.03,21.55,6.05,32.33.32,1.69,2.35,2.64,3.9,2.22,1.77-.49,2.53-2.21,2.22-3.9-3.31-17.68-6.61-35.35-9.91-53.03-2.62-14.04-5.24-28.09-7.88-42.13-1.61-8.53-3.22-17.07-4.85-25.6-.32-1.68-2.35-2.64-3.9-2.22-1.76.48-2.54,2.21-2.22,3.9h0Z"/>
          <path class="cls-5" d="M374.92,113.91c2.77,14.57,5.51,29.14,8.24,43.72,2.79,14.9,5.57,29.81,8.35,44.72,2.01,10.77,4.03,21.55,6.05,32.32.32,1.69,2.35,2.64,3.9,2.22,1.77-.49,2.53-2.21,2.22-3.9-3.31-17.67-6.61-35.35-9.91-53.02-2.62-14.04-5.24-28.09-7.89-42.13-1.61-8.54-3.22-17.07-4.84-25.6-.32-1.68-2.35-2.64-3.9-2.22-1.76.48-2.54,2.21-2.22,3.9h0Z"/>
          <path class="cls-5" d="M345.03,119.5c2.77,14.57,5.52,29.14,8.25,43.72,2.79,14.91,5.56,29.81,8.35,44.72,2.01,10.78,4.03,21.55,6.04,32.33.32,1.69,2.35,2.64,3.9,2.22,1.77-.49,2.53-2.21,2.22-3.9-3.31-17.68-6.61-35.36-9.91-53.04-2.62-14.05-5.24-28.09-7.89-42.13-1.61-8.54-3.22-17.07-4.84-25.6-.32-1.68-2.35-2.64-3.9-2.22-1.76.48-2.54,2.21-2.22,3.9h0Z"/>
          <path class="cls-5" d="M315.15,125.12c2.77,14.57,5.52,29.14,8.25,43.71,2.79,14.91,5.56,29.81,8.34,44.72,2.01,10.78,4.03,21.55,6.05,32.33.32,1.69,2.35,2.64,3.9,2.22,1.77-.49,2.53-2.21,2.22-3.9-3.31-17.68-6.61-35.36-9.91-53.04-2.62-14.04-5.24-28.09-7.88-42.13-1.61-8.53-3.22-17.07-4.85-25.6-.32-1.68-2.35-2.64-3.9-2.22-1.76.48-2.54,2.21-2.22,3.9h0Z"/>
        </g>
        <g>
          <path class="cls-4" d="M288,128.09c3.7,19.17,5.63,30.09,10.35,55.23"/>
          <path class="cls-4" d="M258.12,133.69c3.69,19.17,5.64,30.08,10.35,55.23"/>
          <path class="cls-4" d="M228.23,139.29c3.71,19.17,5.64,30.08,10.36,55.23"/>
          <path class="cls-4" d="M168.47,150.49c3.7,19.17,5.64,30.08,10.36,55.24"/>
          <path class="cls-4" d="M138.58,156.1c3.71,19.16,5.64,30.07,10.35,55.23"/>
          <path class="cls-4" d="M78.82,167.3c3.7,19.18,5.64,30.09,10.36,55.24"/>
          <path class="cls-4" d="M497.17,88.87c3.69,19.17,5.64,30.08,10.36,55.24"/>
          <path class="cls-4" d="M437.4,100.07c3.71,19.17,5.64,30.09,10.36,55.24"/>
          <path class="cls-4" d="M407.52,105.68c3.71,19.16,5.65,30.09,10.36,55.24"/>
          <path class="cls-4" d="M347.76,116.88c3.71,19.17,5.64,30.08,10.35,55.24"/>
        </g>
      </g>
      <g>
        <g>
          <path class="cls-6" d="M111.36,108.9c127.29-24.23,210.33-39.74,325.61-61.16,32.34-6.02,29.51-3.58,31.28,1.97,1.13,3.5,1.73,8.42,2.36,11.75.72,3.78-11.73,5.53-68.49,16.04-39.68,7.36-80.82,15.16-120.52,22.6-39.67,7.44-79.33,14.83-119.03,22.32-55.31,10.41-67.12,12.98-67.71,10.01-3.08-15.72-12.93-18.39,16.5-23.53"/>
          <path class="cls-5" d="M112.2,111.96c18-3.43,36.01-6.85,54.01-10.26,16.55-3.14,33.11-6.27,49.67-9.4,15.54-2.93,31.08-5.86,46.62-8.78,15.16-2.85,30.32-5.69,45.47-8.53s30.41-5.69,45.62-8.52c15.76-2.94,31.52-5.87,47.27-8.81s32.85-6.43,49.36-9.04c.76-.12,1.53-.24,2.29-.35.31-.05.61-.09.92-.13.2-.03.39-.05.59-.08.62-.09-.22.03.15-.02,1.2-.16,2.41-.3,3.61-.42,1.66-.16,3.35-.28,5.02-.19.29.02.59.07.87.07.14,0-.93-.17-.34-.04.13.03.27.05.4.08.21.05.41.11.62.17.78.21-.54-.36-.13-.06.08.06.32.24.42.26-.5-.1-.52-.65-.23-.13.35.61-.35-.65-.19-.25.05.13.16.29.23.41.35.53-.23-.72-.13-.31.04.17.12.34.17.51.1.33.18.66.27.99.48,1.86,1.05,3.68,1.42,5.56s.68,3.81,1,5.72c.11.64.15,1.34.35,1.96-.01-.04-.08-1.11-.09-.57-.01.4.25-1.11.02-.38-.03.08.47-.98.2-.51s.44-.46.31-.39c-.1.06-.4.34-.45.43.14-.26.84-.56.31-.26-.12.07-.24.15-.36.22-.28.16-.57.29-.86.43-.61.3.87-.33.19-.08-.2.07-.4.15-.59.23-2.2.8-4.5,1.36-6.77,1.89-9.3,2.18-18.74,3.81-28.13,5.55-16.83,3.11-33.66,6.2-50.49,9.34-18.49,3.45-36.97,6.93-55.46,10.41-18.39,3.46-36.77,6.91-55.16,10.36-18.85,3.53-37.71,7.06-56.57,10.59s-37.67,7.07-56.5,10.62c-13.53,2.55-27.04,5.17-40.59,7.59-3.82.68-7.64,1.35-11.48,1.92-.36.05-.71.1-1.07.15-.17.02-.34.05-.51.07-.5.07.87-.11.14-.02-.62.08-1.23.16-1.85.22-.98.11-1.96.2-2.95.24-.68.03-1.34-.02-2.02-.03-.59-.02.95.21.42.06-.11-.03-.24-.05-.35-.07-.09-.02-.19-.07-.28-.08-.49-.05.83.41.47.2-.64-.37.63.59.26.22.17.16.64.71.59,1.03.09-.59-.34-1.58-.48-2.16-.25-1-.53-1.99-.83-2.97-.52-1.66-1.12-3.28-1.69-4.92-.23-.67-.46-1.34-.65-2.02-.08-.29-.16-.59-.23-.89-.03-.14-.05-.28-.09-.42-.14-.62.03.22.03.26,0-.25-.05-.52-.05-.77,0-.12.02-.25.01-.37-.02-.58-.16.6-.05.33.03-.08.22-.61.19-.68.05.13-.44.81-.15.39.07-.11.15-.24.21-.36.26-.53-.41.4-.17.21.09-.07.15-.18.23-.25.1-.09.21-.19.3-.29.46-.46-.14.09-.14.09.65-.23,1.32-.81,1.96-1.12.11-.05.22-.09.33-.15.01,0-.65.24-.32.14.22-.07.44-.17.65-.26.48-.18.97-.35,1.46-.5,1.18-.38,2.38-.7,3.59-.99,3.35-.82,6.74-1.45,10.14-2.05,1.69-.3,2.64-2.36,2.22-3.9-.49-1.78-2.21-2.51-3.9-2.22-5.87,1.03-12.1,1.95-17.53,4.53-3.06,1.45-5.45,4.07-5.37,7.62.07,3.14,1.53,6.14,2.51,9.07.66,1.97,1.11,3.97,1.63,5.98.22.87.56,1.6,1.22,2.23,2.64,2.51,7.71,1.4,10.89.98,9.1-1.2,18.13-2.98,27.16-4.67,17.01-3.18,34.01-6.41,51.01-9.61,19.18-3.61,38.37-7.2,57.56-10.79s38.22-7.15,57.32-10.74c18.79-3.53,37.58-7.07,56.37-10.6,18.77-3.53,37.54-7.05,56.33-10.51,13.5-2.49,27.01-4.89,40.48-7.53,6.01-1.18,12.36-2.13,18.11-4.32,1.54-.59,3.16-1.26,4.3-2.5.77-.84,1.27-1.91,1.3-3.05.01-.44-.06-.86-.13-1.29-.28-1.74-.59-3.49-.89-5.23-.55-3.18-1.2-6.56-2.35-9.61-.9-2.39-2.76-3.97-5.29-4.44-3.87-.72-7.94-.08-11.79.44-7.92,1.07-15.77,2.61-23.62,4.07-16.62,3.09-33.24,6.18-49.86,9.27s-31.61,5.89-47.42,8.84-30.91,5.78-46.36,8.67c-15.57,2.92-31.13,5.84-46.7,8.77-16.27,3.06-32.55,6.14-48.82,9.21-17.59,3.33-35.17,6.66-52.75,10-9.1,1.73-18.2,3.46-27.29,5.19-1.68.32-2.64,2.35-2.22,3.9.48,1.76,2.21,2.54,3.9,2.22h0Z"/>
        </g>
        <g>
          <path class="cls-7" d="M57.09,118.01c-7.93,1.49-11.4,6.45-9.74,15.29,1.43,7.59,8.44,10.05,14.76,8.86,7.92-1.48,11.41-8.1,9.15-16.29-1.71-6.2-7.44-9.12-14.17-7.86"/>
          <path class="cls-5" d="M56.25,114.95c-5.81,1.13-11.04,4.78-12.14,10.91-1.17,6.52.68,14.1,6.7,17.63,5.3,3.11,13,2.85,18.06-.65,5.74-3.96,7.24-10.96,5.55-17.47-.96-3.7-3.25-7.01-6.62-8.89-3.55-1.99-7.61-2.22-11.54-1.52-1.69.3-2.64,2.36-2.22,3.9.49,1.78,2.21,2.52,3.9,2.22.73-.13.72-.13,1.58-.16.66-.03,1.32,0,1.98.06.98.08-.52-.16.42.07.2.05.41.09.61.14.3.07.59.16.89.26.19.06.38.13.57.21-.29-.13-.27-.11.07.04.53.28,1.04.56,1.53.91-.52-.37.23.21.28.25.15.13.29.27.43.41.21.21.41.44.6.67-.39-.49.2.31.22.34.17.26.32.53.47.8.1.19.19.37.28.57-.11-.27-.09-.22.05.14.18.54.35,1.08.48,1.64.08.34.15.68.22,1.02,0,0,.14,1.09.08.48.07.64.1,1.28.09,1.92,0,.31-.03.61-.04.92-.02.69.11-.38-.03.34-.11.57-.23,1.13-.41,1.68-.03.08-.36.95-.08.29-.11.26-.23.51-.36.75-.22.41-.47.79-.73,1.17.4-.57-.13.14-.19.22-.25.28-.51.54-.78.79-.06.05-.78.61-.23.21-.23.17-.47.33-.72.48-.42.26-.86.49-1.31.7.58-.27-.35.13-.39.14-.3.11-.61.2-.92.29s-.64.17-.96.23c-.11.02-1.37.21-.66.13-1.08.12-2.15.1-3.24.04-.93-.05.6.15-.31-.04-.28-.06-.57-.11-.85-.17-.56-.13-1.1-.31-1.64-.51.65.24-.2-.1-.28-.14-.25-.13-.5-.26-.74-.41s-.48-.3-.71-.47c.55.39-.18-.16-.24-.22-.36-.32-.69-.67-1-1.04.42.5-.17-.26-.2-.31-.22-.34-.41-.7-.6-1.06-.44-.81.12.48-.18-.41-.1-.32-.21-.63-.3-.95-.15-.57-.26-1.15-.36-1.73-.05-.31-.11-.81-.14-1.5s-.04-1.43.02-2.14c.01-.19.03-.38.05-.57-.08.75.08-.38.12-.52.06-.26.13-.51.2-.77.05-.15.46-1.17.12-.44.21-.45.44-.89.71-1.3.08-.12.59-.73.08-.15.21-.25.43-.49.66-.72.18-.17.37-.33.55-.5.27-.22.26-.21-.05.03.14-.1.28-.2.42-.29.45-.29.92-.53,1.39-.78.78-.42-.58.18.27-.12.37-.13.73-.27,1.11-.38.7-.21,1.41-.38,2.13-.52,1.68-.33,2.65-2.34,2.22-3.9-.48-1.76-2.22-2.55-3.9-2.22h0Z"/>
        </g>
        <g>
          <path class="cls-1" d="M499.31,35.1c-7.94,1.48-11.4,6.46-9.75,15.29,1.43,7.59,8.44,10.05,14.77,8.87,7.91-1.48,11.4-8.11,9.15-16.3-1.71-6.19-7.45-9.11-14.17-7.85"/>
          <path class="cls-5" d="M498.46,32.04c-5.81,1.13-11.04,4.78-12.15,10.91-1.18,6.52.68,14.09,6.69,17.63,5.3,3.11,13,2.86,18.07-.64,5.74-3.97,7.24-10.96,5.55-17.48-.96-3.7-3.26-7.01-6.63-8.89-3.55-1.99-7.6-2.22-11.54-1.52-1.69.3-2.64,2.36-2.22,3.9.49,1.78,2.21,2.52,3.9,2.22.73-.13.71-.13,1.58-.16.66-.03,1.32,0,1.98.06.98.08-.52-.16.42.07.2.05.41.09.61.14.3.07.59.16.89.26.19.06.38.13.57.21-.29-.13-.27-.11.07.04.53.28,1.04.56,1.53.91-.52-.37.23.21.28.25.15.13.29.27.43.41.21.21.41.43.6.67-.39-.49.2.3.22.34.17.26.32.53.47.8.1.19.19.37.28.57-.11-.27-.09-.22.05.14.18.54.35,1.08.48,1.64.08.34.15.68.21,1.02,0,0,.14,1.09.08.48.07.64.1,1.28.09,1.92,0,.31-.03.61-.04.92-.02.69.11-.38-.03.34-.11.57-.23,1.13-.41,1.68-.03.08-.36.95-.08.29-.11.26-.23.51-.36.75-.22.41-.47.79-.73,1.17.39-.57-.13.14-.19.22-.25.28-.51.54-.78.79-.06.05-.78.61-.23.22-.23.17-.47.33-.72.48-.42.26-.86.49-1.31.7.58-.27-.35.13-.39.14-.3.11-.61.2-.92.29s-.64.17-.96.23c-.11.02-1.36.21-.66.13-1.09.12-2.15.1-3.24.04-.93-.05.6.15-.31-.04-.28-.06-.57-.11-.85-.17-.56-.13-1.1-.31-1.64-.51.65.24-.2-.1-.28-.14-.25-.13-.5-.26-.74-.41s-.48-.3-.71-.47c.55.39-.18-.16-.24-.22-.36-.32-.69-.67-1-1.04.42.5-.17-.26-.2-.31-.22-.34-.41-.7-.6-1.06-.44-.81.12.48-.18-.41-.1-.32-.21-.63-.3-.95-.15-.57-.26-1.15-.36-1.73-.05-.3-.1-.81-.14-1.5s-.04-1.43.02-2.14c.01-.19.03-.38.05-.57-.08.75.09-.38.12-.52.06-.26.13-.51.2-.77.05-.15.46-1.17.12-.44.21-.45.44-.89.71-1.3.08-.12.59-.74.08-.15.21-.25.43-.49.66-.73.18-.18.37-.33.55-.5.27-.22.26-.21-.05.03.14-.1.28-.2.42-.29.45-.29.92-.53,1.39-.78.78-.41-.58.18.27-.12.37-.13.73-.27,1.11-.38.7-.21,1.41-.38,2.13-.51,1.68-.33,2.65-2.34,2.22-3.9-.48-1.76-2.22-2.54-3.9-2.22h0Z"/>
        </g>
      </g>
      <g>
        <path class="cls-5" d="M38.19,105.71c-8.9,1.69-18.76,5.64-20.68,15.56-.87,4.47-.35,9,.41,13.44.93,5.41,2.32,10.74,3.57,16.08,1.71,7.35,3.29,15.09,4.14,22.3.2,1.7,1.31,3.17,3.17,3.17,1.56,0,3.38-1.46,3.17-3.17-.81-6.87-2.04-13.67-3.55-20.41-1.22-5.46-2.62-10.87-3.75-16.35-.23-1.14-.46-2.28-.65-3.42-.09-.54-.18-1.09-.26-1.63-.05-.33-.11-.83-.03-.18-.04-.3-.07-.59-.11-.89-.22-1.93-.32-3.88-.18-5.82.03-.38.22-1.52.03-.54.08-.44.14-.89.24-1.33.18-.83.47-1.6.75-2.4-.33.94.09-.15.26-.47.19-.35.4-.69.62-1.02.11-.16.25-.32.35-.49.03-.05-.44.51,0,.03.3-.33.59-.66.92-.98.18-.17.36-.34.54-.5.12-.11.73-.6.34-.29s.25-.18.39-.27c.22-.15.45-.3.67-.44.48-.3.97-.58,1.47-.84.26-.14.53-.27.8-.4.16-.08.94-.42.58-.27s.46-.18.63-.25c.31-.12.63-.23.95-.34.67-.23,1.36-.45,2.04-.64,1.6-.45,3.21-.81,4.84-1.12s2.64-2.35,2.22-3.9c-.48-1.76-2.21-2.54-3.9-2.22h0Z"/>
        <path class="cls-5" d="M555.02,127.26c5.21,17.15,7.32,34.87,10.59,52.43.31,1.69,2.35,2.64,3.9,2.22,1.77-.49,2.53-2.21,2.22-3.9-3.27-17.56-5.38-35.28-10.59-52.43-1.18-3.9-7.31-2.24-6.12,1.69h0Z"/>
      </g>
    </g>
  </g>
</svg>