<?xml version="1.0" encoding="UTF-8"?>
<svg id="shaker" xmlns="http://www.w3.org/2000/svg" version="1.1" viewBox="0 0 218.7 433.4">
  <!-- Generator: Adobe Illustrator 29.2.1, SVG Export Plug-In . SVG Version: 2.1.0 Build 116)  -->
  <defs>
    <style>
      .st0 {
        fill: #6c58b0;
      }

      .st1 {
        fill: #ffda59;
      }

      .st2 {
        fill: #ff5898;
      }

      .st3 {
        fill: #2f215c;
      }

/* Our Own Styling */

#shaker {
    transition: all 1s ease;
}

#shakerhandle {
    transition: all 0.75s ease;
}

#shakerhead {
    transition: all 0.75s ease;
    transform-origin: center;
}

#shaker:hover {
  animation: shake 2s;
  animation-iteration-count: infinite;
  filter: blur(2px);
  filter: drop-shadow(3px 3px 3px red);
}
@keyframes shake {
  0% { transform: rotate(-15deg); }
  50% { transform: rotate(0deg); }
  100% { transform: rotate(-15deg); }
}
    </style>
  </defs>
  <g id="shakerhandle">
    <g id="shakerhandlefill">
      <path class="st0" d="M66.8,225.7c-7.3,47.8-109,172.2-39.4,200.7,79.2,32.4,62-156.3,77.9-191.7"/>
      <path class="st3" d="M63.8,224.9c-1,6.4-3.2,12.6-5.6,18.6-.4.9-.7,1.8-1.1,2.7,0,.1-.4.9-.2.4s0,.2-.1.3c-.2.5-.4.9-.6,1.4-.8,1.9-1.7,3.8-2.5,5.6-1.8,4-3.7,7.9-5.7,11.8-4.3,8.7-8.7,17.2-13.1,25.9s-9.1,18-13.4,27.1-8.3,18.2-11.9,27.6c-3.1,8.4-5.9,16.9-7.7,25.6-1.5,7.6-2.5,15.6-1.6,23.4.8,7.1,2.9,14.1,7.1,19.9,4.7,6.5,11.2,10.9,18.5,14,6.1,2.6,12.8,4.3,19.5,4,5.8-.2,11.4-1.9,16.2-5,4.8-3.1,9.1-7.7,12.5-12.7,3.8-5.6,6.6-11.7,8.9-18,2.7-7.1,4.7-14.4,6.3-21.8,1.8-8.1,3.3-16.2,4.4-24.4,1.3-8.7,2.3-17.5,3.2-26.2s1.6-16.9,2.3-25.4c.7-7.9,1.3-15.8,2-23.6.3-3.6.7-7.1,1.1-10.7.2-1.7.4-3.3.6-5,0-.8.2-1.6.3-2.4,0-.4,0-.8.2-1.1,0-.1,0-.8,0-.2s0-.1,0-.3c.7-5.2,1.6-10.5,3-15.6.3-.9.6-1.9.9-2.8.2-.4.3-.9.5-1.3,0-.2.2-.4.2-.6.2-.4-.4.9-.2.4,0-.1,0-.2.1-.3.7-1.6.4-3.4-1.1-4.3-1.4-.8-3.6-.4-4.3,1.1-1.9,4.1-2.9,8.6-3.8,13-1.2,6.1-1.9,12.3-2.6,18.5-.8,7.3-1.4,14.5-2,21.8-.7,8.1-1.3,16.2-2,24.4-.8,8.5-1.6,17-2.6,25.4-.2,2.1-.5,4.2-.8,6.3,0,.5-.1,1-.2,1.5,0,.3,0,.5-.1.8,0,.6,0-.5,0,.2-.2,1.1-.3,2.1-.4,3.2-.6,4.1-1.2,8.2-1.9,12.3-1.4,7.8-3,15.6-5.1,23.2-1,3.5-2.1,7-3.3,10.5-.6,1.6-1.2,3.2-1.9,4.8,0,.2-.2.4-.3.6.2-.4.2-.5,0,0s-.3.8-.5,1.2c-.3.7-.7,1.5-1,2.2-1.3,2.8-2.8,5.6-4.6,8.2-.8,1.2-1.7,2.4-2.5,3.6.6-.8,0,0-.2.3s-.5.6-.7.9c-.4.5-.9,1-1.3,1.5-.9,1-1.9,2-3,2.9-.2.2-.5.4-.7.6-.1.1-.3.2-.4.3-.5.4.2-.1.1,0-.5.4-1.1.8-1.6,1.1-1.1.7-2.2,1.4-3.3,1.9-.3.1-.6.3-.8.4-.1,0-.3.1-.4.2-.7.3.5-.2,0,0-.6.2-1.2.5-1.8.7-1.2.4-2.5.8-3.8,1-.3,0-.6.1-.9.1-.1,0-.8.1-.2,0s0,0-.2,0c-.7,0-1.4.1-2.1.2-1.4,0-2.8,0-4.2,0-.4,0-.7,0-1.1-.1-.2,0-.3,0-.5,0-.7,0,.7.1,0,0-.8-.1-1.5-.2-2.2-.4-3.4-.7-6.7-1.8-9.9-3.1.5.2.2,0,0,0-.2-.1-.5-.2-.7-.3-.5-.2-1-.4-1.4-.7-.8-.4-1.7-.9-2.5-1.3s-1.6-1-2.4-1.5c-.4-.2-.7-.5-1.1-.8-.2-.2-1.3-1-.6-.4-1.4-1.1-2.7-2.2-3.9-3.5-.6-.6-1.1-1.2-1.6-1.8-.1-.2-.3-.3-.4-.5-.1-.1.4.6,0,0-.2-.4-.5-.7-.8-1-.9-1.3-1.7-2.7-2.4-4.1-.2-.4-.3-.7-.5-1.1,0-.2-.1-.3-.2-.5-.3-.7.2.6,0,0-.3-.8-.6-1.5-.9-2.3-.5-1.6-.9-3.2-1.2-4.8-.2-.8-.3-1.6-.4-2.5,0-.4,0,.7,0,.3,0-.1,0-.2,0-.3,0-.2,0-.4,0-.6,0-.5,0-.9-.1-1.4-.3-3.7-.2-7.4,0-11,0-.9.2-1.9.3-2.8,0-.3,0-.5,0-.8,0,.5,0,.4,0,0,0-.5.2-1,.2-1.5.3-2,.7-4,1.1-6,.9-4.2,2.1-8.4,3.4-12.6,1.4-4.4,2.9-8.7,4.6-13,.9-2.2,1.7-4.4,2.6-6.6.2-.5.5-1.1.7-1.6s-.1.3.1-.2c.1-.3.3-.7.4-1,.5-1.1,1-2.3,1.5-3.4,4-9.1,8.4-18.1,12.8-27s8.9-17.5,13.4-26.3c4-8,8.1-16,11.8-24.1,3.1-6.9,6.1-13.9,8.3-21.1.8-2.7,1.5-5.5,1.9-8.3.3-1.7-.4-3.4-2.2-3.9-1.5-.4-3.6.5-3.9,2.2h0Z"/>
    </g>
    <g id="shakerhandlelines">
      <path class="st3" d="M30.8,311.1c15.9,4.8,31.7,9.6,47.6,14.3,4.4,1.3,8.8,2.7,13.3,4,3.9,1.2,5.6-4.9,1.7-6.1-15.9-4.8-31.7-9.6-47.6-14.3-4.4-1.3-8.8-2.7-13.3-4-3.9-1.2-5.6,4.9-1.7,6.1h0Z"/>
      <path class="st3" d="M26.1,326.7c15.9,4.8,31.7,9.6,47.6,14.4,4.4,1.3,8.8,2.7,13.3,4,3.9,1.2,5.6-4.9,1.7-6.1-15.9-4.8-31.7-9.6-47.6-14.4-4.4-1.3-8.8-2.7-13.3-4-3.9-1.2-5.6,4.9-1.7,6.1h0Z"/>
      <path class="st3" d="M18.5,341.5c17.4,5.2,34.8,10.5,52.2,15.7,4.9,1.5,9.7,2.9,14.6,4.4,3.9,1.2,5.6-4.9,1.7-6.1-17.4-5.2-34.8-10.5-52.2-15.7-4.9-1.5-9.7-2.9-14.6-4.4-3.9-1.2-5.6,4.9-1.7,6.1h0Z"/>
      <path class="st3" d="M8.2,368.3c18.5,5.5,36.9,11.1,55.3,16.7,5.1,1.5,10.2,3.1,15.3,4.6,3.9,1.2,5.6-4.9,1.7-6.1-18.5-5.5-36.9-11.1-55.3-16.7-5.1-1.5-10.2-3.1-15.4-4.6-3.9-1.2-5.6,4.9-1.7,6.1h0Z"/>
    </g>
  </g>
  <g id="shakerhead">
    <g id="shakerheadfill">
      <path class="st2" d="M87,231.3C23.6,202.9,8.8,125.7,33.7,68.3,58.6,11.2,104.8-12.4,163.2,13.8c98.1,44.1,50.1,230.6-76.2,217.5"/>
      <path class="st3" d="M88.6,228.6c-6-2.7-11.8-6-17.3-9.8-2.8-1.9-4.8-3.4-7.3-5.6-2.3-2-4.6-4.1-6.8-6.3s-4.3-4.6-6.3-7c-.5-.6-.9-1.1-1.4-1.7,0-.1-.2-.2-.3-.4-.3-.4.2.3,0-.1-.2-.3-.5-.7-.8-1-.9-1.2-1.8-2.5-2.7-3.8-3.5-5.1-6.5-10.4-9-15.9-1.3-2.9-2.2-4.9-3.3-8-1.1-2.9-2-5.8-2.9-8.7-1.7-5.9-3-11.9-3.8-18.1,0-.5,0,.4,0,0,0-.2,0-.3,0-.5,0-.4-.1-.8-.1-1.2,0-.8-.2-1.6-.3-2.3-.1-1.5-.3-3-.4-4.5-.2-3.1-.3-6.3-.3-9.4,0-6.2.4-12.4,1.2-18.6,0,.5,0-.4,0-.6,0-.4.1-.7.2-1.1.1-.8.2-1.6.4-2.3.3-1.6.5-3.1.9-4.7.6-3,1.3-6.1,2.1-9.1s1.7-5.9,2.7-8.9c.5-1.4,1-2.9,1.6-4.3.3-.7.6-1.5.9-2.2.1-.3.3-.7.4-1,0-.1.1-.3.2-.4.1-.3-.1.2.1-.2,2.8-6.6,6-13,9.7-19.1,1.7-2.9,3.6-5.7,5.6-8.5s3.5-4.7,5.7-7.3c4-4.7,8.4-9,13.2-12.9.3-.2.6-.5.9-.8-.4.3.3-.2.4-.3.6-.5,1.2-.9,1.8-1.3,1.2-.9,2.5-1.7,3.7-2.5,2.4-1.6,5-3,7.6-4.3,1.3-.6,2.6-1.2,3.9-1.8-.5.2.3-.1.5-.2.3-.1.6-.2.9-.4.7-.3,1.5-.6,2.2-.8,2.7-1,5.5-1.8,8.3-2.4,1.4-.3,2.8-.6,4.2-.8.7-.1,1.5-.2,2.2-.3.2,0,.3,0,.4,0-.1,0-.6,0,0,0,.4,0,.8,0,1.2-.1,3-.3,6-.5,9-.5s6.2.2,9.3.5c.8,0,1.5.2,2.3.3.7,0,.3,0,.1,0,.2,0,.4,0,.6,0,.4,0,.9.1,1.3.2,1.6.3,3.2.6,4.8.9,7,1.4,13.8,3.6,20.4,6.2,4.7,1.9,9.5,4.1,14,6.8,1.9,1.1,3.8,2.4,5.6,3.6.4.3.9.6,1.3.9.2.1.4.3.6.5.2.2.8.6.2.2.9.7,1.7,1.4,2.6,2.1,3.3,2.8,6.3,5.8,9.2,9,.7.8,1.4,1.6,2.1,2.5.3.4.6.8.9,1.2-.4-.5-.1-.2,0,.1.2.2.3.5.5.7,1.3,1.7,2.4,3.4,3.6,5.2,2.3,3.6,4.3,7.3,6,11.2.2.5.4,1,.7,1.5,0,.2.4.9,0,.1.1.3.2.5.3.8.4,1,.8,2,1.2,3,.8,2,1.4,4,2.1,6.1,1.2,4.2,2.2,8.4,3,12.6.2,1.1.4,2.1.5,3.2,0,.3,0,.6.1.9,0,.4,0,.6,0,0,0,.6.1,1.2.2,1.8.3,2.2.4,4.4.6,6.6.3,4.5.3,8.9.1,13.4,0,2.3-.2,4.5-.4,6.8-.1,1.2-.2,2.3-.4,3.4,0,.5-.1,1.1-.2,1.6,0,.2,0,.3,0,.5,0,0,0-.6,0-.3,0,.3,0,.6-.1.9-1.3,9.1-3.5,18.1-6.6,26.8-.8,2.2-1.6,4.4-2.4,6.5-.2.5-.4,1-.6,1.5-.3.7.1-.3,0,.2-.1.3-.2.6-.4.9-.5,1.1-.9,2.1-1.4,3.2-1.9,4.2-4.1,8.3-6.4,12.3s-4.9,7.8-7.6,11.5c-.3.4-.6.9-1,1.3-.1.1-.7.9-.2.3-.2.2-.4.5-.6.7-.7.9-1.4,1.8-2.1,2.6-1.5,1.8-3,3.5-4.6,5.2-3.2,3.4-6.5,6.6-10.1,9.6-.9.7-1.7,1.4-2.6,2.2-.4.3-.9.7-1.3,1,.6-.5-.2.1-.3.2-.2.2-.5.4-.8.6-1.9,1.4-3.8,2.7-5.7,4-3.9,2.5-8,4.8-12.2,6.8-1,.5-2.1,1-3.1,1.4-.3.1-.6.2-.9.4-.5.2.5-.2-.2.1-.6.2-1.1.5-1.7.7-2.2.9-4.5,1.7-6.7,2.4-4.7,1.5-9.4,2.6-14.2,3.4-.6.1-1.2.2-1.9.3-.3,0-.6,0-.9.1-.1,0-.2,0-.4,0-.6,0,.4,0,0,0-1.2.2-2.5.3-3.7.4-2.6.2-5.2.4-7.8.5-5.2.1-10.4,0-15.6-.6-1.7-.2-3.2,1.6-3.2,3.2s1.5,3,3.2,3.2c10.8,1.1,21.7.8,32.4-1.1,9.9-1.7,19.4-4.9,28.4-9.2s16.7-9.6,24-15.9,13.8-13.4,19.4-21.2,10.3-15.8,14.2-24.4,7.1-17.8,9.3-27.1,3.5-18.7,3.8-28.2-.4-18.5-2.1-27.6-4.4-17.4-8.1-25.5-8.6-15.5-14.5-22.1-13.3-12.6-21.2-17.1c-5.1-3-10.6-5.3-16.1-7.5-6.6-2.5-13.5-4.6-20.4-5.9-12.7-2.4-25.8-2.5-38.3.6-12,2.9-23,8.8-32.5,16.5-10.3,8.3-18.6,18.9-25.3,30.2s-12.5,24.5-16,37.8c-3.3,12.4-4.9,25.3-4.9,38.1s1.9,25.5,5.5,37.7,9,23.8,16.2,34.2,16.8,20.1,27.7,27.6c5.4,3.7,11.1,6.9,17,9.6,1.6.7,3.4.4,4.3-1.1.8-1.4.4-3.6-1.1-4.3h0Z"/>
    </g>
    <g id="shakerheaddotted">
      <path class="st3" d="M56.9,70.4c3.1,0,6.1-2.7,6-5.9s-2.6-6-6-6-6.1,2.7-6,6,2.6,5.9,6,5.9h0Z"/>
      <path class="st3" d="M90.2,78.4c3.1,0,6.1-2.7,5.9-5.9s-2.6-5.9-5.9-5.9-6.1,2.7-5.9,5.9,2.6,5.9,5.9,5.9h0Z"/>
      <path class="st3" d="M125.3,87c3.1,0,6.1-2.7,5.9-5.9s-2.6-5.9-5.9-5.9-6.1,2.7-5.9,5.9,2.6,5.9,5.9,5.9h0Z"/>
      <path class="st3" d="M161,100.8c3.1,0,6.1-2.7,5.9-5.9s-2.6-5.9-5.9-5.9-6.1,2.7-5.9,5.9,2.6,5.9,5.9,5.9h0Z"/>
      <path class="st3" d="M195.4,112.1c3.1,0,6.1-2.7,5.9-5.9s-2.6-5.9-5.9-5.9-6.1,2.7-5.9,5.9,2.6,5.9,5.9,5.9h0Z"/>
      <path class="st3" d="M107.7,159.6c3.1,0,6.1-2.7,5.9-5.9s-2.6-5.9-5.9-5.9-6.1,2.7-5.9,5.9,2.6,5.9,5.9,5.9h0Z"/>
      <path class="st3" d="M74.9,146.6c3.1,0,6.1-2.7,5.9-5.9s-2.6-5.9-5.9-5.9-6.1,2.7-5.9,5.9,2.6,5.9,5.9,5.9h0Z"/>
      <path class="st3" d="M43.7,135.2c3.1,0,6.1-2.7,6-5.9s-2.6-5.9-6-5.9-6.1,2.7-6,5.9c.1,3.2,2.6,5.9,6,5.9h0Z"/>
      <path class="st3" d="M139.9,167.3c3.1,0,6.1-2.7,5.9-5.9s-2.6-5.9-5.9-5.9-6.1,2.7-5.9,5.9,2.6,5.9,5.9,5.9h0Z"/>
      <path class="st3" d="M174.1,175.5c3.1,0,6.1-2.7,5.9-5.9s-2.6-5.9-5.9-5.9-6.1,2.7-5.9,5.9,2.6,5.9,5.9,5.9h0Z"/>
    </g>
    <g id="shakerheadyellow">
      <g>
        <path class="st1" d="M133.9,141.1c23.1,7,46.6,12,69.9,17.4,4.1-9.7,7.2-19.8,9.2-30-60.5-18.4-120.9-37-181.6-54.7-3.6,9.4-6.1,19.2-7.6,29.2,36,14.7,72.9,26.7,110.1,38h0Z"/>
        <path class="st3" d="M133.1,144.2c17.9,5.4,36.1,9.7,54.3,13.8,5.2,1.2,10.4,2.4,15.6,3.6,1.2.3,3-.2,3.6-1.5,4.2-9.9,7.5-20.2,9.5-30.8.3-1.7-.5-3.4-2.2-3.9-23.6-7.2-47.3-14.4-70.9-21.6s-47-14.2-70.5-21.2c-13.4-4-26.7-7.9-40.1-11.8-1.8-.5-3.3.6-3.9,2.2-3.6,9.4-6.1,19.2-7.6,29.2-.3,1.9.5,3.2,2.2,3.9,28,11.4,56.7,21.3,85.5,30.4,8.2,2.6,16.4,5.1,24.6,7.6,3.9,1.2,5.6-4.9,1.7-6.1-29-8.8-57.8-18-86.1-28.6-8-3-16-6.1-24-9.3l2.2,3.9c1.5-10,4-19.8,7.6-29.2l-3.9,2.2c23.7,6.9,47.4,13.9,71.1,21.1,23.5,7.1,47,14.2,70.5,21.4,13.3,4.1,26.7,8.1,40,12.2l-2.2-3.9c-1.9,10-4.9,19.9-8.9,29.2l3.6-1.5c-18.2-4.2-36.4-8.2-54.4-13-5.2-1.4-10.4-2.9-15.5-4.4-3.9-1.2-5.6,4.9-1.7,6.1h0Z"/>
      </g>
      <path class="st3" d="M28.4,91.3c23.2,8.7,46.6,17,70.2,24.7,21.5,7,43.2,13.3,65.1,19.1,13.5,3.6,27,7,40.5,10.3,4,1,5.7-5.1,1.7-6.1-23.4-5.7-46.7-11.7-69.8-18.4-21.9-6.3-43.7-13.3-65.2-20.8-13.7-4.8-27.3-9.7-40.8-14.8-1.6-.6-3.5.7-3.9,2.2-.5,1.8.6,3.3,2.2,3.9h0Z"/>
    </g>
    <g id="shakerheadlines">
      <path class="st3" d="M143.4,27.7c1.1.1-.3,0,.4,0,.3,0,.6,0,.9.1.5,0,.9.2,1.4.2,1.1.2,2.3.5,3.4.8,2.1.6,4.2,1.4,6,2.2,4.1,1.8,8.1,4.3,11.5,6.9,7.6,5.9,13.8,13.3,18.1,21.9,2.2,4.4,3.9,9.3,4.6,14.4.3,1.7,2.4,2.6,3.9,2.2,1.8-.5,2.5-2.2,2.2-3.9-1.6-10.1-6.4-19.4-12.6-27.4s-14.3-14.8-23.4-19.1c-5.2-2.5-10.5-4.1-16.2-4.8-1.7-.2-3.2,1.6-3.2,3.2s1.5,3,3.2,3.2h0Z"/>
      <path class="st3" d="M43,169.5c8.4,15.6,19.7,30,34.2,40.5,4,2.9,8.2,5.4,12.6,7.5,1.6.7,3.4.4,4.3-1.1.8-1.4.4-3.6-1.1-4.3-15.3-7.1-27.6-19.5-37-33.3-2.7-4-5.2-8.1-7.5-12.3-1.9-3.6-7.4-.4-5.5,3.2h0Z"/>
    </g>
  </g>
</svg>