<?xml version="1.0" encoding="UTF-8"?>
<svg id="Layer_2" data-name="Layer 2" xmlns="http://www.w3.org/2000/svg" viewBox="0 0 154.43 152.91">
  <defs>
    <style>
      .cls-1 {
        fill: #ffda59;
      }

      .cls-2 {
        fill: #2f215c;
      }
    </style>
  </defs>
  <g id="Layer_1-2" data-name="Layer 1">
    <g id="smile">
      <g>
        <path class="cls-1" d="M66.02,4.26C18.66,11.22-3.07,39.92,4.73,92.72c6.7,45.31,47.74,61.54,85.57,55.95,47.28-6.98,69.51-45.45,57.97-94.57C139.54,17,106.21-1.68,66.02,4.26"/>
        <path class="cls-2" d="M65.18,1.2c-14.93,2.21-29.72,6.96-41.73,16.36C12.69,25.98,5.58,38.08,2.4,51.29.55,58.96-.12,66.91.02,74.79c.15,9.1,1.05,18.48,3.4,27.29,4.26,16.04,14.11,29.92,28.15,38.83s29.39,12.09,45.06,11.99c16.2-.11,32.93-3.93,46.65-12.78,12.8-8.26,22.23-20.6,27.09-35.02,5.38-15.96,4.98-33.39,1.45-49.69-1.81-8.37-4.81-16.49-9.38-23.76s-9.9-12.86-16.43-17.71C112.56,3.94,95.52-.26,78.94.01c-4.61.07-9.2.52-13.77,1.18-1.7.25-2.63,2.4-2.22,3.9.5,1.82,2.2,2.46,3.9,2.22,1.88-.27,4.19-.53,6.41-.7s4.25-.25,6.37-.27,4.26.04,6.38.17c.96.06,1.92.14,2.87.23.56.05,1.11.11,1.67.18.22.03.44.05.66.08.66.08-.24-.04.48.06,3.92.57,7.79,1.4,11.58,2.55,1.86.57,3.7,1.21,5.51,1.93.19.08.39.16.58.23-.07-.03.88.37.49.2s.55.24.48.21c.19.08.38.17.57.25.89.4,1.78.83,2.65,1.27,6.89,3.49,12.22,7.5,17.36,13.17.62.68,1.22,1.38,1.8,2.08.26.32.52.63.77.96-.05-.06.57.74.32.41-.14-.19.33.45.4.54,1.14,1.54,2.22,3.14,3.21,4.78s1.9,3.3,2.74,5.01c.43.87.84,1.75,1.22,2.64.3.69.58,1.38.98,2.43,2.99,7.88,4.62,16.52,5.32,24.48.36,4.07.47,8.16.31,12.25-.08,1.96-.22,3.91-.44,5.86-.05.47-.11.93-.16,1.4-.01.1-.08.62,0,.08-.03.2-.06.41-.09.61-.15,1.01-.32,2.02-.5,3.03-.67,3.58-1.58,7.1-2.77,10.54-.29.83-.59,1.65-.91,2.47-.16.41-.32.81-.49,1.21-.04.1-.24.56-.02.04-.11.27-.23.53-.35.79-.72,1.62-1.5,3.2-2.35,4.76s-1.74,3.04-2.71,4.51c-.47.71-.95,1.41-1.45,2.1-.22.31-.44.61-.67.91-.11.15-.23.3-.34.45.39-.51-.12.15-.2.25-2.18,2.74-4.59,5.3-7.2,7.63-.64.57-1.3,1.13-1.96,1.68-.3.24-.6.49-.9.72.03-.03-.71.55-.36.28.25-.19-.41.3-.49.36-1.45,1.08-2.94,2.1-4.47,3.05s-3.08,1.83-4.67,2.66-3.6,1.76-4.89,2.3c-3.2,1.34-7.32,2.7-11.01,3.63-2.02.51-4.05.95-6.1,1.32-1.02.19-2.05.35-3.08.5-.2.03-1.23.17-.7.1-.52.07-1.03.13-1.55.19-7.62.88-15.32.86-22.93-.09-.1-.01-.62-.09-.07,0-.2-.03-.41-.06-.61-.09-.51-.07-1.01-.15-1.52-.23-.91-.15-1.81-.31-2.71-.49-1.84-.36-3.67-.79-5.49-1.28s-3.58-1.03-5.34-1.65c-.85-.3-1.7-.61-2.54-.94-.37-.15-.74-.29-1.12-.44.05.02-.86-.36-.45-.19.27.12-.49-.21-.58-.25-6.81-3-12.77-6.84-17.84-11.63-1.35-1.28-2.64-2.62-3.87-4.01-.57-.65-1.12-1.31-1.66-1.98-.16-.2-.32-.4-.47-.6-.36-.46.43.58-.16-.21-.31-.41-.61-.82-.91-1.24-2.24-3.14-4.17-6.49-5.78-9.99-1.51-3.27-2.93-7.45-3.91-11.4-1.07-4.34-1.67-8.47-2.12-12.69-.87-8.08-1.08-16.27-.2-24.36.04-.4.09-.8.14-1.19,0,.04.12-.93.06-.47-.05.39.03-.23.04-.31.13-.92.28-1.83.44-2.75.31-1.73.67-3.44,1.1-5.15s.88-3.27,1.42-4.88c.25-.76.52-1.52.81-2.28.12-.33.25-.66.38-.99.08-.21.17-.41.25-.61.05-.12.1-.24.15-.37-.13.31-.15.36-.06.15,1.24-2.88,2.7-5.67,4.39-8.31.41-.64.83-1.27,1.27-1.89.22-.31.44-.62.66-.92.12-.17.25-.34.38-.51.05-.07.48-.63.21-.28-.21.27.42-.52.53-.67.24-.29.48-.58.72-.87.52-.61,1.05-1.21,1.59-1.79,1.06-1.15,2.17-2.25,3.33-3.3.53-.49,1.08-.96,1.63-1.43.29-.25.59-.49.89-.73.17-.13.34-.27.5-.4.52-.42-.42.31.17-.14,2.57-1.94,5.27-3.68,8.1-5.22,1.49-.81,3.01-1.57,4.55-2.27.38-.17.77-.35,1.15-.51.17-.08.35-.15.52-.22.51-.22-.69.28.16-.06s1.69-.68,2.54-1c3.42-1.28,6.93-2.34,10.48-3.22,3.78-.94,7.61-1.66,11.46-2.23,1.7-.25,2.63-2.4,2.22-3.9-.5-1.82-2.2-2.47-3.9-2.22h0Z"/>
      </g>
      <path class="cls-2" d="M40.57,92.37c2.7,6.72,7.08,12.4,13.1,16.48,5.5,3.73,12,5.71,18.58,6.36,12.95,1.28,27.07-3.27,36-12.94,5.41-5.87,8.49-13.24,9.14-21.17.14-1.71-1.56-3.17-3.17-3.17-1.83,0-3.03,1.46-3.17,3.17-.04.45-.09.89-.13,1.33-.01.14-.09.62.01-.06-.03.17-.05.35-.08.52-.14.85-.3,1.7-.51,2.53-.36,1.47-.85,2.87-1.37,4.28-.28.75.19-.43-.01.03-.08.19-.16.37-.25.56-.14.29-.28.59-.42.88-.36.72-.75,1.42-1.16,2.11-.37.61-.76,1.22-1.17,1.8-.18.26-.38.51-.56.77-.33.47,0,0,.06-.08-.15.19-.29.37-.45.56-.95,1.16-1.99,2.26-3.09,3.28-.52.48-1.06.95-1.61,1.4-.21.17-.84.66-.29.24-.32.24-.63.48-.96.71-1.23.88-2.52,1.68-3.84,2.41-.63.35-1.27.67-1.92.98-.29.14-.58.27-.87.4-.18.08-.37.16-.55.24-.22.1.53-.21-.13.05-2.79,1.09-5.65,1.93-8.61,2.46-.36.06-.72.12-1.08.18-.16.03-.32.05-.48.07.74-.11.28-.04.12-.02-.81.08-1.61.17-2.42.23-1.49.1-2.99.12-4.49.06-.69-.03-1.37-.07-2.05-.13-.4-.03-.8-.08-1.2-.12-.16-.02-.32-.04-.48-.06.86.1.03,0-.11-.02-1.46-.24-2.91-.53-4.34-.91s-2.8-.89-4.18-1.4c-.54-.2,0,0,.1.05-.18-.08-.36-.16-.54-.24-.33-.15-.65-.3-.97-.45-.68-.33-1.34-.68-2-1.05-.72-.41-1.43-.85-2.12-1.32-.33-.22-.65-.46-.97-.69-.13-.09-.26-.19-.38-.29.62.46.02.02-.11-.09-1.31-1.07-2.55-2.23-3.68-3.49-.27-.3-.54-.62-.8-.93-.13-.16-.26-.32-.39-.48-.14-.18-.1-.13.12.15-.08-.1-.15-.2-.22-.3-.51-.72-1.02-1.44-1.48-2.19s-.87-1.48-1.26-2.24c-.2-.39-.39-.78-.58-1.18-.09-.2-.18-.4-.27-.61-.09-.21-.07-.16.06.14-.07-.17-.14-.33-.2-.5-.64-1.59-2.12-2.71-3.9-2.22-1.51.41-2.86,2.3-2.22,3.9h0Z"/>
      <g>
        <path class="cls-2" d="M57.89,73.91c4.15,0,8.12-3.65,7.93-7.93s-3.49-7.93-7.93-7.93c-4.15,0-8.12,3.65-7.93,7.93s3.49,7.93,7.93,7.93h0Z"/>
        <path class="cls-2" d="M93.18,68.7c4.15,0,8.12-3.65,7.93-7.93s-3.49-7.93-7.93-7.93c-4.15,0-8.12,3.65-7.93,7.93s3.49,7.93,7.93,7.93h0Z"/>
      </g>
    </g>
  </g>
</svg>