<?xml version="1.0" encoding="UTF-8"?>
<svg id="Layer_2" data-name="Layer 2" xmlns="http://www.w3.org/2000/svg" viewBox="0 0 218.69 433.36">
  <defs>
    <style>
      .cls-1 {
        fill: #ffda59;
      }

      .cls-2 {
        fill: #2f215c;
      }

      .cls-3 {
        fill: #6c58b0;
      }

      .cls-4 {
        fill: #ff5898;
      }
    </style>
  </defs>
  <g id="Layer_1-2" data-name="Layer 1">
    <g id="thing">
      <g>
        <g>
          <path class="cls-3" d="M66.82,225.74c-7.3,47.78-109,172.24-39.4,200.72,79.17,32.39,62.03-156.31,77.94-191.69"/>
          <path class="cls-2" d="M63.76,224.89c-.99,6.4-3.19,12.59-5.59,18.58-.36.89-.72,1.78-1.09,2.67-.05.11-.37.88-.18.42s-.09.22-.14.33c-.2.48-.41.95-.61,1.43-.82,1.89-1.67,3.78-2.53,5.65-1.83,3.97-3.73,7.92-5.66,11.84-4.28,8.66-8.72,17.25-13.11,25.85s-9.14,18-13.44,27.13-8.32,18.23-11.85,27.6c-3.14,8.35-5.89,16.89-7.65,25.64-1.54,7.65-2.45,15.6-1.58,23.4.78,7.07,2.9,14.06,7.14,19.85,4.73,6.45,11.23,10.94,18.55,14.01,6.13,2.57,12.82,4.29,19.5,4.04,5.75-.21,11.38-1.89,16.23-5s9.13-7.72,12.48-12.67c3.77-5.56,6.58-11.74,8.94-18.01,2.66-7.08,4.67-14.39,6.35-21.75,1.83-8.07,3.26-16.22,4.45-24.4,1.27-8.72,2.31-17.48,3.2-26.24s1.59-16.91,2.29-25.38c.65-7.87,1.28-15.75,1.98-23.61.32-3.58.66-7.15,1.05-10.72.18-1.66.36-3.33.56-4.99.1-.8.19-1.6.3-2.39.05-.38.1-.75.15-1.13.02-.13.09-.76.02-.18s.02-.11.04-.26c.72-5.23,1.55-10.48,2.96-15.57.26-.94.55-1.88.87-2.8.15-.43.31-.86.47-1.29.08-.2.17-.4.24-.61.15-.4-.4.86-.15.35.05-.1.09-.2.14-.31.7-1.56.45-3.41-1.14-4.34-1.36-.79-3.64-.43-4.34,1.14-1.86,4.15-2.93,8.58-3.77,13.03-1.16,6.11-1.92,12.3-2.59,18.48-.79,7.26-1.41,14.53-2.02,21.8-.68,8.12-1.32,16.24-2.04,24.35-.75,8.49-1.57,16.97-2.56,25.44-.25,2.11-.51,4.22-.78,6.33-.07.52-.13,1.03-.2,1.55-.04.28-.07.55-.11.83-.07.56.07-.54-.03.22-.15,1.06-.29,2.13-.44,3.19-.59,4.12-1.23,8.23-1.95,12.32-1.37,7.8-3.01,15.56-5.14,23.19-.99,3.53-2.08,7.03-3.33,10.48-.58,1.62-1.2,3.23-1.86,4.83-.08.21-.17.41-.26.62.17-.41.2-.46.02-.06s-.35.81-.53,1.21c-.33.73-.66,1.47-1.01,2.19-1.35,2.83-2.85,5.6-4.56,8.24-.79,1.23-1.66,2.39-2.52,3.57.56-.77-.01.01-.25.3s-.47.57-.71.86c-.44.52-.89,1.02-1.35,1.52-.93,1-1.92,1.96-2.95,2.85-.23.2-.45.39-.68.58-.13.11-.27.22-.4.33-.49.4.19-.14.12-.09-.54.38-1.06.79-1.61,1.15-1.06.71-2.17,1.36-3.31,1.93-.28.14-.56.27-.84.41-.13.06-.26.12-.39.18-.67.31.49-.19.09-.04-.59.22-1.17.46-1.76.66-1.25.42-2.53.75-3.83.99-.29.05-.59.1-.88.15-.13.02-.81.12-.17.03s-.03,0-.18.02c-.69.07-1.38.13-2.07.16-1.41.06-2.83.03-4.24-.08-.36-.03-.72-.06-1.08-.1-.17-.02-.33-.04-.5-.06-.73-.08.71.11,0,0-.75-.12-1.49-.24-2.23-.39-3.39-.69-6.7-1.78-9.89-3.11.5.21.21.09-.09-.04-.24-.11-.49-.22-.73-.33-.48-.22-.95-.44-1.42-.68-.84-.42-1.67-.86-2.49-1.33s-1.62-.96-2.4-1.49c-.37-.25-.73-.5-1.09-.75-.25-.18-1.26-.97-.56-.4-1.35-1.1-2.66-2.23-3.86-3.49-.56-.59-1.1-1.19-1.61-1.82-.14-.17-.26-.34-.41-.5-.13-.15.41.56.05.06-.25-.35-.51-.69-.75-1.04-.92-1.32-1.74-2.71-2.45-4.15-.18-.35-.34-.71-.51-1.07-.08-.17-.15-.33-.22-.5-.3-.67.23.59-.03-.08-.3-.77-.59-1.54-.85-2.33-.52-1.57-.93-3.17-1.25-4.79-.16-.81-.27-1.64-.41-2.45-.07-.42.08.69.04.27,0-.1-.03-.19-.04-.29-.02-.19-.05-.39-.07-.58-.05-.46-.09-.91-.13-1.37-.31-3.66-.23-7.36.09-11.02.08-.94.18-1.88.3-2.81.03-.26.07-.51.1-.77-.07.53-.05.35,0-.04.08-.52.15-1.03.23-1.55.32-2.01.7-4,1.13-5.99.92-4.24,2.08-8.44,3.38-12.58,1.37-4.37,2.91-8.69,4.55-12.97.85-2.22,1.74-4.42,2.64-6.62.23-.55.45-1.09.68-1.63s-.14.32.1-.25c.14-.34.29-.67.43-1.01.49-1.14.98-2.28,1.48-3.41,4.01-9.13,8.36-18.12,12.82-27.04s8.91-17.51,13.37-26.27c4.05-7.97,8.07-15.97,11.77-24.11,3.13-6.88,6.13-13.89,8.3-21.15.81-2.72,1.5-5.47,1.93-8.28.26-1.69-.43-3.41-2.22-3.9-1.5-.41-3.64.51-3.9,2.22h0Z"/>
        </g>
        <g>
          <path class="cls-2" d="M30.84,311.07c15.87,4.78,31.74,9.56,47.61,14.34,4.42,1.33,8.84,2.66,13.26,3.99,3.92,1.18,5.59-4.94,1.69-6.12-15.87-4.78-31.74-9.56-47.6-14.34-4.42-1.33-8.84-2.66-13.26-3.99-3.92-1.18-5.59,4.94-1.69,6.12h0Z"/>
          <path class="cls-2" d="M26.13,326.71c15.87,4.79,31.74,9.57,47.61,14.35,4.42,1.33,8.84,2.66,13.27,4,3.92,1.18,5.59-4.94,1.69-6.12-15.87-4.78-31.74-9.56-47.61-14.35-4.42-1.33-8.84-2.67-13.26-4-3.92-1.18-5.59,4.94-1.69,6.12h0Z"/>
          <path class="cls-2" d="M18.46,341.48c17.39,5.24,34.78,10.48,52.17,15.72,4.87,1.47,9.74,2.94,14.61,4.4,3.92,1.18,5.59-4.94,1.69-6.12-17.39-5.24-34.78-10.48-52.17-15.72-4.87-1.47-9.74-2.93-14.61-4.4-3.92-1.18-5.59,4.94-1.69,6.12h0Z"/>
          <path class="cls-2" d="M8.25,368.28c18.45,5.55,36.9,11.12,55.34,16.67,5.11,1.54,10.23,3.08,15.34,4.62,3.92,1.18,5.59-4.94,1.69-6.12-18.45-5.55-36.89-11.12-55.34-16.67-5.12-1.54-10.23-3.08-15.35-4.62-3.92-1.18-5.59,4.94-1.69,6.12h0Z"/>
        </g>
      </g>
      <g>
        <g>
          <path class="cls-4" d="M87,231.34C23.64,202.85,8.77,125.69,33.74,68.33,58.63,11.17,104.75-12.44,163.18,13.84c98.12,44.11,50.12,230.6-76.18,217.5"/>
          <path class="cls-2" d="M88.6,228.6c-6.04-2.73-11.84-5.97-17.29-9.75-2.82-1.95-4.75-3.43-7.33-5.63-2.35-1.99-4.61-4.09-6.78-6.29s-4.32-4.59-6.32-7.02c-.46-.56-.92-1.13-1.37-1.71-.1-.12-.19-.25-.29-.37-.32-.42.24.32-.08-.1-.25-.33-.51-.66-.75-1-.93-1.25-1.84-2.52-2.72-3.81-3.45-5.05-6.46-10.39-9.04-15.94-1.35-2.91-2.17-4.87-3.32-7.99-1.06-2.87-2.02-5.79-2.87-8.73-1.7-5.92-2.95-11.95-3.82-18.05-.08-.53.06.44-.01-.09-.02-.16-.04-.31-.06-.47-.05-.42-.1-.83-.15-1.25-.09-.78-.18-1.56-.26-2.34-.15-1.51-.28-3.03-.38-4.54-.21-3.14-.32-6.29-.32-9.44,0-6.21.41-12.42,1.22-18.57-.07.53.06-.42.08-.56.05-.36.11-.73.16-1.09.12-.78.24-1.56.37-2.34.26-1.56.55-3.11.86-4.65.61-3.04,1.33-6.06,2.14-9.05s1.72-5.94,2.73-8.86c.49-1.43,1.01-2.86,1.56-4.27.28-.73.57-1.46.86-2.19.14-.34.27-.68.41-1.01.06-.14.12-.29.18-.43.13-.3-.11.25.11-.25,2.82-6.56,6.02-12.96,9.7-19.09,1.74-2.9,3.59-5.74,5.56-8.5s3.48-4.72,5.7-7.31c4-4.7,8.41-9.05,13.22-12.91.32-.25.63-.5.95-.75-.39.3.33-.25.44-.33.6-.45,1.21-.9,1.82-1.34,1.22-.87,2.46-1.71,3.72-2.51,2.45-1.56,4.99-2.99,7.6-4.27,1.27-.63,2.56-1.22,3.87-1.77-.53.22.32-.13.46-.19.32-.13.64-.25.95-.38.73-.28,1.46-.56,2.2-.82,2.73-.97,5.51-1.77,8.34-2.42,1.4-.32,2.81-.6,4.22-.85.74-.13,1.48-.24,2.22-.35.15-.02.3-.04.45-.06-.13.02-.59.07.05,0,.4-.05.8-.1,1.2-.14,3-.33,6.01-.49,9.02-.49s6.24.17,9.34.49c.76.08,1.51.17,2.26.26.66.08.27.04.13.02.22.03.43.06.65.09.44.06.87.13,1.31.2,1.6.26,3.2.55,4.79.88,6.96,1.45,13.77,3.59,20.37,6.23,4.71,1.88,9.54,4.15,14.03,6.84,1.91,1.14,3.78,2.36,5.6,3.65.43.3.85.61,1.27.92.21.15.42.31.63.47.24.18.79.61.24.18.87.68,1.74,1.37,2.58,2.09,3.28,2.76,6.34,5.78,9.16,9.01.71.81,1.4,1.64,2.08,2.48.31.39.63.79.93,1.18-.37-.48-.13-.16.09.13.17.23.34.46.52.69,1.26,1.7,2.45,3.44,3.58,5.23,2.26,3.58,4.27,7.31,6.01,11.17.22.49.44.99.66,1.48.08.18.4.94.06.14.11.27.22.53.33.8.41,1,.81,2.01,1.18,3.03.75,2.01,1.43,4.04,2.05,6.09,1.25,4.15,2.24,8.37,2.99,12.64.19,1.06.36,2.12.51,3.18.04.29.08.59.13.88.05.38.07.57,0,.04.07.59.15,1.18.22,1.77.26,2.19.45,4.4.59,6.6.28,4.46.31,8.94.12,13.4-.09,2.26-.25,4.51-.45,6.76-.11,1.15-.23,2.3-.36,3.44-.06.54-.13,1.07-.2,1.61-.02.15-.04.31-.06.46,0,0,.09-.64.04-.27-.05.31-.08.61-.13.92-1.31,9.13-3.52,18.13-6.56,26.84-.76,2.18-1.57,4.35-2.44,6.49-.21.51-.42,1.02-.62,1.52-.28.68.13-.3-.09.22-.12.29-.25.58-.37.86-.47,1.08-.95,2.15-1.44,3.22-1.94,4.2-4.09,8.3-6.45,12.28s-4.9,7.83-7.65,11.54c-.33.44-.65.88-.99,1.31-.1.13-.72.94-.22.29-.19.25-.38.49-.58.74-.7.89-1.41,1.77-2.14,2.64-1.47,1.77-2.99,3.5-4.56,5.19-3.16,3.4-6.52,6.61-10.05,9.61-.86.73-1.74,1.45-2.62,2.16-.43.34-.86.68-1.29,1.01.65-.51-.16.12-.29.22-.25.19-.5.38-.75.56-1.85,1.38-3.75,2.7-5.68,3.96-3.9,2.54-7.96,4.82-12.16,6.83-1.04.5-2.09.98-3.15,1.44-.29.13-.59.25-.88.38-.53.23.51-.21-.24.1-.56.23-1.11.46-1.67.68-2.21.87-4.46,1.67-6.73,2.39-4.65,1.47-9.39,2.62-14.2,3.43-.62.11-1.25.21-1.87.3-.29.04-.59.09-.88.13-.13.02-.25.04-.38.05-.62.09.36-.05-.04,0-1.23.16-2.47.3-3.7.42-2.61.25-5.22.41-7.84.48-5.19.14-10.39-.09-15.55-.62-1.71-.18-3.17,1.58-3.17,3.17,0,1.86,1.46,3,3.17,3.17,10.82,1.11,21.73.79,32.45-1.08,9.85-1.72,19.42-4.87,28.41-9.23s16.68-9.6,23.98-15.85,13.75-13.42,19.43-21.16,10.34-15.83,14.23-24.42,7.11-17.81,9.31-27.14,3.48-18.71,3.8-28.19-.37-18.53-2.06-27.63-4.36-17.36-8.14-25.47-8.64-15.48-14.54-22.07-13.28-12.58-21.16-17.12c-5.13-2.96-10.59-5.34-16.11-7.47-6.63-2.55-13.46-4.58-20.44-5.91-12.68-2.4-25.77-2.51-38.34.59-11.96,2.94-22.96,8.77-32.49,16.52-10.26,8.34-18.62,18.9-25.35,30.23s-12.51,24.54-16.03,37.78c-3.3,12.4-4.94,25.3-4.85,38.14s1.86,25.48,5.45,37.67,8.96,23.81,16.18,34.2,16.84,20.15,27.66,27.61c5.37,3.7,11.08,6.88,17.02,9.56,1.56.7,3.41.45,4.34-1.14.79-1.36.43-3.63-1.14-4.34h0Z"/>
        </g>
        <g>
          <path class="cls-2" d="M56.93,70.43c3.11,0,6.09-2.74,5.95-5.95s-2.61-5.95-5.95-5.95c-3.11,0-6.09,2.74-5.95,5.95s2.61,5.95,5.95,5.95h0Z"/>
          <path class="cls-2" d="M90.18,78.42c3.11,0,6.09-2.74,5.95-5.95s-2.61-5.95-5.95-5.95c-3.11,0-6.09,2.74-5.95,5.95s2.61,5.95,5.95,5.95h0Z"/>
          <path class="cls-2" d="M125.33,86.99c3.11,0,6.09-2.74,5.95-5.95s-2.61-5.95-5.95-5.95c-3.11,0-6.09,2.74-5.95,5.95s2.61,5.95,5.95,5.95h0Z"/>
          <path class="cls-2" d="M161.02,100.77c3.11,0,6.09-2.74,5.95-5.95s-2.61-5.95-5.95-5.95c-3.11,0-6.09,2.74-5.95,5.95s2.61,5.95,5.95,5.95h0Z"/>
          <path class="cls-2" d="M195.35,112.12c3.11,0,6.09-2.74,5.95-5.95s-2.61-5.95-5.95-5.95c-3.11,0-6.09,2.74-5.95,5.95s2.61,5.95,5.95,5.95h0Z"/>
          <path class="cls-2" d="M107.67,159.55c3.11,0,6.09-2.74,5.95-5.95s-2.61-5.95-5.95-5.95c-3.11,0-6.09,2.74-5.95,5.95s2.61,5.95,5.95,5.95h0Z"/>
          <path class="cls-2" d="M74.87,146.64c3.11,0,6.09-2.74,5.95-5.95s-2.61-5.95-5.95-5.95c-3.11,0-6.09,2.74-5.95,5.95s2.61,5.95,5.95,5.95h0Z"/>
          <path class="cls-2" d="M43.7,135.24c3.11,0,6.09-2.74,5.95-5.95s-2.61-5.95-5.95-5.95c-3.11,0-6.09,2.74-5.95,5.95s2.61,5.95,5.95,5.95h0Z"/>
          <path class="cls-2" d="M139.94,167.26c3.11,0,6.09-2.74,5.95-5.95s-2.61-5.95-5.95-5.95c-3.11,0-6.09,2.74-5.95,5.95s2.61,5.95,5.95,5.95h0Z"/>
          <path class="cls-2" d="M174.14,175.53c3.11,0,6.09-2.74,5.95-5.95s-2.61-5.95-5.95-5.95c-3.11,0-6.09,2.74-5.95,5.95s2.61,5.95,5.95,5.95h0Z"/>
        </g>
        <g>
          <g>
            <path class="cls-1" d="M133.95,141.12c23.07,7,46.55,11.99,69.93,17.45,4.15-9.67,7.25-19.77,9.18-29.99-60.47-18.43-120.89-37.02-181.6-54.67-3.58,9.38-6.13,19.22-7.62,29.23,36,14.65,72.92,26.71,110.11,37.98Z"/>
            <path class="cls-2" d="M133.11,144.18c17.88,5.41,36.08,9.66,54.28,13.84,5.22,1.2,10.43,2.39,15.65,3.61,1.23.29,3.03-.16,3.58-1.46,4.23-9.91,7.48-20.16,9.5-30.75.33-1.72-.47-3.37-2.22-3.9-23.65-7.21-47.29-14.44-70.94-21.63s-47-14.25-70.54-21.24c-13.36-3.97-26.73-7.91-40.11-11.8-1.76-.51-3.3.63-3.9,2.22-3.59,9.44-6.11,19.24-7.62,29.23-.28,1.86.46,3.19,2.22,3.9,28.04,11.4,56.67,21.26,85.52,30.38,8.18,2.59,16.38,5.11,24.59,7.6,3.92,1.19,5.59-4.94,1.69-6.12-28.96-8.78-57.78-18.04-86.13-28.64-8.04-3-16.03-6.11-23.98-9.34l2.22,3.9c1.51-9.98,4.03-19.79,7.62-29.23l-3.9,2.22c23.74,6.9,47.44,13.95,71.11,21.07,23.51,7.08,47.01,14.23,70.49,21.4,13.33,4.07,26.66,8.14,39.99,12.2l-2.22-3.9c-1.92,10.01-4.86,19.86-8.86,29.24l3.58-1.46c-18.17-4.24-36.41-8.21-54.44-13.04-5.19-1.39-10.35-2.86-15.49-4.41-3.92-1.19-5.59,4.94-1.69,6.12Z"/>
          </g>
          <path class="cls-2" d="M28.39,91.32c23.22,8.69,46.57,17.03,70.16,24.65,21.53,6.96,43.25,13.28,65.11,19.09,13.47,3.58,26.98,6.98,40.51,10.28,3.97.97,5.66-5.15,1.69-6.12-23.36-5.7-46.65-11.7-69.75-18.39-21.93-6.35-43.67-13.34-65.23-20.85-13.66-4.76-27.26-9.72-40.81-14.79-1.61-.6-3.48.67-3.9,2.22-.49,1.78.61,3.3,2.22,3.9h0Z"/>
        </g>
        <g>
          <path class="cls-2" d="M143.4,27.66c1.11.13-.29-.05.36.04.29.04.57.09.86.13.46.08.92.16,1.38.25,1.15.23,2.3.51,3.43.84,2.11.6,4.24,1.39,6,2.18,4.05,1.84,8.09,4.3,11.48,6.92,7.58,5.87,13.77,13.31,18.05,21.85,2.22,4.43,3.85,9.34,4.65,14.43.27,1.69,2.38,2.63,3.9,2.22,1.81-.5,2.48-2.2,2.22-3.9-1.59-10.08-6.4-19.42-12.65-27.39s-14.31-14.77-23.45-19.14c-5.16-2.47-10.54-4.11-16.23-4.78-1.7-.2-3.17,1.6-3.17,3.17,0,1.88,1.46,2.97,3.17,3.17h0Z"/>
          <path class="cls-2" d="M43.04,169.53c8.41,15.62,19.73,30.04,34.17,40.5,3.96,2.87,8.18,5.39,12.61,7.47,1.55.73,3.42.44,4.34-1.14.8-1.37.42-3.61-1.14-4.34-15.29-7.15-27.61-19.52-37.03-33.35-2.71-3.98-5.19-8.1-7.47-12.33-1.94-3.6-7.42-.4-5.48,3.2h0Z"/>
        </g>
      </g>
    </g>
  </g>
</svg>